<svg xmlns="http://www.w3.org/2000/svg" xmlns:xlink="http://www.w3.org/1999/xlink" width="514.5" height="457"><g transform="translate(6 5)"><path d="M14 75c0-5.52 4.48-10 10-10h140c5.52 0 10 4.48 10 10v135c0 5.52-4.48 10-10 10H24c-5.52 0-10-4.48-10-10z" stroke="#000" stroke-width="2" fill="#fff"/><use xlink:href="#a" transform="matrix(1,0,0,1,22,73) translate(25.049999999999997 15.6)"/><use xlink:href="#b" transform="matrix(1,0,0,1,22,73) translate(106.95 15.6)"/><path d="M34 120c0-2.76 2.24-5 5-5h110c2.76 0 5 2.24 5 5v30c0 2.76-2.24 5-5 5H39c-2.76 0-5-2.24-5-5z" stroke="#b2b2b2" stroke-width="2" fill="#f9d2de"/><use xlink:href="#c" transform="matrix(1,0,0,1,42,123) translate(16.549999999999997 15.6)"/><use xlink:href="#d" transform="matrix(1,0,0,1,42,123) translate(77.44999999999999 15.6)"/><path d="M34 168c0-2.76 2.24-5 5-5h110c2.76 0 5 2.24 5 5v30c0 2.76-2.24 5-5 5H39c-2.76 0-5-2.24-5-5z" stroke="#b2b2b2" stroke-width="2" fill="#ffdba9"/><use xlink:href="#c" transform="matrix(1,0,0,1,42,171) translate(16.549999999999997 15.6)"/><use xlink:href="#e" transform="matrix(1,0,0,1,42,171) translate(77.44999999999999 15.6)"/><path d="M14 242c0-5.52 4.48-10 10-10h140c5.52 0 10 4.48 10 10v180c0 5.52-4.48 10-10 10H24c-5.52 0-10-4.48-10-10z" stroke="#000" stroke-width="2" fill="#fff"/><use xlink:href="#a" transform="matrix(1,0,0,1,22,240) translate(25.049999999999997 15.6)"/><use xlink:href="#f" transform="matrix(1,0,0,1,22,240) translate(106.95 15.6)"/><path d="M34 277c0-2.76 2.24-5 5-5h110c2.76 0 5 2.24 5 5v30c0 2.76-2.24 5-5 5H39c-2.76 0-5-2.24-5-5z" stroke="#b2b2b2" stroke-width="2" fill="#ffeca9"/><use xlink:href="#c" transform="matrix(1,0,0,1,42,280) translate(16.549999999999997 15.6)"/><use xlink:href="#d" transform="matrix(1,0,0,1,42,280) translate(77.44999999999999 15.6)"/><path d="M34 327c0-2.76 2.24-5 5-5h110c2.76 0 5 2.24 5 5v30c0 2.76-2.24 5-5 5H39c-2.76 0-5-2.24-5-5z" stroke="#b2b2b2" stroke-width="2" fill="#c1e4f7"/><use xlink:href="#c" transform="matrix(1,0,0,1,42,330) translate(16.549999999999997 15.6)"/><use xlink:href="#e" transform="matrix(1,0,0,1,42,330) translate(77.44999999999999 15.6)"/><path d="M34 377c0-2.76 2.24-5 5-5h110c2.76 0 5 2.24 5 5v30c0 2.76-2.24 5-5 5H39c-2.76 0-5-2.24-5-5z" stroke="#b2b2b2" stroke-width="2" fill="#c7e8ac"/><use xlink:href="#c" transform="matrix(1,0,0,1,42,380) translate(16.549999999999997 15.6)"/><use xlink:href="#g" transform="matrix(1,0,0,1,42,380) translate(77.44999999999999 15.6)"/><path d="M341.25 359.25c0 4-3.25 7.25-7.25 7.25s-7.25-3.25-7.25-7.25S330 352 334 352s7.25 3.25 7.25 7.25z" stroke="#000" stroke-width="2" fill="#fff"/><path d="M314 352h40v58h-40z" fill="none"/><path d="M334 366.5v20.3l20 23.2m-20-23.2L314 410m0-36.25h40" stroke="#000" stroke-width="2" fill="none"/><path d="M314 392l-140-60" stroke="#000" fill="none"/><path d="M314 392.54l-.2-.08.2-.46zM188.94 333.36l-3.65 8.52L174 332z"/><path d="M189.67 332.92l-4.2 9.8L174 332.65v-1.16zm-4.57 8.13l3.1-7.26-12.7-1.16z"/><path d="M155 392h159" stroke="#000" fill="none"/><path d="M169.27 396.64L155 392l14.27-4.64z"/><path d="M169.77 397.32L154 392.2v-.4l15.77-5.12zM156.62 392l12.15 3.95v-7.9z"/><path d="M155 292.7l156-11.2" stroke="#000" fill="none"/><path d="M169.56 296.3L155 292.7l13.9-5.64z"/><path d="M170.1 296.95l-16.1-3.98v-.4l15.35-6.24zm-13.5-4.37l12.4 3.07-.55-7.87zM311 281.5l-.04-.5h.1z"/><path d="M154 183l157 98.5" stroke="#000" fill="none"/><path d="M168.55 186.66l-4.93 7.85L154 183z"/><path d="M169.34 186.34l-5.66 9.02-9.68-11.58v-1.3zm-5.78 7.32l4.2-6.7-12.4-3.1zM311.02 282.1l-.3-.18.28-.42z"/><path d="M337.55 301.3c-14.66 0-26.55-8.86-26.55-19.8 0-8.75 7.2-16.13 18.35-18.83-.65-25.72 43.6-30.67 61.3-20.77 8.85-14.85 53.1-9.9 53.1 4.95 26.55-4.95 53.1 14.85 35.4 39.6 17.7 19.8 0 44.55-35.4 34.65-8.85 12.87-44.25 12.87-53.1 0-17.7 9.9-53.1 4.95-53.1-19.8z" stroke="#999" fill="#fff"/><use xlink:href="#h" transform="matrix(1,0,0,1,316,237) translate(26.166666666666664 31.166666666666664)"/><use xlink:href="#i" transform="matrix(1,0,0,1,316,237) translate(80.16666666666667 31.166666666666664)"/><use xlink:href="#j" transform="matrix(1,0,0,1,316,237) translate(97.94444444444446 31.166666666666664)"/><use xlink:href="#k" transform="matrix(1,0,0,1,316,237) translate(45.01851851851851 47.16666666666667)"/><use xlink:href="#l" transform="matrix(1,0,0,1,316,237) translate(34.333333333333336 63.16666666666667)"/><path d="M355.5 358.5h130v58h-130z" fill="none"/><use xlink:href="#m" transform="matrix(1,0,0,1,360.5,363.5) translate(7.111111111111114 11.166666666666664)"/><use xlink:href="#n" transform="matrix(1,0,0,1,360.5,363.5) translate(49.25925925925926 11.166666666666664)"/><use xlink:href="#k" transform="matrix(1,0,0,1,360.5,363.5) translate(21.518518518518512 27.166666666666664)"/><use xlink:href="#o" transform="matrix(1,0,0,1,360.5,363.5) translate(7.888888888888893 43.16666666666667)"/><path d="M338.05 134.3c-14.66 0-26.55-8.86-26.55-19.8 0-8.75 7.2-16.13 18.35-18.83-.65-25.72 43.6-30.67 61.3-20.77 8.85-14.85 53.1-9.9 53.1 4.95 26.55-4.95 53.1 14.85 35.4 39.6 17.7 19.8 0 44.55-35.4 34.65-8.85 12.87-44.25 12.87-53.1 0-17.7 9.9-53.1 4.95-53.1-19.8z" stroke="#999" fill="#fff"/><use xlink:href="#p" transform="matrix(1,0,0,1,316.5,70) translate(14.68518518518519 31.166666666666664)"/><use xlink:href="#i" transform="matrix(1,0,0,1,316.5,70) translate(79.05555555555556 31.166666666666664)"/><use xlink:href="#q" transform="matrix(1,0,0,1,316.5,70) translate(96.83333333333334 31.166666666666664)"/><use xlink:href="#k" transform="matrix(1,0,0,1,316.5,70) translate(45.01851851851851 47.16666666666667)"/><use xlink:href="#r" transform="matrix(1,0,0,1,316.5,70) translate(23.592592592592588 63.16666666666667)"/><path d="M311.02 115L175 83.4" stroke="#000" fill="none"/><path d="M311.5 114.6l.03.86.03.18-.66-.15.23-1zM187.85 91.14L175 83.4l14.94-1.3z"/><path d="M188.18 91.93L174 83.38v-.4l16.6-1.42zm-11.6-8.16l10.94 6.6 1.78-7.7z"/><path d="M311.02 115L154 292" stroke="#000" fill="none"/><path d="M311.5 114.5l.02.68-.13.15-.76-.66.98-1.1zM166.93 284.4L154 292l6-13.75z"/><path d="M167.78 284.5L154 292.57v-1.83l5.82-13.33zm-12.7 6.3l11-6.48-5.9-5.24z"/><path d="M311.5 114.5L154 135" stroke="#000" fill="none"/><path d="M311.5 114.5l-.06-.5h.13zM168.74 137.76L154 135l13.55-6.44z"/><path d="M169.33 138.37L154 135.5v-1.05l13.96-6.63zm-13.73-3.58l12.56 2.34-1.02-7.83z"/><g fill="none"><path d="M180 60h137V40H180z"/><path d="M317 60c0-4.73-3.83-8.56-8.56-8.56h-51.38c-4.73 0-8.56-3.84-8.56-8.56 0 4.72-3.83 8.56-8.56 8.56h-51.38c-4.73 0-8.56 3.83-8.56 8.56" stroke="#000"/></g><path d="M181.2 15h135v20h-135z" fill="none"/><g><use xlink:href="#s" transform="matrix(1,0,0,1,186.19999999995343,20) translate(1.9629629629629548 10.666666666666668)"/><use xlink:href="#t" transform="matrix(1,0,0,1,186.19999999995343,20) translate(68.33333333333334 10.666666666666668)"/><use xlink:href="#u" transform="matrix(1,0,0,1,186.19999999995343,20) translate(93.51851851851853 10.666666666666668)"/></g><defs><path d="M212-179c-10-28-35-45-73-45-59 0-87 40-87 99 0 60 29 101 89 101 43 0 62-24 78-52l27 14C228-24 195 4 139 4 59 4 22-46 18-125c-6-104 99-153 187-111 19 9 31 26 39 46" id="v"/><path d="M100-194c62-1 85 37 85 99 1 63-27 99-86 99S16-35 15-95c0-66 28-99 85-99zM99-20c44 1 53-31 53-75 0-43-8-75-51-75s-53 32-53 75 10 74 51 75" id="w"/><path d="M210-169c-67 3-38 105-44 169h-31v-121c0-29-5-50-35-48C34-165 62-65 56 0H25l-1-190h30c1 10-1 24 2 32 10-44 99-50 107 0 11-21 27-35 58-36 85-2 47 119 55 194h-31v-121c0-29-5-49-35-48" id="x"/><path d="M115-194c55 1 70 41 70 98S169 2 115 4C84 4 66-9 55-30l1 105H24l-1-265h31l2 30c10-21 28-34 59-34zm-8 174c40 0 45-34 45-75s-6-73-45-74c-42 0-51 32-51 76 0 43 10 73 51 73" id="y"/><path d="M141-36C126-15 110 5 73 4 37 3 15-17 15-53c-1-64 63-63 125-63 3-35-9-54-41-54-24 1-41 7-42 31l-33-3c5-37 33-52 76-52 45 0 72 20 72 64v82c-1 20 7 32 28 27v20c-31 9-61-2-59-35zM48-53c0 20 12 33 32 33 41-3 63-29 60-74-43 2-92-5-92 41" id="z"/><path d="M117-194c89-4 53 116 60 194h-32v-121c0-31-8-49-39-48C34-167 62-67 57 0H25l-1-190h30c1 10-1 24 2 32 11-22 29-35 61-36" id="A"/><path d="M179-190L93 31C79 59 56 82 12 73V49c39 6 53-20 64-50L1-190h34L92-34l54-156h33" id="B"/><g id="a"><use transform="matrix(0.05,0,0,0.05,0,0)" xlink:href="#v"/><use transform="matrix(0.05,0,0,0.05,12.950000000000001,0)" xlink:href="#w"/><use transform="matrix(0.05,0,0,0.05,22.950000000000003,0)" xlink:href="#x"/><use transform="matrix(0.05,0,0,0.05,37.900000000000006,0)" xlink:href="#y"/><use transform="matrix(0.05,0,0,0.05,47.900000000000006,0)" xlink:href="#z"/><use transform="matrix(0.05,0,0,0.05,57.900000000000006,0)" xlink:href="#A"/><use transform="matrix(0.05,0,0,0.05,67.9,0)" xlink:href="#B"/></g><path d="M205 0l-28-72H64L36 0H1l101-248h38L239 0h-34zm-38-99l-47-123c-12 45-31 82-46 123h93" id="C"/><use transform="matrix(0.05,0,0,0.05,0,0)" xlink:href="#C" id="b"/><path d="M30-248c87 1 191-15 191 75 0 78-77 80-158 76V0H30v-248zm33 125c57 0 124 11 124-50 0-59-68-47-124-48v98" id="D"/><path d="M114-163C36-179 61-72 57 0H25l-1-190h30c1 12-1 29 2 39 6-27 23-49 58-41v29" id="E"/><path d="M24-231v-30h32v30H24zM-9 49c24 4 33-6 33-30v-209h32V24c2 40-23 58-65 49V49" id="F"/><path d="M100-194c63 0 86 42 84 106H49c0 40 14 67 53 68 26 1 43-12 49-29l28 8c-11 28-37 45-77 45C44 4 14-33 15-96c1-61 26-98 85-98zm52 81c6-60-76-77-97-28-3 7-6 17-6 28h103" id="G"/><path d="M96-169c-40 0-48 33-48 73s9 75 48 75c24 0 41-14 43-38l32 2c-6 37-31 61-74 61-59 0-76-41-82-99-10-93 101-131 147-64 4 7 5 14 7 22l-32 3c-4-21-16-35-41-35" id="H"/><path d="M59-47c-2 24 18 29 38 22v24C64 9 27 4 27-40v-127H5v-23h24l9-43h21v43h35v23H59v120" id="I"/><g id="c"><use transform="matrix(0.05,0,0,0.05,0,0)" xlink:href="#D"/><use transform="matrix(0.05,0,0,0.05,12,0)" xlink:href="#E"/><use transform="matrix(0.05,0,0,0.05,17.95,0)" xlink:href="#w"/><use transform="matrix(0.05,0,0,0.05,27.950000000000003,0)" xlink:href="#F"/><use transform="matrix(0.05,0,0,0.05,31.899999999999995,0)" xlink:href="#G"/><use transform="matrix(0.05,0,0,0.05,41.9,0)" xlink:href="#H"/><use transform="matrix(0.05,0,0,0.05,50.9,0)" xlink:href="#I"/></g><path d="M27 0v-27h64v-190l-56 39v-29l58-41h29v221h61V0H27" id="J"/><use transform="matrix(0.05,0,0,0.05,0,0)" xlink:href="#J" id="d"/><path d="M101-251c82-7 93 87 43 132L82-64C71-53 59-42 53-27h129V0H18c2-99 128-94 128-182 0-28-16-43-45-43s-46 15-49 41l-32-3c6-41 34-60 81-64" id="K"/><use transform="matrix(0.05,0,0,0.05,0,0)" xlink:href="#K" id="e"/><path d="M160-131c35 5 61 23 61 61C221 17 115-2 30 0v-248c76 3 177-17 177 60 0 33-19 50-47 57zm-97-11c50-1 110 9 110-42 0-47-63-36-110-37v79zm0 115c55-2 124 14 124-45 0-56-70-42-124-44v89" id="L"/><use transform="matrix(0.05,0,0,0.05,0,0)" xlink:href="#L" id="f"/><path d="M126-127c33 6 58 20 58 59 0 88-139 92-164 29-3-8-5-16-6-25l32-3c6 27 21 44 54 44 32 0 52-15 52-46 0-38-36-46-79-43v-28c39 1 72-4 72-42 0-27-17-43-46-43-28 0-47 15-49 41l-32-3c6-42 35-63 81-64 48-1 79 21 79 65 0 36-21 52-52 59" id="M"/><use transform="matrix(0.05,0,0,0.05,0,0)" xlink:href="#M" id="g"/><path d="M24-231v-30h32v30H24zM24 0v-190h32V0H24" id="N"/><path d="M85-194c31 0 48 13 60 33l-1-100h32l1 261h-30c-2-10 0-23-3-31C134-8 116 4 85 4 32 4 16-35 15-94c0-66 23-100 70-100zm9 24c-40 0-46 34-46 75 0 40 6 74 45 74 42 0 51-32 51-76 0-42-9-74-50-73" id="O"/><path d="M145-31C134-9 116 4 85 4 32 4 16-35 15-94c0-59 17-99 70-100 32-1 48 14 60 33 0-11-1-24 2-32h30l-1 268h-32zM93-21c41 0 51-33 51-76s-8-73-50-73c-40 0-46 35-46 75s5 74 45 74" id="P"/><path d="M84 4C-5 8 30-112 23-190h32v120c0 31 7 50 39 49 72-2 45-101 50-169h31l1 190h-30c-1-10 1-25-2-33-11 22-28 36-60 37" id="Q"/><path d="M143 0L79-87 56-68V0H24v-261h32v163l83-92h37l-77 82L181 0h-38" id="R"/><g id="h"><use transform="matrix(0.03703703703703704,0,0,0.03703703703703704,0,0)" xlink:href="#L"/><use transform="matrix(0.03703703703703704,0,0,0.03703703703703704,8.88888888888889,0)" xlink:href="#N"/><use transform="matrix(0.03703703703703704,0,0,0.03703703703703704,11.814814814814817,0)" xlink:href="#O"/><use transform="matrix(0.03703703703703704,0,0,0.03703703703703704,19.222222222222225,0)" xlink:href="#P"/><use transform="matrix(0.03703703703703704,0,0,0.03703703703703704,26.629629629629633,0)" xlink:href="#Q"/><use transform="matrix(0.03703703703703704,0,0,0.03703703703703704,34.03703703703704,0)" xlink:href="#N"/><use transform="matrix(0.03703703703703704,0,0,0.03703703703703704,36.96296296296296,0)" xlink:href="#H"/><use transform="matrix(0.03703703703703704,0,0,0.03703703703703704,43.62962962962963,0)" xlink:href="#R"/></g><path d="M115-194c53 0 69 39 70 98 0 66-23 100-70 100C84 3 66-7 56-30L54 0H23l1-261h32v101c10-23 28-34 59-34zm-8 174c40 0 45-34 45-75 0-40-5-75-45-74-42 0-51 32-51 76 0 43 10 73 51 73" id="S"/><g id="i"><use transform="matrix(0.03703703703703704,0,0,0.03703703703703704,0,0)" xlink:href="#S"/><use transform="matrix(0.03703703703703704,0,0,0.03703703703703704,7.407407407407408,0)" xlink:href="#B"/></g><path d="M30-248c118-7 216 8 213 122C240-48 200 0 122 0H30v-248zM63-27c89 8 146-16 146-99s-60-101-146-95v194" id="T"/><path d="M108 0H70L1-190h34L89-25l56-165h34" id="U"/><g id="j"><use transform="matrix(0.03703703703703704,0,0,0.03703703703703704,0,0)" xlink:href="#T"/><use transform="matrix(0.03703703703703704,0,0,0.03703703703703704,9.592592592592593,0)" xlink:href="#G"/><use transform="matrix(0.03703703703703704,0,0,0.03703703703703704,17,0)" xlink:href="#U"/><use transform="matrix(0.03703703703703704,0,0,0.03703703703703704,23.66666666666667,0)" xlink:href="#y"/><use transform="matrix(0.03703703703703704,0,0,0.03703703703703704,31.07407407407408,0)" xlink:href="#E"/><use transform="matrix(0.03703703703703704,0,0,0.03703703703703704,35.48148148148148,0)" xlink:href="#w"/></g><path d="M87 75C49 33 22-17 22-94c0-76 28-126 65-167h31c-38 41-64 92-64 168S80 34 118 75H87" id="V"/><path d="M135-143c-3-34-86-38-87 0 15 53 115 12 119 90S17 21 10-45l28-5c4 36 97 45 98 0-10-56-113-15-118-90-4-57 82-63 122-42 12 7 21 19 24 35" id="W"/><path d="M33-154v-36h34v36H33zM33 0v-36h34V0H33" id="X"/><g id="k"><use transform="matrix(0.03703703703703704,0,0,0.03703703703703704,0,0)" xlink:href="#V"/><use transform="matrix(0.03703703703703704,0,0,0.03703703703703704,4.407407407407408,0)" xlink:href="#A"/><use transform="matrix(0.03703703703703704,0,0,0.03703703703703704,11.814814814814817,0)" xlink:href="#z"/><use transform="matrix(0.03703703703703704,0,0,0.03703703703703704,19.222222222222225,0)" xlink:href="#x"/><use transform="matrix(0.03703703703703704,0,0,0.03703703703703704,30.2962962962963,0)" xlink:href="#G"/><use transform="matrix(0.03703703703703704,0,0,0.03703703703703704,37.70370370370371,0)" xlink:href="#W"/><use transform="matrix(0.03703703703703704,0,0,0.03703703703703704,44.37037037037039,0)" xlink:href="#y"/><use transform="matrix(0.03703703703703704,0,0,0.03703703703703704,51.777777777777786,0)" xlink:href="#z"/><use transform="matrix(0.03703703703703704,0,0,0.03703703703703704,59.18518518518519,0)" xlink:href="#H"/><use transform="matrix(0.03703703703703704,0,0,0.03703703703703704,65.85185185185186,0)" xlink:href="#G"/><use transform="matrix(0.03703703703703704,0,0,0.03703703703703704,73.25925925925927,0)" xlink:href="#X"/></g><path d="M16-82v-28h88v28H16" id="Y"/><path d="M33-261c38 41 65 92 65 168S71 34 33 75H2C39 34 66-17 66-93S39-220 2-261h31" id="Z"/><g id="l"><use transform="matrix(0.03703703703703704,0,0,0.03703703703703704,0,0)" xlink:href="#O"/><use transform="matrix(0.03703703703703704,0,0,0.03703703703703704,7.407407407407408,0)" xlink:href="#G"/><use transform="matrix(0.03703703703703704,0,0,0.03703703703703704,14.814814814814817,0)" xlink:href="#U"/><use transform="matrix(0.03703703703703704,0,0,0.03703703703703704,21.481481481481485,0)" xlink:href="#y"/><use transform="matrix(0.03703703703703704,0,0,0.03703703703703704,28.888888888888893,0)" xlink:href="#E"/><use transform="matrix(0.03703703703703704,0,0,0.03703703703703704,33.296296296296305,0)" xlink:href="#w"/><use transform="matrix(0.03703703703703704,0,0,0.03703703703703704,40.70370370370371,0)" xlink:href="#Y"/><use transform="matrix(0.03703703703703704,0,0,0.03703703703703704,45.111111111111114,0)" xlink:href="#S"/><use transform="matrix(0.03703703703703704,0,0,0.03703703703703704,52.51851851851852,0)" xlink:href="#N"/><use transform="matrix(0.03703703703703704,0,0,0.03703703703703704,55.44444444444444,0)" xlink:href="#O"/><use transform="matrix(0.03703703703703704,0,0,0.03703703703703704,62.851851851851855,0)" xlink:href="#P"/><use transform="matrix(0.03703703703703704,0,0,0.03703703703703704,70.25925925925925,0)" xlink:href="#Q"/><use transform="matrix(0.03703703703703704,0,0,0.03703703703703704,77.66666666666666,0)" xlink:href="#N"/><use transform="matrix(0.03703703703703704,0,0,0.03703703703703704,80.59259259259258,0)" xlink:href="#H"/><use transform="matrix(0.03703703703703704,0,0,0.03703703703703704,87.25925925925925,0)" xlink:href="#R"/><use transform="matrix(0.03703703703703704,0,0,0.03703703703703704,93.92592592592592,0)" xlink:href="#Z"/></g><path d="M240 0l2-218c-23 76-54 145-80 218h-23L58-218 59 0H30v-248h44l77 211c21-75 51-140 76-211h43V0h-30" id="aa"/><path d="M30 0v-248h187v28H63v79h144v27H63v87h162V0H30" id="ab"/><g id="m"><use transform="matrix(0.03703703703703704,0,0,0.03703703703703704,0,0)" xlink:href="#C"/><use transform="matrix(0.03703703703703704,0,0,0.03703703703703704,8.88888888888889,0)" xlink:href="#v"/><use transform="matrix(0.03703703703703704,0,0,0.03703703703703704,18.48148148148148,0)" xlink:href="#aa"/><use transform="matrix(0.03703703703703704,0,0,0.03703703703703704,29.555555555555554,0)" xlink:href="#ab"/></g><path d="M33 0v-248h34V0H33" id="ac"/><path d="M177-190C167-65 218 103 67 71c-23-6-38-20-44-43l32-5c15 47 100 32 89-28v-30C133-14 115 1 83 1 29 1 15-40 15-95c0-56 16-97 71-98 29-1 48 16 59 35 1-10 0-23 2-32h30zM94-22c36 0 50-32 50-73 0-42-14-75-50-75-39 0-46 34-46 75s6 73 46 73" id="ad"/><g id="n"><use transform="matrix(0.03703703703703704,0,0,0.03703703703703704,0,0)" xlink:href="#ac"/><use transform="matrix(0.03703703703703704,0,0,0.03703703703703704,3.703703703703704,0)" xlink:href="#A"/><use transform="matrix(0.03703703703703704,0,0,0.03703703703703704,11.111111111111112,0)" xlink:href="#I"/><use transform="matrix(0.03703703703703704,0,0,0.03703703703703704,14.814814814814817,0)" xlink:href="#G"/><use transform="matrix(0.03703703703703704,0,0,0.03703703703703704,22.222222222222225,0)" xlink:href="#ad"/><use transform="matrix(0.03703703703703704,0,0,0.03703703703703704,29.629629629629633,0)" xlink:href="#E"/><use transform="matrix(0.03703703703703704,0,0,0.03703703703703704,34.03703703703704,0)" xlink:href="#z"/><use transform="matrix(0.03703703703703704,0,0,0.03703703703703704,41.44444444444444,0)" xlink:href="#I"/><use transform="matrix(0.03703703703703704,0,0,0.03703703703703704,45.148148148148145,0)" xlink:href="#w"/><use transform="matrix(0.03703703703703704,0,0,0.03703703703703704,52.55555555555556,0)" xlink:href="#E"/><use transform="matrix(0.03703703703703704,0,0,0.03703703703703704,56.96296296296296,0)" xlink:href="#W"/></g><g id="o"><use transform="matrix(0.03703703703703704,0,0,0.03703703703703704,0,0)" xlink:href="#z"/><use transform="matrix(0.03703703703703704,0,0,0.03703703703703704,7.407407407407408,0)" xlink:href="#H"/><use transform="matrix(0.03703703703703704,0,0,0.03703703703703704,14.074074074074076,0)" xlink:href="#x"/><use transform="matrix(0.03703703703703704,0,0,0.03703703703703704,25.148148148148152,0)" xlink:href="#G"/><use transform="matrix(0.03703703703703704,0,0,0.03703703703703704,32.55555555555556,0)" xlink:href="#Y"/><use transform="matrix(0.03703703703703704,0,0,0.03703703703703704,36.96296296296296,0)" xlink:href="#N"/><use transform="matrix(0.03703703703703704,0,0,0.03703703703703704,39.888888888888886,0)" xlink:href="#A"/><use transform="matrix(0.03703703703703704,0,0,0.03703703703703704,47.2962962962963,0)" xlink:href="#I"/><use transform="matrix(0.03703703703703704,0,0,0.03703703703703704,50.99999999999999,0)" xlink:href="#G"/><use transform="matrix(0.03703703703703704,0,0,0.03703703703703704,58.407407407407405,0)" xlink:href="#ad"/><use transform="matrix(0.03703703703703704,0,0,0.03703703703703704,65.81481481481481,0)" xlink:href="#E"/><use transform="matrix(0.03703703703703704,0,0,0.03703703703703704,70.22222222222221,0)" xlink:href="#z"/><use transform="matrix(0.03703703703703704,0,0,0.03703703703703704,77.62962962962962,0)" xlink:href="#I"/><use transform="matrix(0.03703703703703704,0,0,0.03703703703703704,81.33333333333333,0)" xlink:href="#w"/><use transform="matrix(0.03703703703703704,0,0,0.03703703703703704,88.74074074074073,0)" xlink:href="#E"/><use transform="matrix(0.03703703703703704,0,0,0.03703703703703704,93.14814814814814,0)" xlink:href="#W"/><use transform="matrix(0.03703703703703704,0,0,0.03703703703703704,99.81481481481481,0)" xlink:href="#Z"/></g><g id="p"><use transform="matrix(0.03703703703703704,0,0,0.03703703703703704,0,0)" xlink:href="#v"/><use transform="matrix(0.03703703703703704,0,0,0.03703703703703704,9.592592592592593,0)" xlink:href="#w"/><use transform="matrix(0.03703703703703704,0,0,0.03703703703703704,17,0)" xlink:href="#W"/><use transform="matrix(0.03703703703703704,0,0,0.03703703703703704,23.66666666666667,0)" xlink:href="#I"/><use transform="matrix(0.03703703703703704,0,0,0.03703703703703704,27.370370370370374,0)" xlink:href="#H"/><use transform="matrix(0.03703703703703704,0,0,0.03703703703703704,34.03703703703704,0)" xlink:href="#w"/><use transform="matrix(0.03703703703703704,0,0,0.03703703703703704,41.44444444444444,0)" xlink:href="#O"/><use transform="matrix(0.03703703703703704,0,0,0.03703703703703704,48.85185185185185,0)" xlink:href="#G"/><use transform="matrix(0.03703703703703704,0,0,0.03703703703703704,56.25925925925925,0)" xlink:href="#E"/></g><path d="M185-189c-5-48-123-54-124 2 14 75 158 14 163 119 3 78-121 87-175 55-17-10-28-26-33-46l33-7c5 56 141 63 141-1 0-78-155-14-162-118-5-82 145-84 179-34 5 7 8 16 11 25" id="ae"/><path d="M106-169C34-169 62-67 57 0H25v-261h32l-1 103c12-21 28-36 61-36 89 0 53 116 60 194h-32v-121c2-32-8-49-39-48" id="af"/><path d="M101-234c-31-9-42 10-38 44h38v23H63V0H32v-167H5v-23h27c-7-52 17-82 69-68v24" id="ag"/><g id="q"><use transform="matrix(0.03703703703703704,0,0,0.03703703703703704,0,0)" xlink:href="#ae"/><use transform="matrix(0.03703703703703704,0,0,0.03703703703703704,8.88888888888889,0)" xlink:href="#x"/><use transform="matrix(0.03703703703703704,0,0,0.03703703703703704,19.962962962962965,0)" xlink:href="#N"/><use transform="matrix(0.03703703703703704,0,0,0.03703703703703704,22.888888888888893,0)" xlink:href="#I"/><use transform="matrix(0.03703703703703704,0,0,0.03703703703703704,26.592592592592595,0)" xlink:href="#af"/><use transform="matrix(0.03703703703703704,0,0,0.03703703703703704,34,0)" xlink:href="#W"/><use transform="matrix(0.03703703703703704,0,0,0.03703703703703704,40.66666666666667,0)" xlink:href="#w"/><use transform="matrix(0.03703703703703704,0,0,0.03703703703703704,48.07407407407407,0)" xlink:href="#ag"/><use transform="matrix(0.03703703703703704,0,0,0.03703703703703704,51.77777777777778,0)" xlink:href="#I"/></g><g id="r"><use transform="matrix(0.03703703703703704,0,0,0.03703703703703704,0,0)" xlink:href="#W"/><use transform="matrix(0.03703703703703704,0,0,0.03703703703703704,6.666666666666668,0)" xlink:href="#x"/><use transform="matrix(0.03703703703703704,0,0,0.03703703703703704,17.740740740740744,0)" xlink:href="#N"/><use transform="matrix(0.03703703703703704,0,0,0.03703703703703704,20.666666666666668,0)" xlink:href="#I"/><use transform="matrix(0.03703703703703704,0,0,0.03703703703703704,24.370370370370374,0)" xlink:href="#af"/><use transform="matrix(0.03703703703703704,0,0,0.03703703703703704,31.777777777777782,0)" xlink:href="#W"/><use transform="matrix(0.03703703703703704,0,0,0.03703703703703704,38.44444444444445,0)" xlink:href="#w"/><use transform="matrix(0.03703703703703704,0,0,0.03703703703703704,45.851851851851855,0)" xlink:href="#ag"/><use transform="matrix(0.03703703703703704,0,0,0.03703703703703704,49.555555555555564,0)" xlink:href="#I"/><use transform="matrix(0.03703703703703704,0,0,0.03703703703703704,53.25925925925927,0)" xlink:href="#Y"/><use transform="matrix(0.03703703703703704,0,0,0.03703703703703704,57.66666666666667,0)" xlink:href="#H"/><use transform="matrix(0.03703703703703704,0,0,0.03703703703703704,64.33333333333334,0)" xlink:href="#w"/><use transform="matrix(0.03703703703703704,0,0,0.03703703703703704,71.74074074074075,0)" xlink:href="#W"/><use transform="matrix(0.03703703703703704,0,0,0.03703703703703704,78.40740740740742,0)" xlink:href="#I"/><use transform="matrix(0.03703703703703704,0,0,0.03703703703703704,82.11111111111113,0)" xlink:href="#H"/><use transform="matrix(0.03703703703703704,0,0,0.03703703703703704,88.7777777777778,0)" xlink:href="#w"/><use transform="matrix(0.03703703703703704,0,0,0.03703703703703704,96.1851851851852,0)" xlink:href="#O"/><use transform="matrix(0.03703703703703704,0,0,0.03703703703703704,103.59259259259261,0)" xlink:href="#G"/><use transform="matrix(0.03703703703703704,0,0,0.03703703703703704,111.00000000000001,0)" xlink:href="#E"/><use transform="matrix(0.03703703703703704,0,0,0.03703703703703704,115.40740740740742,0)" xlink:href="#Z"/></g><path d="M266 0h-40l-56-210L115 0H75L2-248h35L96-30l15-64 43-154h32l59 218 59-218h35" id="ah"/><g id="s"><use transform="matrix(0.03703703703703704,0,0,0.03703703703703704,0,0)" xlink:href="#ah"/><use transform="matrix(0.03703703703703704,0,0,0.03703703703703704,12.296296296296298,0)" xlink:href="#G"/><use transform="matrix(0.03703703703703704,0,0,0.03703703703703704,19.703703703703706,0)" xlink:href="#S"/><use transform="matrix(0.03703703703703704,0,0,0.03703703703703704,27.111111111111114,0)" xlink:href="#af"/><use transform="matrix(0.03703703703703704,0,0,0.03703703703703704,34.51851851851852,0)" xlink:href="#w"/><use transform="matrix(0.03703703703703704,0,0,0.03703703703703704,41.925925925925924,0)" xlink:href="#w"/><use transform="matrix(0.03703703703703704,0,0,0.03703703703703704,49.33333333333333,0)" xlink:href="#R"/><use transform="matrix(0.03703703703703704,0,0,0.03703703703703704,56,0)" xlink:href="#W"/></g><g id="t"><use transform="matrix(0.03703703703703704,0,0,0.03703703703703704,0,0)" xlink:href="#C"/><use transform="matrix(0.03703703703703704,0,0,0.03703703703703704,8.88888888888889,0)" xlink:href="#D"/><use transform="matrix(0.03703703703703704,0,0,0.03703703703703704,17.77777777777778,0)" xlink:href="#ac"/></g><path d="M24 0v-261h32V0H24" id="ai"/><g id="u"><use transform="matrix(0.03703703703703704,0,0,0.03703703703703704,0,0)" xlink:href="#v"/><use transform="matrix(0.03703703703703704,0,0,0.03703703703703704,9.592592592592593,0)" xlink:href="#z"/><use transform="matrix(0.03703703703703704,0,0,0.03703703703703704,17,0)" xlink:href="#ai"/><use transform="matrix(0.03703703703703704,0,0,0.03703703703703704,19.925925925925927,0)" xlink:href="#ai"/><use transform="matrix(0.03703703703703704,0,0,0.03703703703703704,22.851851851851855,0)" xlink:href="#W"/></g></defs></g></svg>