<svg xmlns="http://www.w3.org/2000/svg" xmlns:xlink="http://www.w3.org/1999/xlink" width="396.55" height="284"><g transform="translate(-140 -116)"><path d="M160 190c0-5.52 4.48-10 10-10h140c5.52 0 10 4.48 10 10v180c0 5.52-4.48 10-10 10H170c-5.52 0-10-4.48-10-10z" stroke="#000" stroke-width="2" fill="#fff"/><use xlink:href="#a" transform="matrix(1,0,0,1,168,188) translate(25.049999999999997 15.6)"/><use xlink:href="#b" transform="matrix(1,0,0,1,168,188) translate(106.95 15.6)"/><path d="M495.25 257.25c0 4-3.25 7.25-7.25 7.25s-7.25-3.25-7.25-7.25S484 250 488 250s7.25 3.25 7.25 7.25z" stroke="#000" stroke-width="2" fill="#fff"/><path d="M468 250h40v58h-40z" fill="none"/><path d="M488 264.5v20.3l20 23.2m-20-23.2L468 308m0-36.25h40" stroke="#000" stroke-width="2" fill="none"/><use xlink:href="#c" transform="matrix(1,0,0,1,388,308) translate(74.55 14.6)"/><path d="M180 225c0-2.76 2.24-5 5-5h110c2.76 0 5 2.24 5 5v30c0 2.76-2.24 5-5 5H185c-2.76 0-5-2.24-5-5z" stroke="#000" stroke-width="2" fill="#f9d2de"/><use xlink:href="#d" transform="matrix(1,0,0,1,188,228) translate(16.549999999999997 15.6)"/><use xlink:href="#e" transform="matrix(1,0,0,1,188,228) translate(77.44999999999999 15.6)"/><path d="M180 275c0-2.76 2.24-5 5-5h110c2.76 0 5 2.24 5 5v30c0 2.76-2.24 5-5 5H185c-2.76 0-5-2.24-5-5z" stroke="#000" stroke-width="2" fill="#ffdba9"/><use xlink:href="#d" transform="matrix(1,0,0,1,188,278) translate(16.549999999999997 15.6)"/><use xlink:href="#f" transform="matrix(1,0,0,1,188,278) translate(77.44999999999999 15.6)"/><path d="M180 325c0-2.76 2.24-5 5-5h110c2.76 0 5 2.24 5 5v30c0 2.76-2.24 5-5 5H185c-2.76 0-5-2.24-5-5z" stroke="#000" stroke-width="2" fill="#c1e4f7"/><use xlink:href="#d" transform="matrix(1,0,0,1,188,328) translate(16.549999999999997 15.6)"/><use xlink:href="#g" transform="matrix(1,0,0,1,188,328) translate(77.44999999999999 15.6)"/><path d="M321 217.47L460 280" stroke="#000" stroke-width="2" fill="none"/><path d="M335.9 219.1l-3.8 8.45-11.1-10.08z"/><path d="M337.4 218.25l-4.94 10.96L320 217.9v-1.55zm-5.64 7.63l2.67-5.94-10.48-1.15z"/><path d="M300 290h160" stroke="#000" stroke-width="2" fill="none"/><path d="M314.27 294.64L300 290l14.27-4.64z"/><path d="M315.27 296L300 291.06v-2.1l15.27-4.96zm-12.03-6l10.03 3.26v-6.52z"/><path d="M301 340l159-40" stroke="#000" stroke-width="2" fill="none"/><path d="M315.97 341L301 340l12.7-7.98z"/><path d="M317.27 342.1L300 340.94v-1.48l14.34-9zm-13.13-2.9l10.52.72-1.6-6.32z"/><g fill="none"><path d="M326 181h137v-20H326z"/><path d="M463 181c0-4.73-3.83-8.56-8.56-8.56h-51.38c-4.73 0-8.56-3.84-8.56-8.56 0 4.72-3.83 8.56-8.56 8.56h-51.38c-4.73 0-8.56 3.83-8.56 8.56" stroke="#000"/></g><path d="M327.2 136h135v20h-135z" fill="none"/><g><use xlink:href="#h" transform="matrix(1,0,0,1,332.19999999995343,141) translate(1.9629629629629548 10.666666666666668)"/><use xlink:href="#i" transform="matrix(1,0,0,1,332.19999999995343,141) translate(68.33333333333334 10.666666666666668)"/><use xlink:href="#j" transform="matrix(1,0,0,1,332.19999999995343,141) translate(93.51851851851853 10.666666666666668)"/></g><defs><path d="M212-179c-10-28-35-45-73-45-59 0-87 40-87 99 0 60 29 101 89 101 43 0 62-24 78-52l27 14C228-24 195 4 139 4 59 4 22-46 18-125c-6-104 99-153 187-111 19 9 31 26 39 46" id="k"/><path d="M100-194c62-1 85 37 85 99 1 63-27 99-86 99S16-35 15-95c0-66 28-99 85-99zM99-20c44 1 53-31 53-75 0-43-8-75-51-75s-53 32-53 75 10 74 51 75" id="l"/><path d="M210-169c-67 3-38 105-44 169h-31v-121c0-29-5-50-35-48C34-165 62-65 56 0H25l-1-190h30c1 10-1 24 2 32 10-44 99-50 107 0 11-21 27-35 58-36 85-2 47 119 55 194h-31v-121c0-29-5-49-35-48" id="m"/><path d="M115-194c55 1 70 41 70 98S169 2 115 4C84 4 66-9 55-30l1 105H24l-1-265h31l2 30c10-21 28-34 59-34zm-8 174c40 0 45-34 45-75s-6-73-45-74c-42 0-51 32-51 76 0 43 10 73 51 73" id="n"/><path d="M141-36C126-15 110 5 73 4 37 3 15-17 15-53c-1-64 63-63 125-63 3-35-9-54-41-54-24 1-41 7-42 31l-33-3c5-37 33-52 76-52 45 0 72 20 72 64v82c-1 20 7 32 28 27v20c-31 9-61-2-59-35zM48-53c0 20 12 33 32 33 41-3 63-29 60-74-43 2-92-5-92 41" id="o"/><path d="M117-194c89-4 53 116 60 194h-32v-121c0-31-8-49-39-48C34-167 62-67 57 0H25l-1-190h30c1 10-1 24 2 32 11-22 29-35 61-36" id="p"/><path d="M179-190L93 31C79 59 56 82 12 73V49c39 6 53-20 64-50L1-190h34L92-34l54-156h33" id="q"/><g id="a"><use transform="matrix(0.05,0,0,0.05,0,0)" xlink:href="#k"/><use transform="matrix(0.05,0,0,0.05,12.950000000000001,0)" xlink:href="#l"/><use transform="matrix(0.05,0,0,0.05,22.950000000000003,0)" xlink:href="#m"/><use transform="matrix(0.05,0,0,0.05,37.900000000000006,0)" xlink:href="#n"/><use transform="matrix(0.05,0,0,0.05,47.900000000000006,0)" xlink:href="#o"/><use transform="matrix(0.05,0,0,0.05,57.900000000000006,0)" xlink:href="#p"/><use transform="matrix(0.05,0,0,0.05,67.9,0)" xlink:href="#q"/></g><path d="M205 0l-28-72H64L36 0H1l101-248h38L239 0h-34zm-38-99l-47-123c-12 45-31 82-46 123h93" id="r"/><use transform="matrix(0.05,0,0,0.05,0,0)" xlink:href="#r" id="b"/><path d="M85-194c31 0 48 13 60 33l-1-100h32l1 261h-30c-2-10 0-23-3-31C134-8 116 4 85 4 32 4 16-35 15-94c0-66 23-100 70-100zm9 24c-40 0-46 34-46 75 0 40 6 74 45 74 42 0 51-32 51-76 0-42-9-74-50-73" id="s"/><path d="M24-231v-30h32v30H24zM24 0v-190h32V0H24" id="t"/><g id="c"><use transform="matrix(0.05,0,0,0.05,0,0)" xlink:href="#r"/><use transform="matrix(0.05,0,0,0.05,12,0)" xlink:href="#s"/><use transform="matrix(0.05,0,0,0.05,22,0)" xlink:href="#m"/><use transform="matrix(0.05,0,0,0.05,36.95,0)" xlink:href="#t"/><use transform="matrix(0.05,0,0,0.05,40.900000000000006,0)" xlink:href="#p"/></g><path d="M30-248c87 1 191-15 191 75 0 78-77 80-158 76V0H30v-248zm33 125c57 0 124 11 124-50 0-59-68-47-124-48v98" id="u"/><path d="M114-163C36-179 61-72 57 0H25l-1-190h30c1 12-1 29 2 39 6-27 23-49 58-41v29" id="v"/><path d="M24-231v-30h32v30H24zM-9 49c24 4 33-6 33-30v-209h32V24c2 40-23 58-65 49V49" id="w"/><path d="M100-194c63 0 86 42 84 106H49c0 40 14 67 53 68 26 1 43-12 49-29l28 8c-11 28-37 45-77 45C44 4 14-33 15-96c1-61 26-98 85-98zm52 81c6-60-76-77-97-28-3 7-6 17-6 28h103" id="x"/><path d="M96-169c-40 0-48 33-48 73s9 75 48 75c24 0 41-14 43-38l32 2c-6 37-31 61-74 61-59 0-76-41-82-99-10-93 101-131 147-64 4 7 5 14 7 22l-32 3c-4-21-16-35-41-35" id="y"/><path d="M59-47c-2 24 18 29 38 22v24C64 9 27 4 27-40v-127H5v-23h24l9-43h21v43h35v23H59v120" id="z"/><g id="d"><use transform="matrix(0.05,0,0,0.05,0,0)" xlink:href="#u"/><use transform="matrix(0.05,0,0,0.05,12,0)" xlink:href="#v"/><use transform="matrix(0.05,0,0,0.05,17.95,0)" xlink:href="#l"/><use transform="matrix(0.05,0,0,0.05,27.950000000000003,0)" xlink:href="#w"/><use transform="matrix(0.05,0,0,0.05,31.899999999999995,0)" xlink:href="#x"/><use transform="matrix(0.05,0,0,0.05,41.9,0)" xlink:href="#y"/><use transform="matrix(0.05,0,0,0.05,50.9,0)" xlink:href="#z"/></g><path d="M27 0v-27h64v-190l-56 39v-29l58-41h29v221h61V0H27" id="A"/><use transform="matrix(0.05,0,0,0.05,0,0)" xlink:href="#A" id="e"/><path d="M101-251c82-7 93 87 43 132L82-64C71-53 59-42 53-27h129V0H18c2-99 128-94 128-182 0-28-16-43-45-43s-46 15-49 41l-32-3c6-41 34-60 81-64" id="B"/><use transform="matrix(0.05,0,0,0.05,0,0)" xlink:href="#B" id="f"/><path d="M126-127c33 6 58 20 58 59 0 88-139 92-164 29-3-8-5-16-6-25l32-3c6 27 21 44 54 44 32 0 52-15 52-46 0-38-36-46-79-43v-28c39 1 72-4 72-42 0-27-17-43-46-43-28 0-47 15-49 41l-32-3c6-42 35-63 81-64 48-1 79 21 79 65 0 36-21 52-52 59" id="C"/><use transform="matrix(0.05,0,0,0.05,0,0)" xlink:href="#C" id="g"/><path d="M266 0h-40l-56-210L115 0H75L2-248h35L96-30l15-64 43-154h32l59 218 59-218h35" id="D"/><path d="M115-194c53 0 69 39 70 98 0 66-23 100-70 100C84 3 66-7 56-30L54 0H23l1-261h32v101c10-23 28-34 59-34zm-8 174c40 0 45-34 45-75 0-40-5-75-45-74-42 0-51 32-51 76 0 43 10 73 51 73" id="E"/><path d="M106-169C34-169 62-67 57 0H25v-261h32l-1 103c12-21 28-36 61-36 89 0 53 116 60 194h-32v-121c2-32-8-49-39-48" id="F"/><path d="M143 0L79-87 56-68V0H24v-261h32v163l83-92h37l-77 82L181 0h-38" id="G"/><path d="M135-143c-3-34-86-38-87 0 15 53 115 12 119 90S17 21 10-45l28-5c4 36 97 45 98 0-10-56-113-15-118-90-4-57 82-63 122-42 12 7 21 19 24 35" id="H"/><g id="h"><use transform="matrix(0.03703703703703704,0,0,0.03703703703703704,0,0)" xlink:href="#D"/><use transform="matrix(0.03703703703703704,0,0,0.03703703703703704,12.296296296296298,0)" xlink:href="#x"/><use transform="matrix(0.03703703703703704,0,0,0.03703703703703704,19.703703703703706,0)" xlink:href="#E"/><use transform="matrix(0.03703703703703704,0,0,0.03703703703703704,27.111111111111114,0)" xlink:href="#F"/><use transform="matrix(0.03703703703703704,0,0,0.03703703703703704,34.51851851851852,0)" xlink:href="#l"/><use transform="matrix(0.03703703703703704,0,0,0.03703703703703704,41.925925925925924,0)" xlink:href="#l"/><use transform="matrix(0.03703703703703704,0,0,0.03703703703703704,49.33333333333333,0)" xlink:href="#G"/><use transform="matrix(0.03703703703703704,0,0,0.03703703703703704,56,0)" xlink:href="#H"/></g><path d="M33 0v-248h34V0H33" id="I"/><g id="i"><use transform="matrix(0.03703703703703704,0,0,0.03703703703703704,0,0)" xlink:href="#r"/><use transform="matrix(0.03703703703703704,0,0,0.03703703703703704,8.88888888888889,0)" xlink:href="#u"/><use transform="matrix(0.03703703703703704,0,0,0.03703703703703704,17.77777777777778,0)" xlink:href="#I"/></g><path d="M24 0v-261h32V0H24" id="J"/><g id="j"><use transform="matrix(0.03703703703703704,0,0,0.03703703703703704,0,0)" xlink:href="#k"/><use transform="matrix(0.03703703703703704,0,0,0.03703703703703704,9.592592592592593,0)" xlink:href="#o"/><use transform="matrix(0.03703703703703704,0,0,0.03703703703703704,17,0)" xlink:href="#J"/><use transform="matrix(0.03703703703703704,0,0,0.03703703703703704,19.925925925925927,0)" xlink:href="#J"/><use transform="matrix(0.03703703703703704,0,0,0.03703703703703704,22.851851851851855,0)" xlink:href="#H"/></g></defs></g></svg>