<svg xmlns="http://www.w3.org/2000/svg" xmlns:xlink="http://www.w3.org/1999/xlink" xmlns:lucid="lucid" width="618" height="421"><g transform="translate(-16.333333333333485 -13.666666666666629)" lucid:page-tab-id="0_0"><g filter="url(#a)"><path d="M37.33 39.67c0-2.76 2.24-5 5-5h190c2.76 0 5 2.24 5 5v110c0 2.76-2.24 5-5 5h-190c-2.76 0-5-2.24-5-5z" stroke="#000" stroke-width="2" fill="#c1e4f7"/><use xlink:href="#b" transform="matrix(1,0,0,1,42.333333333333485,39.66666666666663) translate(30.424999999999997 47.8)"/><use xlink:href="#c" transform="matrix(1,0,0,1,42.333333333333485,39.66666666666663) translate(71.725 47.8)"/><use xlink:href="#d" transform="matrix(1,0,0,1,42.333333333333485,39.66666666666663) translate(68.1 69.4)"/></g><g filter="url(#e)"><path d="M453.33 40c0-2.76 2.24-5 5-5h150c2.76 0 5 2.24 5 5v110c0 2.76-2.24 5-5 5h-150c-2.76 0-5-2.24-5-5z" stroke="#000" stroke-width="2" fill="#ffdba9"/><use xlink:href="#f" transform="matrix(1,0,0,1,458.3333333333335,40) translate(7.574999999999989 37)"/><use xlink:href="#g" transform="matrix(1,0,0,1,458.3333333333335,40) translate(75.475 37)"/><use xlink:href="#h" transform="matrix(1,0,0,1,458.3333333333335,40) translate(18.049999999999997 58.6)"/><use xlink:href="#i" transform="matrix(1,0,0,1,458.3333333333335,40) translate(48.55 80.20000000000002)"/></g><path d="M337.93 60.73h-99.6v-2h99.6zm114.4 0h-99.6v-2h99.6zM238.33 60.73h-1v-2h1z"/><path d="M452.33 59.73l-14.26 4.64V55.1z"/><path d="M453.33 59v1.46l-16.26 5.3V53.7zm-14.26 4l10.03-3.27-10.03-3.26z"/><use xlink:href="#j" transform="matrix(1,0,0,1,337.9259259259261,43.73333333333335) translate(0 21.333333333333336)"/><path d="M337.93 120.73h-99.6v-2h99.6zm114.4 0h-99.6v-2h99.6z"/><path d="M252.6 124.37l-14.27-4.64 14.27-4.63z"/><path d="M253.6 125.75l-18.5-6.02 18.5-6zm-12.03-6.02L251.6 123v-6.53zM453.33 120.73h-1v-2h1z"/><use xlink:href="#k" transform="matrix(1,0,0,1,337.9259259259261,103.73333333333335) translate(0 21.333333333333336)"/><g filter="url(#e)"><path d="M53.33 298.67c0-2.76 2.24-5 5-5h150c2.76 0 5 2.24 5 5v110c0 2.76-2.24 5-5 5h-150c-2.76 0-5-2.24-5-5z" stroke="#000" stroke-width="2" fill="#ffdba9"/><use xlink:href="#f" transform="matrix(1,0,0,1,58.333333333333485,298.6666666666667) translate(7.574999999999989 37)"/><use xlink:href="#g" transform="matrix(1,0,0,1,58.333333333333485,298.6666666666667) translate(75.475 37)"/><use xlink:href="#l" transform="matrix(1,0,0,1,58.333333333333485,298.6666666666667) translate(60.5 58.6)"/><use xlink:href="#m" transform="matrix(1,0,0,1,58.333333333333485,298.6666666666667) translate(6.650000000000006 80.20000000000002)"/><use xlink:href="#n" transform="matrix(1,0,0,1,58.333333333333485,298.6666666666667) translate(87.5 80.20000000000002)"/></g><path d="M138.33 292.67h-2v-53h2zm0-85h-2v-53h2z"/><path d="M137.33 292.67l-4.63-14.27h9.27z"/><path d="M138.06 293.67h-1.45l-5.28-16.27h12.03zm-4-14.27l3.27 10.03 3.26-10.03zM138.33 154.67h-2 2z"/><use xlink:href="#o" transform="matrix(1,0,0,1,129.9259259259261,207.66666666666666) translate(0 21.333333333333336)"/><defs><path d="M137-103V0h-34v-103L8-248h37l75 118 75-118h37" id="p"/><path d="M100-194c62-1 85 37 85 99 1 63-27 99-86 99S16-35 15-95c0-66 28-99 85-99zM99-20c44 1 53-31 53-75 0-43-8-75-51-75s-53 32-53 75 10 74 51 75" id="q"/><path d="M84 4C-5 8 30-112 23-190h32v120c0 31 7 50 39 49 72-2 45-101 50-169h31l1 190h-30c-1-10 1-25-2-33-11 22-28 36-60 37" id="r"/><path d="M114-163C36-179 61-72 57 0H25l-1-190h30c1 12-1 29 2 39 6-27 23-49 58-41v29" id="s"/><g id="b"><use transform="matrix(0.05,0,0,0.05,0,0)" xlink:href="#p"/><use transform="matrix(0.05,0,0,0.05,10.35,0)" xlink:href="#q"/><use transform="matrix(0.05,0,0,0.05,20.35,0)" xlink:href="#r"/><use transform="matrix(0.05,0,0,0.05,30.35,0)" xlink:href="#s"/></g><path d="M205 0l-28-72H64L36 0H1l101-248h38L239 0h-34zm-38-99l-47-123c-12 45-31 82-46 123h93" id="t"/><path d="M115-194c55 1 70 41 70 98S169 2 115 4C84 4 66-9 55-30l1 105H24l-1-265h31l2 30c10-21 28-34 59-34zm-8 174c40 0 45-34 45-75s-6-73-45-74c-42 0-51 32-51 76 0 43 10 73 51 73" id="u"/><path d="M24 0v-261h32V0H24" id="v"/><path d="M24-231v-30h32v30H24zM24 0v-190h32V0H24" id="w"/><path d="M96-169c-40 0-48 33-48 73s9 75 48 75c24 0 41-14 43-38l32 2c-6 37-31 61-74 61-59 0-76-41-82-99-10-93 101-131 147-64 4 7 5 14 7 22l-32 3c-4-21-16-35-41-35" id="x"/><path d="M141-36C126-15 110 5 73 4 37 3 15-17 15-53c-1-64 63-63 125-63 3-35-9-54-41-54-24 1-41 7-42 31l-33-3c5-37 33-52 76-52 45 0 72 20 72 64v82c-1 20 7 32 28 27v20c-31 9-61-2-59-35zM48-53c0 20 12 33 32 33 41-3 63-29 60-74-43 2-92-5-92 41" id="y"/><path d="M59-47c-2 24 18 29 38 22v24C64 9 27 4 27-40v-127H5v-23h24l9-43h21v43h35v23H59v120" id="z"/><path d="M117-194c89-4 53 116 60 194h-32v-121c0-31-8-49-39-48C34-167 62-67 57 0H25l-1-190h30c1 10-1 24 2 32 11-22 29-35 61-36" id="A"/><g id="c"><use transform="matrix(0.05,0,0,0.05,0,0)" xlink:href="#t"/><use transform="matrix(0.05,0,0,0.05,12,0)" xlink:href="#u"/><use transform="matrix(0.05,0,0,0.05,22,0)" xlink:href="#u"/><use transform="matrix(0.05,0,0,0.05,32,0)" xlink:href="#v"/><use transform="matrix(0.05,0,0,0.05,35.95,0)" xlink:href="#w"/><use transform="matrix(0.05,0,0,0.05,39.900000000000006,0)" xlink:href="#x"/><use transform="matrix(0.05,0,0,0.05,48.900000000000006,0)" xlink:href="#y"/><use transform="matrix(0.05,0,0,0.05,58.900000000000006,0)" xlink:href="#z"/><use transform="matrix(0.05,0,0,0.05,63.900000000000006,0)" xlink:href="#w"/><use transform="matrix(0.05,0,0,0.05,67.85000000000001,0)" xlink:href="#q"/><use transform="matrix(0.05,0,0,0.05,77.85000000000001,0)" xlink:href="#A"/></g><path d="M87 75C49 33 22-17 22-94c0-76 28-126 65-167h31c-38 41-64 92-64 168S80 34 118 75H87" id="B"/><path d="M100-194c63 0 86 42 84 106H49c0 40 14 67 53 68 26 1 43-12 49-29l28 8c-11 28-37 45-77 45C44 4 14-33 15-96c1-61 26-98 85-98zm52 81c6-60-76-77-97-28-3 7-6 17-6 28h103" id="C"/><path d="M33-261c38 41 65 92 65 168S71 34 33 75H2C39 34 66-17 66-93S39-220 2-261h31" id="D"/><g id="d"><use transform="matrix(0.05,0,0,0.05,0,0)" xlink:href="#B"/><use transform="matrix(0.05,0,0,0.05,5.95,0)" xlink:href="#x"/><use transform="matrix(0.05,0,0,0.05,14.949999999999998,0)" xlink:href="#v"/><use transform="matrix(0.05,0,0,0.05,18.9,0)" xlink:href="#w"/><use transform="matrix(0.05,0,0,0.05,22.849999999999998,0)" xlink:href="#C"/><use transform="matrix(0.05,0,0,0.05,32.849999999999994,0)" xlink:href="#A"/><use transform="matrix(0.05,0,0,0.05,42.849999999999994,0)" xlink:href="#z"/><use transform="matrix(0.05,0,0,0.05,47.849999999999994,0)" xlink:href="#D"/></g><filter id="a" filterUnits="objectBoundingBox" x="-.05" y="-.03" width="1.1" height="1.17"><feOffset result="offOut" in="SourceAlpha" dy="6"/><feGaussianBlur result="blurOut" in="offOut" stdDeviation="5"/><feColorMatrix result="colorOut" in="blurOut" values="0 0 0 0 0 0 0 0 0 0 0 0 0 0 0 0 0 0 0.5019607843137255 0"/><feBlend in="SourceGraphic" in2="colorOut"/></filter><path d="M30-248c87 1 191-15 191 75 0 78-77 80-158 76V0H30v-248zm33 125c57 0 124 11 124-50 0-59-68-47-124-48v98" id="E"/><g id="f"><use transform="matrix(0.05,0,0,0.05,0,0)" xlink:href="#E"/><use transform="matrix(0.05,0,0,0.05,12,0)" xlink:href="#s"/><use transform="matrix(0.05,0,0,0.05,17.95,0)" xlink:href="#q"/><use transform="matrix(0.05,0,0,0.05,27.950000000000003,0)" xlink:href="#x"/><use transform="matrix(0.05,0,0,0.05,36.95,0)" xlink:href="#q"/><use transform="matrix(0.05,0,0,0.05,46.95,0)" xlink:href="#s"/><use transform="matrix(0.05,0,0,0.05,52.900000000000006,0)" xlink:href="#C"/></g><path d="M212-179c-10-28-35-45-73-45-59 0-87 40-87 99 0 60 29 101 89 101 43 0 62-24 78-52l27 14C228-24 195 4 139 4 59 4 22-46 18-125c-6-104 99-153 187-111 19 9 31 26 39 46" id="F"/><g id="g"><use transform="matrix(0.05,0,0,0.05,0,0)" xlink:href="#F"/><use transform="matrix(0.05,0,0,0.05,12.950000000000001,0)" xlink:href="#q"/><use transform="matrix(0.05,0,0,0.05,22.950000000000003,0)" xlink:href="#A"/><use transform="matrix(0.05,0,0,0.05,32.95,0)" xlink:href="#A"/><use transform="matrix(0.05,0,0,0.05,42.95,0)" xlink:href="#C"/><use transform="matrix(0.05,0,0,0.05,52.95,0)" xlink:href="#x"/><use transform="matrix(0.05,0,0,0.05,61.95,0)" xlink:href="#z"/></g><path d="M106-169C34-169 62-67 57 0H25v-261h32l-1 103c12-21 28-36 61-36 89 0 53 116 60 194h-32v-121c2-32-8-49-39-48" id="G"/><g id="h"><use transform="matrix(0.05,0,0,0.05,0,0)" xlink:href="#t"/><use transform="matrix(0.05,0,0,0.05,12,0)" xlink:href="#r"/><use transform="matrix(0.05,0,0,0.05,22,0)" xlink:href="#z"/><use transform="matrix(0.05,0,0,0.05,27,0)" xlink:href="#G"/><use transform="matrix(0.05,0,0,0.05,37,0)" xlink:href="#C"/><use transform="matrix(0.05,0,0,0.05,47,0)" xlink:href="#A"/><use transform="matrix(0.05,0,0,0.05,57,0)" xlink:href="#z"/><use transform="matrix(0.05,0,0,0.05,62,0)" xlink:href="#w"/><use transform="matrix(0.05,0,0,0.05,65.95,0)" xlink:href="#x"/><use transform="matrix(0.05,0,0,0.05,74.95,0)" xlink:href="#y"/><use transform="matrix(0.05,0,0,0.05,84.95,0)" xlink:href="#z"/><use transform="matrix(0.05,0,0,0.05,89.95,0)" xlink:href="#w"/><use transform="matrix(0.05,0,0,0.05,93.9,0)" xlink:href="#q"/><use transform="matrix(0.05,0,0,0.05,103.9,0)" xlink:href="#A"/></g><path d="M185-189c-5-48-123-54-124 2 14 75 158 14 163 119 3 78-121 87-175 55-17-10-28-26-33-46l33-7c5 56 141 63 141-1 0-78-155-14-162-118-5-82 145-84 179-34 5 7 8 16 11 25" id="H"/><path d="M108 0H70L1-190h34L89-25l56-165h34" id="I"/><g id="i"><use transform="matrix(0.05,0,0,0.05,0,0)" xlink:href="#H"/><use transform="matrix(0.05,0,0,0.05,12,0)" xlink:href="#C"/><use transform="matrix(0.05,0,0,0.05,22,0)" xlink:href="#s"/><use transform="matrix(0.05,0,0,0.05,27.950000000000003,0)" xlink:href="#I"/><use transform="matrix(0.05,0,0,0.05,36.95,0)" xlink:href="#C"/><use transform="matrix(0.05,0,0,0.05,46.95,0)" xlink:href="#s"/></g><filter id="e" filterUnits="objectBoundingBox" x="-.06" y="-.03" width="1.13" height="1.17"><feOffset result="offOut" in="SourceAlpha" dy="6"/><feGaussianBlur result="blurOut" in="offOut" stdDeviation="5"/><feColorMatrix result="colorOut" in="blurOut" values="0 0 0 0 0 0 0 0 0 0 0 0 0 0 0 0 0 0 0.5019607843137255 0"/><feBlend in="SourceGraphic" in2="colorOut"/></filter><path d="M27 0v-27h64v-190l-56 39v-29l58-41h29v221h61V0H27" id="J"/><use transform="matrix(0.07407407407407408,0,0,0.07407407407407408,0,0)" xlink:href="#J" id="j"/><path d="M101-251c82-7 93 87 43 132L82-64C71-53 59-42 53-27h129V0H18c2-99 128-94 128-182 0-28-16-43-45-43s-46 15-49 41l-32-3c6-41 34-60 81-64" id="K"/><use transform="matrix(0.07407407407407408,0,0,0.07407407407407408,0,0)" xlink:href="#K" id="k"/><path d="M33 0v-248h34V0H33" id="L"/><g id="l"><use transform="matrix(0.05,0,0,0.05,0,0)" xlink:href="#t"/><use transform="matrix(0.05,0,0,0.05,12,0)" xlink:href="#E"/><use transform="matrix(0.05,0,0,0.05,24,0)" xlink:href="#L"/></g><path d="M135-143c-3-34-86-38-87 0 15 53 115 12 119 90S17 21 10-45l28-5c4 36 97 45 98 0-10-56-113-15-118-90-4-57 82-63 122-42 12 7 21 19 24 35" id="M"/><g id="m"><use transform="matrix(0.05,0,0,0.05,0,0)" xlink:href="#B"/><use transform="matrix(0.05,0,0,0.05,5.95,0)" xlink:href="#s"/><use transform="matrix(0.05,0,0,0.05,11.9,0)" xlink:href="#C"/><use transform="matrix(0.05,0,0,0.05,21.9,0)" xlink:href="#M"/><use transform="matrix(0.05,0,0,0.05,30.899999999999995,0)" xlink:href="#q"/><use transform="matrix(0.05,0,0,0.05,40.9,0)" xlink:href="#r"/><use transform="matrix(0.05,0,0,0.05,50.9,0)" xlink:href="#s"/><use transform="matrix(0.05,0,0,0.05,56.85,0)" xlink:href="#x"/><use transform="matrix(0.05,0,0,0.05,65.85,0)" xlink:href="#C"/></g><g id="n"><use transform="matrix(0.05,0,0,0.05,0,0)" xlink:href="#M"/><use transform="matrix(0.05,0,0,0.05,9,0)" xlink:href="#C"/><use transform="matrix(0.05,0,0,0.05,19,0)" xlink:href="#s"/><use transform="matrix(0.05,0,0,0.05,24.95,0)" xlink:href="#I"/><use transform="matrix(0.05,0,0,0.05,33.95,0)" xlink:href="#C"/><use transform="matrix(0.05,0,0,0.05,43.95,0)" xlink:href="#s"/><use transform="matrix(0.05,0,0,0.05,49.900000000000006,0)" xlink:href="#D"/></g><path d="M126-127c33 6 58 20 58 59 0 88-139 92-164 29-3-8-5-16-6-25l32-3c6 27 21 44 54 44 32 0 52-15 52-46 0-38-36-46-79-43v-28c39 1 72-4 72-42 0-27-17-43-46-43-28 0-47 15-49 41l-32-3c6-42 35-63 81-64 48-1 79 21 79 65 0 36-21 52-52 59" id="N"/><use transform="matrix(0.07407407407407408,0,0,0.07407407407407408,0,0)" xlink:href="#N" id="o"/></defs></g></svg>