<svg xmlns="http://www.w3.org/2000/svg" xmlns:xlink="http://www.w3.org/1999/xlink" xmlns:lucid="lucid" width="740" height="660"><g transform="translate(-20 -60)" lucid:page-tab-id="0_0"><path d="M40 85c0-2.76 2.24-5 5-5h150c2.76 0 5 2.24 5 5v110c0 2.76-2.24 5-5 5H45c-2.76 0-5-2.24-5-5z" stroke="#000" stroke-width="2" fill="#c1e4f7"/><use xlink:href="#a" transform="matrix(1,0,0,1,45,85) translate(39.574999999999996 58.6)"/><path d="M40 445c0-2.76 2.24-5 5-5h150c2.76 0 5 2.24 5 5v110c0 2.76-2.24 5-5 5H45c-2.76 0-5-2.24-5-5z" stroke="#000" stroke-width="2" fill="#c1e4f7"/><use xlink:href="#b" transform="matrix(1,0,0,1,45,445) translate(21.77499999999999 58.6)"/><use xlink:href="#c" transform="matrix(1,0,0,1,45,445) translate(97.625 58.6)"/><path d="M360 385c0-2.76 2.24-5 5-5h150c2.76 0 5 2.24 5 5v110c0 2.76-2.24 5-5 5H365c-2.76 0-5-2.24-5-5z" stroke="#000" stroke-width="2" fill="#c1e4f7"/><use xlink:href="#b" transform="matrix(1,0,0,1,365,385) translate(17.099999999999994 58.6)"/><use xlink:href="#d" transform="matrix(1,0,0,1,365,385) translate(92.95 58.6)"/><path d="M580 85c0-2.76 2.24-5 5-5h150c2.76 0 5 2.24 5 5v110c0 2.76-2.24 5-5 5H585c-2.76 0-5-2.24-5-5z" stroke="#000" stroke-width="2" fill="#c1e4f7"/><use xlink:href="#e" transform="matrix(1,0,0,1,585,85) translate(39.574999999999996 47.8)"/><use xlink:href="#f" transform="matrix(1,0,0,1,585,85) translate(37.574999999999996 69.4)"/><path d="M220 585c0-2.76 2.24-5 5-5h150c2.76 0 5 2.24 5 5v110c0 2.76-2.24 5-5 5H225c-2.76 0-5-2.24-5-5z" stroke="#000" stroke-width="2" fill="#c1e4f7"/><use xlink:href="#b" transform="matrix(1,0,0,1,225,585) translate(23.099999999999994 58.6)"/><use xlink:href="#g" transform="matrix(1,0,0,1,225,585) translate(98.95 58.6)"/><path d="M360 185c0-2.76 2.24-5 5-5h150c2.76 0 5 2.24 5 5v110c0 2.76-2.24 5-5 5H365c-2.76 0-5-2.24-5-5z" stroke="#000" stroke-width="2" fill="#c1e4f7"/><use xlink:href="#b" transform="matrix(1,0,0,1,365,185) translate(6.674999999999997 58.6)"/><use xlink:href="#h" transform="matrix(1,0,0,1,365,185) translate(82.525 58.6)"/><path d="M440 179v-39H201" stroke="#000" stroke-width="2" fill="none"/><path d="M450.9 178.1l-1.8.9-9.1-18.2-9.1 18.2-1.8-.9 10.9-21.78z"/><path fill="#fff"/><path d="M450 159.55h-20v-2h20zM223.68 140l-21.8 10.9-.88-1.8 18.2-9.1-18.2-9.1.9-1.8z"/><path fill="#fff"/><path d="M222.45 150h-2v-20h2z"/><path d="M66.93 201v238" stroke="#000" stroke-width="2" fill="none"/><path fill="#fff"/><path d="M76.93 212h-20v-2h20z"/><path fill="#fff"/><path d="M76.93 222h-20v-2h20z"/><path fill="#fff"/><path d="M76.93 430h-20v-2h20z"/><path fill="#fff"/><path d="M76.93 420h-20v-2h20z"/><path d="M440 501v39H301l-1 39" stroke="#000" stroke-width="2" fill="none"/><path fill="#fff"/><path d="M450 512h-20v-2h20z"/><path fill="#fff"/><path d="M450 522h-20v-2h20zM310.9 578.4l-1.8.83-8.63-18.44-9.57 17.97-1.77-.94 11.45-21.5z"/><path d="M310.78 548.56l-.5 3.16-1.43 2.75-2.16 2.16-2.76 1.42-3.16.5-3.16-.5-2.75-1.42-2.16-2.16-1.4-2.75-.52-3.16.5-3.16 1.43-2.74 2.17-2.17 2.75-1.43 3.16-.5 3.16.5 2.75 1.42 2.15 2.16 1.42 2.74.5 3.16z" fill="#fff"/><path d="M304.26 538.1l3.02 1.58 2.4 2.38 1.55 3.02.54 3.32-1 .16 1 .16-.54 3.32-1.56 3.03-2.4 2.38-3 1.56-3.5.58-3.47-.57-3.02-1.55-2.4-2.38-1.55-3.03-.56-3.48.56-3.48 1.56-3.02 2.38-2.38 3.02-1.57 3.48-.55zm-6.32 1.93l-2.47 1.28-1.94 1.95-1.28 2.47-.46 2.84.45 2.85 1.28 2.47 1.94 1.95 2.47 1.27 2.84.45 2.84-.46 2.47-1.28 1.93-1.95 1.28-2.46.47-2.84-.46-2.84-1.27-2.47-1.94-1.94-2.48-1.27-2.84-.45z"/><path d="M381 640h279V201" stroke="#000" stroke-width="2" fill="none"/><path fill="#fff"/><path d="M392 650h-2v-20h2z"/><path fill="#fff"/><path d="M402 650h-2v-20h2zM670.9 201.9L660 223.67l-10.9-21.8 1.8-.88 9.1 18.2 9.1-18.2z"/><path fill="#fff"/><path d="M670 222.45h-20v-2h20z"/><path d="M521 440h101.6V201" stroke="#000" stroke-width="2" fill="none"/><path fill="#fff"/><path d="M532 450h-2v-20h2z"/><path fill="#fff"/><path d="M542 450h-2v-20h2zM633.5 201.9l-10.9 21.78-10.9-21.8 1.8-.88 9.1 18.2 9.1-18.2z"/><path d="M632.6 231.45l-.5 3.16-1.43 2.75-2.16 2.17-2.74 1.42-3.16.5-3.16-.5-2.75-1.42-2.17-2.17-1.42-2.74-.5-3.15.5-3.16 1.43-2.76 2.16-2.16 2.74-1.42 3.16-.5 3.16.5 2.75 1.42 2.17 2.16 1.42 2.75.5 3.15z" fill="#fff"/><path d="M626.08 221l3.02 1.56 2.4 2.38 1.55 3.03.54 3.32-1 .15 1 .16-.55 3.33-1.56 3.02-2.4 2.38-3.02 1.57-3.48.56-3.48-.56-3.02-1.57-2.4-2.38-1.55-3.02-.56-3.48.55-3.48 1.56-3.03 2.4-2.38 3.02-1.56 3.48-.57zm-6.32 1.92l-2.47 1.27-1.95 1.94-1.28 2.46-.46 2.85.47 2.84 1.28 2.46 1.94 1.94 2.46 1.28 2.84.45 2.84-.45 2.47-1.28 1.95-1.94 1.28-2.47.46-2.85-.47-2.85-1.28-2.46-1.94-1.95-2.46-1.28-2.84-.46z"/><path d="M440 379v-78" stroke="#000" stroke-width="2" fill="none"/><path fill="#fff"/><path d="M450 370h-20v-2h20z"/><path fill="#fff"/><path d="M450 360h-20v-2h20zM450.9 301.9L440 323.67l-10.9-21.8 1.8-.88 9.1 18.2 9.1-18.2z"/><path d="M450 331.45l-.5 3.16-1.43 2.75-2.16 2.17-2.74 1.42-3.16.5-3.16-.5-2.75-1.42-2.17-2.17-1.42-2.74-.5-3.15.5-3.16 1.43-2.76 2.16-2.16 2.74-1.42 3.16-.5 3.16.5 2.75 1.42 2.17 2.16 1.42 2.75.5 3.15z" fill="#fff"/><path d="M443.48 321l3.02 1.56 2.4 2.38 1.55 3.03.54 3.32-1 .15 1 .16-.55 3.33-1.56 3.02-2.4 2.38-3.02 1.57-3.48.56-3.48-.56-3.02-1.57-2.4-2.38-1.55-3.02-.56-3.48.55-3.48 1.56-3.03 2.4-2.38 3.02-1.56 3.48-.57zm-6.32 1.92l-2.47 1.27-1.95 1.94-1.28 2.46-.46 2.85.47 2.84 1.28 2.46 1.94 1.94 2.46 1.28 2.84.45 2.84-.45 2.47-1.28 1.95-1.94 1.28-2.47.46-2.85-.47-2.85-1.28-2.46-1.94-1.95-2.46-1.28-2.84-.46z"/><path d="M201 176.4h79V440h79" stroke="#000" stroke-width="2" fill="none"/><path d="M223.68 176.4l-21.8 10.9-.88-1.8 18.2-9.1-18.2-9.1.9-1.8z"/><path d="M241.45 176.4l-.5 3.16-1.43 2.75-2.17 2.17-2.74 1.42-3.15.5-3.16-.5-2.76-1.43-2.16-2.16-1.42-2.74-.5-3.16.5-3.16 1.42-2.75 2.16-2.17 2.75-1.42 3.15-.5 3.16.5 2.75 1.43 2.17 2.16 1.42 2.74.5 3.16z" fill="#fff"/><path d="M234.93 165.95l3.02 1.56 2.38 2.4 1.57 3.02.53 3.32-.98.16.98.16-.53 3.32-1.57 3.02-2.38 2.4-3.02 1.55-3.48.56-3.48-.55-3.03-1.56-2.38-2.4-1.56-3.02-.57-3.48.57-3.48 1.56-3.02 2.38-2.4 3.03-1.55 3.48-.56zm-6.33 1.92l-2.46 1.28-1.95 1.94-1.28 2.46-.46 2.84.46 2.84 1.27 2.47 1.94 1.95 2.46 1.28 2.85.46 2.84-.47 2.46-1.28 1.94-1.94 1.28-2.46.45-2.84-.45-2.84-1.28-2.47-1.94-1.95-2.47-1.28-2.85-.46z"/><path fill="#fff"/><path d="M350 450h-2v-20h2z"/><path fill="#fff"/><path d="M340 450h-2v-20h2z"/><path d="M140 200v189.5h117.6V579" stroke="#000" stroke-width="2" fill="none"/><path d="M150 200.45l-10 20-10-20" stroke="#000" stroke-width="2" fill="none"/><path d="M130 220.45h20" stroke="#000" stroke-width="2" fill="#fff"/><path fill="#fff"/><path d="M267.6 570h-20v-2h20z"/><path fill="#fff"/><path d="M267.6 560h-20v-2h20z"/><path d="M200 100h379" stroke="#000" stroke-width="2" fill="none"/><path d="M210 110V90M220 110V90" stroke="#000" stroke-width="2" fill="#fff"/><path d="M579 90.9l-18.2 9.1 18.2 9.1-.9 1.8-21.78-10.9 21.8-10.9z"/><path fill="#fff"/><path d="M559.55 110h-2V90h2z"/><defs><path d="M24-248c120-7 223 5 221 122C244-46 201 0 124 0H24v-248zM76-40c74 7 117-18 117-86 0-67-45-88-117-82v168" id="i"/><path d="M135-150c-39-12-60 13-60 57V0H25l-1-190h47c2 13-1 29 3 40 6-28 27-53 61-41v41" id="j"/><path d="M133-34C117-15 103 5 69 4 32 3 11-16 11-54c-1-60 55-63 116-61 1-26-3-47-28-47-18 1-26 9-28 27l-52-2c7-38 36-58 82-57s74 22 75 68l1 82c-1 14 12 18 25 15v27c-30 8-71 5-69-32zm-48 3c29 0 43-24 42-57-32 0-66-3-65 30 0 17 8 27 23 27" id="k"/><path d="M231 0h-52l-39-155L100 0H48L-1-190h46L77-45c9-52 24-97 36-145h53l37 145 32-145h46" id="l"/><path d="M25-224v-37h50v37H25zM25 0v-190h50V0H25" id="m"/><path d="M135-194c87-1 58 113 63 194h-50c-7-57 23-157-34-157-59 0-34 97-39 157H25l-1-190h47c2 12-1 28 3 38 12-26 28-41 61-42" id="n"/><path d="M195-6C206 82 75 100 31 46c-4-6-6-13-8-21l49-6c3 16 16 24 34 25 40 0 42-37 40-79-11 22-30 35-61 35-53 0-70-43-70-97 0-56 18-96 73-97 30 0 46 14 59 34l2-30h47zm-90-29c32 0 41-27 41-63 0-35-9-62-40-62-32 0-39 29-40 63 0 36 9 62 39 62" id="o"/><g id="a"><use transform="matrix(0.05,0,0,0.05,0,0)" xlink:href="#i"/><use transform="matrix(0.05,0,0,0.05,12.950000000000001,0)" xlink:href="#j"/><use transform="matrix(0.05,0,0,0.05,19.950000000000003,0)" xlink:href="#k"/><use transform="matrix(0.05,0,0,0.05,29.950000000000003,0)" xlink:href="#l"/><use transform="matrix(0.05,0,0,0.05,43.95,0)" xlink:href="#m"/><use transform="matrix(0.05,0,0,0.05,48.95,0)" xlink:href="#n"/><use transform="matrix(0.05,0,0,0.05,59.900000000000006,0)" xlink:href="#o"/></g><g id="b"><use transform="matrix(0.05,0,0,0.05,0,0)" xlink:href="#i"/><use transform="matrix(0.05,0,0,0.05,12.950000000000001,0)" xlink:href="#j"/><use transform="matrix(0.05,0,0,0.05,19.950000000000003,0)" xlink:href="#k"/><use transform="matrix(0.05,0,0,0.05,29.950000000000003,0)" xlink:href="#l"/><use transform="matrix(0.05,0,0,0.05,43.95,0)" xlink:href="#m"/><use transform="matrix(0.05,0,0,0.05,48.95,0)" xlink:href="#n"/><use transform="matrix(0.05,0,0,0.05,59.900000000000006,0)" xlink:href="#o"/></g><path d="M136-208V0H84v-208H4v-40h212v40h-80" id="p"/><path d="M25 0v-261h50V0H25" id="q"/><path d="M185-48c-13 30-37 53-82 52C43 2 14-33 14-96s30-98 90-98c62 0 83 45 84 108H66c0 31 8 55 39 56 18 0 30-7 34-22zm-45-69c5-46-57-63-70-21-2 6-4 13-4 21h74" id="r"/><g id="c"><use transform="matrix(0.05,0,0,0.05,0,0)" xlink:href="#p"/><use transform="matrix(0.05,0,0,0.05,10.600000000000001,0)" xlink:href="#m"/><use transform="matrix(0.05,0,0,0.05,15.600000000000001,0)" xlink:href="#q"/><use transform="matrix(0.05,0,0,0.05,20.6,0)" xlink:href="#r"/></g><path d="M199 0l-22-63H83L61 0H9l90-248h61L250 0h-51zm-33-102l-36-108c-10 38-24 72-36 108h72" id="s"/><g id="d"><use transform="matrix(0.05,0,0,0.05,0,0)" xlink:href="#s"/><use transform="matrix(0.05,0,0,0.05,12.950000000000001,0)" xlink:href="#j"/><use transform="matrix(0.05,0,0,0.05,19.950000000000003,0)" xlink:href="#r"/><use transform="matrix(0.05,0,0,0.05,29.950000000000003,0)" xlink:href="#k"/></g><g id="e"><use transform="matrix(0.05,0,0,0.05,0,0)" xlink:href="#i"/><use transform="matrix(0.05,0,0,0.05,12.950000000000001,0)" xlink:href="#j"/><use transform="matrix(0.05,0,0,0.05,19.950000000000003,0)" xlink:href="#k"/><use transform="matrix(0.05,0,0,0.05,29.950000000000003,0)" xlink:href="#l"/><use transform="matrix(0.05,0,0,0.05,43.95,0)" xlink:href="#m"/><use transform="matrix(0.05,0,0,0.05,48.95,0)" xlink:href="#n"/><use transform="matrix(0.05,0,0,0.05,59.900000000000006,0)" xlink:href="#o"/></g><path d="M240-174c0 40-23 61-54 70L253 0h-59l-57-94H76V0H24v-248c93 4 217-23 216 74zM76-134c48-2 112 12 112-38 0-48-66-32-112-35v73" id="t"/><path d="M128 0H69L1-190h53L99-40l48-150h52" id="u"/><path d="M137-138c1-29-70-34-71-4 15 46 118 7 119 86 1 83-164 76-172 9l43-7c4 19 20 25 44 25 33 8 57-30 24-41C81-84 22-81 20-136c-2-80 154-74 161-7" id="v"/><path d="M110-194c64 0 96 36 96 99 0 64-35 99-97 99-61 0-95-36-95-99 0-62 34-99 96-99zm-1 164c35 0 45-28 45-65 0-40-10-65-43-65-34 0-45 26-45 65 0 36 10 65 43 65" id="w"/><g id="f"><use transform="matrix(0.05,0,0,0.05,0,0)" xlink:href="#t"/><use transform="matrix(0.05,0,0,0.05,12.950000000000001,0)" xlink:href="#r"/><use transform="matrix(0.05,0,0,0.05,22.950000000000003,0)" xlink:href="#u"/><use transform="matrix(0.05,0,0,0.05,32.95,0)" xlink:href="#m"/><use transform="matrix(0.05,0,0,0.05,37.95,0)" xlink:href="#v"/><use transform="matrix(0.05,0,0,0.05,47.95,0)" xlink:href="#m"/><use transform="matrix(0.05,0,0,0.05,52.95,0)" xlink:href="#w"/><use transform="matrix(0.05,0,0,0.05,63.900000000000006,0)" xlink:href="#n"/></g><path d="M169-182c-1-43-94-46-97-3 18 66 151 10 154 114 3 95-165 93-204 36-6-8-10-19-12-30l50-8c3 46 112 56 116 5-17-69-150-10-154-114-4-87 153-88 188-35 5 8 8 18 10 28" id="x"/><path d="M115-3C79 11 28 4 28-45v-112H4v-33h27l15-45h31v45h36v33H77v99c-1 23 16 31 38 25v30" id="y"/><g id="g"><use transform="matrix(0.05,0,0,0.05,0,0)" xlink:href="#x"/><use transform="matrix(0.05,0,0,0.05,12,0)" xlink:href="#r"/><use transform="matrix(0.05,0,0,0.05,22,0)" xlink:href="#y"/></g><path d="M238-95c0 69-44 99-111 99C63 4 22-25 22-93v-155h51v151c-1 38 19 59 55 60 90 1 49-130 58-211h52v153" id="z"/><path d="M135-194c53 0 70 44 70 98 0 56-19 98-73 100-31 1-45-17-59-34 3 33 2 69 2 105H25l-1-265h48c2 10 0 23 3 31 11-24 29-35 60-35zM114-30c33 0 39-31 40-66 0-38-9-64-40-64-56 0-55 130 0 130" id="A"/><path d="M88-194c31-1 46 15 58 34l-1-101h50l1 261h-48c-2-10 0-23-3-31C134-8 116 4 84 4 32 4 16-41 15-95c0-56 19-97 73-99zm17 164c33 0 40-30 41-66 1-37-9-64-41-64s-38 30-39 65c0 43 13 65 39 65" id="B"/><g id="h"><use transform="matrix(0.05,0,0,0.05,0,0)" xlink:href="#z"/><use transform="matrix(0.05,0,0,0.05,12.950000000000001,0)" xlink:href="#A"/><use transform="matrix(0.05,0,0,0.05,23.900000000000002,0)" xlink:href="#q"/><use transform="matrix(0.05,0,0,0.05,28.900000000000002,0)" xlink:href="#w"/><use transform="matrix(0.05,0,0,0.05,39.85,0)" xlink:href="#k"/><use transform="matrix(0.05,0,0,0.05,49.85,0)" xlink:href="#B"/></g></defs></g></svg>