<svg xmlns="http://www.w3.org/2000/svg" xmlns:xlink="http://www.w3.org/1999/xlink" xmlns:lucid="lucid" width="862" height="546"><g transform="translate(-19 -19)" lucid:page-tab-id="0_0"><g filter="url(#a)"><path d="M40 155c0 2.76 2.24 5 5 5h190c2.76 0 5-2.24 5-5V45c0-2.76-2.24-5-5-5H45c-2.76 0-5 2.24-5 5z" stroke="#000" stroke-width="2" fill="#ffdba9"/><use xlink:href="#b" transform="matrix(1,0,0,1,45,45) translate(63.55 37)"/><use xlink:href="#c" transform="matrix(1,0,0,1,45,45) translate(38.099999999999994 58.6)"/><use xlink:href="#d" transform="matrix(1,0,0,1,45,45) translate(8.625 80.20000000000002)"/><use xlink:href="#e" transform="matrix(1,0,0,1,45,45) translate(125.525 80.20000000000002)"/></g><g filter="url(#a)"><path d="M560 155c0 2.76 2.24 5 5 5h190c2.76 0 5-2.24 5-5V45c0-2.76-2.24-5-5-5H565c-2.76 0-5 2.24-5 5z" stroke="#000" stroke-width="2" fill="#c1e4f7"/><use xlink:href="#f" transform="matrix(1,0,0,1,565,45) translate(30.424999999999997 47.8)"/><use xlink:href="#g" transform="matrix(1,0,0,1,565,45) translate(71.725 47.8)"/><use xlink:href="#h" transform="matrix(1,0,0,1,565,45) translate(68.1 69.4)"/></g><g filter="url(#i)"><path d="M240 304h320v240H240z" stroke="#000" stroke-width="2" fill="#fcfad3"/><path d="M240 304h320v60H240z" stroke="#000" stroke-width="2" fill="#bdbc9e"/><path d="M432 328h116v24H432z" stroke="#000" stroke-width="2" fill="#fcfad3"/><path d="M264 328l-12 12 12 12m-12-12h24M312 328l12 12-12 12m-12-12h24M372 340c-1.4-6.23-2.8-8.15-4.95-9.7-5.36-3.9-12.86-2.72-16.76 2.65-3.9 5.36-2.72 12.86 2.65 16.76 5.36 3.9 12.86 2.72 16.76-2.65" stroke="#000" stroke-width="6" fill="none"/><path d="M375.12 328v12h-12z" stroke="#000" stroke-width="1.5"/><path d="M396 340l12-12 12 12h-2.4v12h-6v-12h-7.2v12h-6v-12z" stroke="#000"/><use xlink:href="#j" transform="matrix(1,0,0,1,260,304) translate(86.275 15.6)"/><use xlink:href="#k" transform="matrix(1,0,0,1,260,304) translate(127.875 15.6)"/></g><g filter="url(#l)"><path d="M700 395c0 2.76 2.24 5 5 5h150c2.76 0 5-2.24 5-5V285c0-2.76-2.24-5-5-5H705c-2.76 0-5 2.24-5 5z" stroke="#000" stroke-width="2" fill="#ffdba9"/><use xlink:href="#m" transform="matrix(1,0,0,1,705,285) translate(7.574999999999989 37)"/><use xlink:href="#n" transform="matrix(1,0,0,1,705,285) translate(75.475 37)"/><use xlink:href="#o" transform="matrix(1,0,0,1,705,285) translate(60.5 58.6)"/><use xlink:href="#p" transform="matrix(1,0,0,1,705,285) translate(6.650000000000006 80.20000000000002)"/><use xlink:href="#e" transform="matrix(1,0,0,1,705,285) translate(87.5 80.20000000000002)"/></g><path d="M77.53 519H239v2H75.53V343.73h2zm0-207.27h-2V161h2zM242 521h-3v-2h3z"/><path d="M81.17 175.27H71.9L76.53 161z"/><path d="M82.55 176.27H70.52l5.3-16.27h1.44zm-9.28-2h6.52l-3.27-10.03z"/><use xlink:href="#q" transform="matrix(1,0,0,1,69.1259259259259,311.73333333333323) translate(0 21.333333333333336)"/><path d="M122.87 459H239v2H120.87V341.07h2zm0-149.93h-2V161h2z"/><path d="M239 460l-14.27 4.64v-9.28z"/><path d="M242.24 460l-18.5 6v-12zm-16.5 3.26l10.02-3.26-10.03-3.26zM126.5 175.27h-9.27l4.64-14.27z"/><path d="M127.88 176.27h-12.03l5.3-16.27h1.44zm-9.27-2h6.53l-3.26-10.03z"/><use xlink:href="#r" transform="matrix(1,0,0,1,114.45925925925921,309.0666666666666) translate(0 21.333333333333336)"/><path d="M178.2 400.6H239v2h-62.8V273.07h2zm0-159.53h-2V161h2zM178.2 161h-2v-1h2z"/><path d="M239 401.6l-14.27 4.64v-9.28z"/><path d="M242.24 401.6l-18.5 6v-12zm-16.5 3.26l10.02-3.26-10.03-3.26z"/><use xlink:href="#s" transform="matrix(1,0,0,1,169.79259259259257,241.0666666666666) translate(0 21.333333333333336)"/><path d="M599.53 419.93H561v-2h36.53v-164.6h2zm0-198.6h-2V161h2z"/><path d="M603.17 175.27h-9.27l4.63-14.27z"/><path d="M604.55 176.27h-12.03l5.3-16.27h1.44zm-9.28-2h6.52l-3.27-10.03zM561 419.93h-3v-2h3z"/><use xlink:href="#s" transform="matrix(1,0,0,1,591.125925925926,221.33333333333331) translate(0 21.333333333333336)"/><path d="M661 479.93H561v-2h98V272h2zM661 240h-2v-80h2z"/><path/><path d="M575.27 483.57L561 478.93l14.27-4.63z"/><path d="M576.27 484.95l-18.5-6.02 18.5-6zm-12.03-6.02l10.03 3.26v-6.53z"/><use xlink:href="#q" transform="matrix(1,0,0,1,652.5925925925926,240) translate(0 21.333333333333336)"/><path d="M737.93 279h-2v-50.2h2zm0-82.2h-2V161h2zM737.93 161h-2v-1h2z"/><path d="M736.93 279l-4.63-14.27h9.27z"/><path d="M737.66 280h-1.45l-5.28-16.27h12.03zm-4-14.27l3.27 10.03 3.26-10.03z"/><use xlink:href="#t" transform="matrix(1,0,0,1,729.525925925926,196.8) translate(0 21.333333333333336)"/><path d="M280 420h240v60H280z" fill="none"/><use xlink:href="#m" transform="matrix(1,0,0,1,285,425) translate(62.099999999999994 28.6)"/><use xlink:href="#u" transform="matrix(1,0,0,1,285,425) translate(130 28.6)"/><defs><path d="M30-248c87 1 191-15 191 75 0 78-77 80-158 76V0H30v-248zm33 125c57 0 124 11 124-50 0-59-68-47-124-48v98" id="v"/><path d="M114-163C36-179 61-72 57 0H25l-1-190h30c1 12-1 29 2 39 6-27 23-49 58-41v29" id="w"/><path d="M100-194c62-1 85 37 85 99 1 63-27 99-86 99S16-35 15-95c0-66 28-99 85-99zM99-20c44 1 53-31 53-75 0-43-8-75-51-75s-53 32-53 75 10 74 51 75" id="x"/><path d="M96-169c-40 0-48 33-48 73s9 75 48 75c24 0 41-14 43-38l32 2c-6 37-31 61-74 61-59 0-76-41-82-99-10-93 101-131 147-64 4 7 5 14 7 22l-32 3c-4-21-16-35-41-35" id="y"/><path d="M100-194c63 0 86 42 84 106H49c0 40 14 67 53 68 26 1 43-12 49-29l28 8c-11 28-37 45-77 45C44 4 14-33 15-96c1-61 26-98 85-98zm52 81c6-60-76-77-97-28-3 7-6 17-6 28h103" id="z"/><g id="b"><use transform="matrix(0.05,0,0,0.05,0,0)" xlink:href="#v"/><use transform="matrix(0.05,0,0,0.05,12,0)" xlink:href="#w"/><use transform="matrix(0.05,0,0,0.05,17.95,0)" xlink:href="#x"/><use transform="matrix(0.05,0,0,0.05,27.950000000000003,0)" xlink:href="#y"/><use transform="matrix(0.05,0,0,0.05,36.95,0)" xlink:href="#x"/><use transform="matrix(0.05,0,0,0.05,46.95,0)" xlink:href="#w"/><use transform="matrix(0.05,0,0,0.05,52.900000000000006,0)" xlink:href="#z"/></g><path d="M87 75C49 33 22-17 22-94c0-76 28-126 65-167h31c-38 41-64 92-64 168S80 34 118 75H87" id="A"/><path d="M141-36C126-15 110 5 73 4 37 3 15-17 15-53c-1-64 63-63 125-63 3-35-9-54-41-54-24 1-41 7-42 31l-33-3c5-37 33-52 76-52 45 0 72 20 72 64v82c-1 20 7 32 28 27v20c-31 9-61-2-59-35zM48-53c0 20 12 33 32 33 41-3 63-29 60-74-43 2-92-5-92 41" id="B"/><path d="M84 4C-5 8 30-112 23-190h32v120c0 31 7 50 39 49 72-2 45-101 50-169h31l1 190h-30c-1-10 1-25-2-33-11 22-28 36-60 37" id="C"/><path d="M59-47c-2 24 18 29 38 22v24C64 9 27 4 27-40v-127H5v-23h24l9-43h21v43h35v23H59v120" id="D"/><path d="M106-169C34-169 62-67 57 0H25v-261h32l-1 103c12-21 28-36 61-36 89 0 53 116 60 194h-32v-121c2-32-8-49-39-48" id="E"/><path d="M24-231v-30h32v30H24zM24 0v-190h32V0H24" id="F"/><path d="M9 0v-24l116-142H16v-24h144v24L44-24h123V0H9" id="G"/><path d="M117-194c89-4 53 116 60 194h-32v-121c0-31-8-49-39-48C34-167 62-67 57 0H25l-1-190h30c1 10-1 24 2 32 11-22 29-35 61-36" id="H"/><path d="M0 4l72-265h28L28 4H0" id="I"/><g id="c"><use transform="matrix(0.05,0,0,0.05,0,0)" xlink:href="#A"/><use transform="matrix(0.05,0,0,0.05,5.95,0)" xlink:href="#B"/><use transform="matrix(0.05,0,0,0.05,15.949999999999998,0)" xlink:href="#C"/><use transform="matrix(0.05,0,0,0.05,25.950000000000003,0)" xlink:href="#D"/><use transform="matrix(0.05,0,0,0.05,30.950000000000003,0)" xlink:href="#E"/><use transform="matrix(0.05,0,0,0.05,40.95,0)" xlink:href="#x"/><use transform="matrix(0.05,0,0,0.05,50.95,0)" xlink:href="#w"/><use transform="matrix(0.05,0,0,0.05,56.900000000000006,0)" xlink:href="#F"/><use transform="matrix(0.05,0,0,0.05,60.85,0)" xlink:href="#G"/><use transform="matrix(0.05,0,0,0.05,69.85000000000001,0)" xlink:href="#B"/><use transform="matrix(0.05,0,0,0.05,79.85000000000001,0)" xlink:href="#D"/><use transform="matrix(0.05,0,0,0.05,84.85000000000001,0)" xlink:href="#F"/><use transform="matrix(0.05,0,0,0.05,88.80000000000001,0)" xlink:href="#x"/><use transform="matrix(0.05,0,0,0.05,98.80000000000001,0)" xlink:href="#H"/><use transform="matrix(0.05,0,0,0.05,108.80000000000001,0)" xlink:href="#I"/></g><g id="d"><use transform="matrix(0.05,0,0,0.05,0,0)" xlink:href="#B"/><use transform="matrix(0.05,0,0,0.05,10,0)" xlink:href="#C"/><use transform="matrix(0.05,0,0,0.05,20,0)" xlink:href="#D"/><use transform="matrix(0.05,0,0,0.05,25,0)" xlink:href="#E"/><use transform="matrix(0.05,0,0,0.05,35,0)" xlink:href="#z"/><use transform="matrix(0.05,0,0,0.05,45,0)" xlink:href="#H"/><use transform="matrix(0.05,0,0,0.05,55,0)" xlink:href="#D"/><use transform="matrix(0.05,0,0,0.05,60,0)" xlink:href="#F"/><use transform="matrix(0.05,0,0,0.05,63.95,0)" xlink:href="#y"/><use transform="matrix(0.05,0,0,0.05,72.95,0)" xlink:href="#B"/><use transform="matrix(0.05,0,0,0.05,82.95,0)" xlink:href="#D"/><use transform="matrix(0.05,0,0,0.05,87.95,0)" xlink:href="#F"/><use transform="matrix(0.05,0,0,0.05,91.9,0)" xlink:href="#x"/><use transform="matrix(0.05,0,0,0.05,101.9,0)" xlink:href="#H"/></g><path d="M135-143c-3-34-86-38-87 0 15 53 115 12 119 90S17 21 10-45l28-5c4 36 97 45 98 0-10-56-113-15-118-90-4-57 82-63 122-42 12 7 21 19 24 35" id="J"/><path d="M108 0H70L1-190h34L89-25l56-165h34" id="K"/><path d="M33-261c38 41 65 92 65 168S71 34 33 75H2C39 34 66-17 66-93S39-220 2-261h31" id="L"/><g id="e"><use transform="matrix(0.05,0,0,0.05,0,0)" xlink:href="#J"/><use transform="matrix(0.05,0,0,0.05,9,0)" xlink:href="#z"/><use transform="matrix(0.05,0,0,0.05,19,0)" xlink:href="#w"/><use transform="matrix(0.05,0,0,0.05,24.95,0)" xlink:href="#K"/><use transform="matrix(0.05,0,0,0.05,33.95,0)" xlink:href="#z"/><use transform="matrix(0.05,0,0,0.05,43.95,0)" xlink:href="#w"/><use transform="matrix(0.05,0,0,0.05,49.900000000000006,0)" xlink:href="#L"/></g><filter id="a" filterUnits="objectBoundingBox" x="-.05" y="-.03" width="1.1" height="1.17"><feOffset result="offOut" in="SourceAlpha" dy="6"/><feGaussianBlur result="blurOut" in="offOut" stdDeviation="5"/><feColorMatrix result="colorOut" in="blurOut" values="0 0 0 0 0 0 0 0 0 0 0 0 0 0 0 0 0 0 0.5019607843137255 0"/><feBlend in="SourceGraphic" in2="colorOut"/></filter><path d="M137-103V0h-34v-103L8-248h37l75 118 75-118h37" id="M"/><g id="f"><use transform="matrix(0.05,0,0,0.05,0,0)" xlink:href="#M"/><use transform="matrix(0.05,0,0,0.05,10.35,0)" xlink:href="#x"/><use transform="matrix(0.05,0,0,0.05,20.35,0)" xlink:href="#C"/><use transform="matrix(0.05,0,0,0.05,30.35,0)" xlink:href="#w"/></g><path d="M205 0l-28-72H64L36 0H1l101-248h38L239 0h-34zm-38-99l-47-123c-12 45-31 82-46 123h93" id="N"/><path d="M115-194c55 1 70 41 70 98S169 2 115 4C84 4 66-9 55-30l1 105H24l-1-265h31l2 30c10-21 28-34 59-34zm-8 174c40 0 45-34 45-75s-6-73-45-74c-42 0-51 32-51 76 0 43 10 73 51 73" id="O"/><path d="M24 0v-261h32V0H24" id="P"/><g id="g"><use transform="matrix(0.05,0,0,0.05,0,0)" xlink:href="#N"/><use transform="matrix(0.05,0,0,0.05,12,0)" xlink:href="#O"/><use transform="matrix(0.05,0,0,0.05,22,0)" xlink:href="#O"/><use transform="matrix(0.05,0,0,0.05,32,0)" xlink:href="#P"/><use transform="matrix(0.05,0,0,0.05,35.95,0)" xlink:href="#F"/><use transform="matrix(0.05,0,0,0.05,39.900000000000006,0)" xlink:href="#y"/><use transform="matrix(0.05,0,0,0.05,48.900000000000006,0)" xlink:href="#B"/><use transform="matrix(0.05,0,0,0.05,58.900000000000006,0)" xlink:href="#D"/><use transform="matrix(0.05,0,0,0.05,63.900000000000006,0)" xlink:href="#F"/><use transform="matrix(0.05,0,0,0.05,67.85000000000001,0)" xlink:href="#x"/><use transform="matrix(0.05,0,0,0.05,77.85000000000001,0)" xlink:href="#H"/></g><g id="h"><use transform="matrix(0.05,0,0,0.05,0,0)" xlink:href="#A"/><use transform="matrix(0.05,0,0,0.05,5.95,0)" xlink:href="#y"/><use transform="matrix(0.05,0,0,0.05,14.949999999999998,0)" xlink:href="#P"/><use transform="matrix(0.05,0,0,0.05,18.9,0)" xlink:href="#F"/><use transform="matrix(0.05,0,0,0.05,22.849999999999998,0)" xlink:href="#z"/><use transform="matrix(0.05,0,0,0.05,32.849999999999994,0)" xlink:href="#H"/><use transform="matrix(0.05,0,0,0.05,42.849999999999994,0)" xlink:href="#D"/><use transform="matrix(0.05,0,0,0.05,47.849999999999994,0)" xlink:href="#L"/></g><path d="M266 0h-40l-56-210L115 0H75L2-248h35L96-30l15-64 43-154h32l59 218 59-218h35" id="Q"/><path d="M115-194c53 0 69 39 70 98 0 66-23 100-70 100C84 3 66-7 56-30L54 0H23l1-261h32v101c10-23 28-34 59-34zm-8 174c40 0 45-34 45-75 0-40-5-75-45-74-42 0-51 32-51 76 0 43 10 73 51 73" id="R"/><g id="j"><use transform="matrix(0.05,0,0,0.05,0,0)" xlink:href="#Q"/><use transform="matrix(0.05,0,0,0.05,16.599999999999998,0)" xlink:href="#z"/><use transform="matrix(0.05,0,0,0.05,26.599999999999994,0)" xlink:href="#R"/></g><path d="M160-131c35 5 61 23 61 61C221 17 115-2 30 0v-248c76 3 177-17 177 60 0 33-19 50-47 57zm-97-11c50-1 110 9 110-42 0-47-63-36-110-37v79zm0 115c55-2 124 14 124-45 0-56-70-42-124-44v89" id="S"/><path d="M206 0h-36l-40-164L89 0H53L-1-190h32L70-26l43-164h34l41 164 42-164h31" id="T"/><g id="k"><use transform="matrix(0.05,0,0,0.05,0,0)" xlink:href="#S"/><use transform="matrix(0.05,0,0,0.05,12,0)" xlink:href="#w"/><use transform="matrix(0.05,0,0,0.05,17.95,0)" xlink:href="#x"/><use transform="matrix(0.05,0,0,0.05,27.950000000000003,0)" xlink:href="#T"/><use transform="matrix(0.05,0,0,0.05,40.9,0)" xlink:href="#J"/><use transform="matrix(0.05,0,0,0.05,49.9,0)" xlink:href="#z"/><use transform="matrix(0.05,0,0,0.05,59.900000000000006,0)" xlink:href="#w"/></g><filter id="i" filterUnits="objectBoundingBox" x="-.03" y="-.02" width="1.06" height="1.08"><feOffset result="offOut" in="SourceAlpha" dy="6"/><feGaussianBlur result="blurOut" in="offOut" stdDeviation="5"/><feColorMatrix result="colorOut" in="blurOut" values="0 0 0 0 0 0 0 0 0 0 0 0 0 0 0 0 0 0 0.5019607843137255 0"/><feBlend in="SourceGraphic" in2="colorOut"/></filter><g id="m"><use transform="matrix(0.05,0,0,0.05,0,0)" xlink:href="#v"/><use transform="matrix(0.05,0,0,0.05,12,0)" xlink:href="#w"/><use transform="matrix(0.05,0,0,0.05,17.95,0)" xlink:href="#x"/><use transform="matrix(0.05,0,0,0.05,27.950000000000003,0)" xlink:href="#y"/><use transform="matrix(0.05,0,0,0.05,36.95,0)" xlink:href="#x"/><use transform="matrix(0.05,0,0,0.05,46.95,0)" xlink:href="#w"/><use transform="matrix(0.05,0,0,0.05,52.900000000000006,0)" xlink:href="#z"/></g><path d="M212-179c-10-28-35-45-73-45-59 0-87 40-87 99 0 60 29 101 89 101 43 0 62-24 78-52l27 14C228-24 195 4 139 4 59 4 22-46 18-125c-6-104 99-153 187-111 19 9 31 26 39 46" id="U"/><g id="n"><use transform="matrix(0.05,0,0,0.05,0,0)" xlink:href="#U"/><use transform="matrix(0.05,0,0,0.05,12.950000000000001,0)" xlink:href="#x"/><use transform="matrix(0.05,0,0,0.05,22.950000000000003,0)" xlink:href="#H"/><use transform="matrix(0.05,0,0,0.05,32.95,0)" xlink:href="#H"/><use transform="matrix(0.05,0,0,0.05,42.95,0)" xlink:href="#z"/><use transform="matrix(0.05,0,0,0.05,52.95,0)" xlink:href="#y"/><use transform="matrix(0.05,0,0,0.05,61.95,0)" xlink:href="#D"/></g><path d="M33 0v-248h34V0H33" id="V"/><g id="o"><use transform="matrix(0.05,0,0,0.05,0,0)" xlink:href="#N"/><use transform="matrix(0.05,0,0,0.05,12,0)" xlink:href="#v"/><use transform="matrix(0.05,0,0,0.05,24,0)" xlink:href="#V"/></g><g id="p"><use transform="matrix(0.05,0,0,0.05,0,0)" xlink:href="#A"/><use transform="matrix(0.05,0,0,0.05,5.95,0)" xlink:href="#w"/><use transform="matrix(0.05,0,0,0.05,11.9,0)" xlink:href="#z"/><use transform="matrix(0.05,0,0,0.05,21.9,0)" xlink:href="#J"/><use transform="matrix(0.05,0,0,0.05,30.899999999999995,0)" xlink:href="#x"/><use transform="matrix(0.05,0,0,0.05,40.9,0)" xlink:href="#C"/><use transform="matrix(0.05,0,0,0.05,50.9,0)" xlink:href="#w"/><use transform="matrix(0.05,0,0,0.05,56.85,0)" xlink:href="#y"/><use transform="matrix(0.05,0,0,0.05,65.85,0)" xlink:href="#z"/></g><filter id="l" filterUnits="objectBoundingBox" x="-.06" y="-.03" width="1.13" height="1.17"><feOffset result="offOut" in="SourceAlpha" dy="6"/><feGaussianBlur result="blurOut" in="offOut" stdDeviation="5"/><feColorMatrix result="colorOut" in="blurOut" values="0 0 0 0 0 0 0 0 0 0 0 0 0 0 0 0 0 0 0.5019607843137255 0"/><feBlend in="SourceGraphic" in2="colorOut"/></filter><path d="M27 0v-27h64v-190l-56 39v-29l58-41h29v221h61V0H27" id="W"/><use transform="matrix(0.07407407407407408,0,0,0.07407407407407408,0,0)" xlink:href="#W" id="q"/><path d="M101-251c82-7 93 87 43 132L82-64C71-53 59-42 53-27h129V0H18c2-99 128-94 128-182 0-28-16-43-45-43s-46 15-49 41l-32-3c6-41 34-60 81-64" id="X"/><use transform="matrix(0.07407407407407408,0,0,0.07407407407407408,0,0)" xlink:href="#X" id="r"/><path d="M126-127c33 6 58 20 58 59 0 88-139 92-164 29-3-8-5-16-6-25l32-3c6 27 21 44 54 44 32 0 52-15 52-46 0-38-36-46-79-43v-28c39 1 72-4 72-42 0-27-17-43-46-43-28 0-47 15-49 41l-32-3c6-42 35-63 81-64 48-1 79 21 79 65 0 36-21 52-52 59" id="Y"/><use transform="matrix(0.07407407407407408,0,0,0.07407407407407408,0,0)" xlink:href="#Y" id="s"/><path d="M155-56V0h-30v-56H8v-25l114-167h33v167h35v25h-35zm-30-156c-27 46-58 90-88 131h88v-131" id="Z"/><use transform="matrix(0.07407407407407408,0,0,0.07407407407407408,0,0)" xlink:href="#Z" id="t"/><path d="M232-93c-1 65-40 97-104 97C67 4 28-28 28-90v-158h33c8 89-33 224 67 224 102 0 64-133 71-224h33v155" id="aa"/><g id="u"><use transform="matrix(0.05,0,0,0.05,0,0)" xlink:href="#aa"/><use transform="matrix(0.05,0,0,0.05,12.950000000000001,0)" xlink:href="#J"/><use transform="matrix(0.05,0,0,0.05,21.950000000000003,0)" xlink:href="#z"/><use transform="matrix(0.05,0,0,0.05,31.950000000000003,0)" xlink:href="#w"/></g></defs></g></svg>