<svg xmlns="http://www.w3.org/2000/svg" xmlns:xlink="http://www.w3.org/1999/xlink" xmlns:lucid="lucid" width="1421" height="1250"><g transform="translate(-12 60)" lucid:page-tab-id="0_0"><path d="M32-40h345v82H32zM377.03-40h345v82h-345zM722.07-40h345v82h-345zM1067.53-40h345v82h-345z" fill="#666"/><path d="M32 42.28h345v1128H32z" fill="#d6d6d6"/><path d="M377.03 42.28h345v1128h-345z" fill="#e4e4e4"/><path d="M722.07 42.28h345v1128h-345z" fill="#f2f2f2"/><path d="M1067.53 42.28h345v1128h-345z" fill="#fff"/><path d="M32 42h345M377.03 42h345M722.07 42h345M1067.53 42h345M32 42.28h345M377.03 42.28h345M722.07 42.28h345M1067.53 42.28h345M377-40v82M377.03-40v82m345-82v82M722.07-40v82m345-82v82M1067.53-40v82M377 42.28v1128M377.03 42.28v1128m345-1128v1128M722.07 42.28v1128m345-1128v1128M1067.53 42.28v1128M32-40h1381v1210H32z" stroke="#3d4752" fill="none"/><use xlink:href="#a" transform="matrix(1,0,0,1,32,-40) translate(153.111328125 45.9658203125)"/><use xlink:href="#b" transform="matrix(1,0,0,1,377.0343535290443,-40) translate(134.69384765625 45.9658203125)"/><use xlink:href="#c" transform="matrix(1,0,0,1,377.0343535290443,-40) translate(177.18017578125 45.9658203125)"/><use xlink:href="#d" transform="matrix(1,0,0,1,722.0687070580886,-40) translate(87.4130859375 45.9658203125)"/><use xlink:href="#e" transform="matrix(1,0,0,1,722.0687070580886,-40) translate(156.521484375 45.9658203125)"/><use xlink:href="#f" transform="matrix(1,0,0,1,722.0687070580886,-40) translate(202.2509765625 45.9658203125)"/><use xlink:href="#g" transform="matrix(1,0,0,1,32,42.283807181486736) translate(172.5 568.9658203125)"/><use xlink:href="#d" transform="matrix(1,0,0,1,1067.5343535290444,-40) translate(122.89453125 45.9658203125)"/><use xlink:href="#h" transform="matrix(1,0,0,1,1067.5343535290444,-40) translate(192.0029296875 45.9658203125)"/><path d="M152.83 184.83c-6.44 0-11.67 5.23-11.67 11.67v35c0 6.44 5.23 11.67 11.67 11.67h136.5c6.45 0 11.67-5.23 11.67-11.67v-35c0-6.44-5.22-11.67-11.67-11.67z" stroke="#3d4752" stroke-width="2" fill="#ffc374"/><use xlink:href="#i" transform="matrix(1,0,0,1,149.1627906976745,192.8315712251327) translate(13.02099609375 17.544921875)"/><use xlink:href="#j" transform="matrix(1,0,0,1,149.1627906976745,192.8315712251327) translate(31.39013671875 17.544921875)"/><use xlink:href="#k" transform="matrix(1,0,0,1,149.1627906976745,192.8315712251327) translate(76.59228515625 17.544921875)"/><use xlink:href="#l" transform="matrix(1,0,0,1,149.1627906976745,192.8315712251327) translate(114.99169921875 17.544921875)"/><use xlink:href="#m" transform="matrix(1,0,0,1,149.1627906976745,192.8315712251327) translate(37.828125 35.38671875)"/><path d="M451.67 185c-6.45 0-11.67 5.22-11.67 11.67v35c0 6.44 5.22 11.67 11.67 11.67h136.5c6.44 0 11.67-5.23 11.67-11.67v-35c0-6.45-5.23-11.67-11.67-11.67z" stroke="#3d4752" stroke-width="2" fill="#99d2f2"/><use xlink:href="#n" transform="matrix(1,0,0,1,448,193) translate(11.58837890625 17.544921875)"/><use xlink:href="#o" transform="matrix(1,0,0,1,448,193) translate(32.01416015625 17.544921875)"/><use xlink:href="#p" transform="matrix(1,0,0,1,448,193) translate(99.28564453125 17.544921875)"/><use xlink:href="#q" transform="matrix(1,0,0,1,448,193) translate(14.9677734375 35.38671875)"/><use xlink:href="#r" transform="matrix(1,0,0,1,448,193) translate(88.1982421875 35.38671875)"/><path d="M302 214h68.42c.04 0 .08.04.08.08 0 .05.04.1.08.1h50.18" stroke="#3d4752" stroke-width="2" fill="none"/><path d="M302 215h-1v-2h1zM435.76 214.17l-14.26 4.63v-9.27z" fill="#3d4752"/><path d="M439 214.17l-18.5 6v-12zm-16.5 3.26l10.03-3.26-10.03-3.26z" fill="#3d4752"/><path d="M519.92 244.34v67.83c0 2.76-2.24 5-5 5H320.24" stroke="#3d4752" stroke-width="2" fill="none"/><path d="M520.92 244.34h-2v-1h2zM319.5 321.8l-14.26-4.63 14.26-4.64z" fill="#3d4752"/><path d="M320.5 323.18l-18.5-6 18.5-6.02zm-12.03-6l10.03 3.25v-6.52z" fill="#3d4752"/><path d="M152.83 288c-6.44 0-11.67 5.22-11.67 11.67v35c0 6.44 5.23 11.67 11.67 11.67h136.5c6.45 0 11.67-5.23 11.67-11.67v-35c0-6.45-5.22-11.67-11.67-11.67z" stroke="#3d4752" stroke-width="2" fill="#ffc374"/><use xlink:href="#s" transform="matrix(1,0,0,1,149.1627906976746,296) translate(16.51904296875 17.544921875)"/><use xlink:href="#q" transform="matrix(1,0,0,1,149.1627906976746,296) translate(36.99755859375 17.544921875)"/><use xlink:href="#t" transform="matrix(1,0,0,1,149.1627906976746,296) translate(110.22802734375 17.544921875)"/><use xlink:href="#u" transform="matrix(1,0,0,1,149.1627906976746,296) translate(55.43701171875 35.38671875)"/><path d="M833.27 360c-7.33 0-13.27 5.94-13.27 13.27v39.8c0 7.33 5.94 13.27 13.27 13.27h133.3c7.33 0 13.27-5.94 13.27-13.27v-39.8c0-7.33-5.94-13.27-13.27-13.27z" stroke="#3d4752" stroke-width="2" fill="#99d2f2"/><use xlink:href="#v" transform="matrix(1,0,0,1,828,368) translate(30.01904296875 13.88671875)"/><use xlink:href="#w" transform="matrix(1,0,0,1,828,368) translate(51.98291015625 13.88671875)"/><use xlink:href="#x" transform="matrix(1,0,0,1,828,368) translate(14.43603515625 31.728515625)"/><use xlink:href="#y" transform="matrix(1,0,0,1,828,368) translate(83.54443359375 31.728515625)"/><use xlink:href="#z" transform="matrix(1,0,0,1,828,368) translate(48.6826171875 49.5703125)"/><path d="M152.67 448c-6.45 0-11.67 5.22-11.67 11.67v35c0 6.44 5.22 11.67 11.67 11.67H289c6.45 0 11.67-5.23 11.67-11.67v-35c0-6.45-5.22-11.67-11.66-11.67z" stroke="#3d4752" stroke-width="2" fill="#ffc374"/><use xlink:href="#A" transform="matrix(1,0,0,1,149,456) translate(4.4033203125 17.544921875)"/><use xlink:href="#B" transform="matrix(1,0,0,1,149,456) translate(25.083984375 17.544921875)"/><use xlink:href="#C" transform="matrix(1,0,0,1,149,456) translate(75.76171875 17.544921875)"/><use xlink:href="#D" transform="matrix(1,0,0,1,149,456) translate(23.10205078125 35.38671875)"/><use xlink:href="#E" transform="matrix(1,0,0,1,149,456) translate(74.39501953125 35.38671875)"/><path d="M221.08 347.34v40.83c0 2.76 2.24 5 5 5h574.68" stroke="#000" stroke-width="2" fill="none"/><path d="M222.08 347.34h-2v-1h2zM815.76 393.17l-14.26 4.63v-9.27z"/><path d="M819 393.17l-18.5 6v-12zm-16.5 3.26l10.03-3.26-10.03-3.26z"/><path d="M899.92 427.34v44.83c0 2.76-2.24 5-5 5h-575" stroke="#000" stroke-width="2" fill="none"/><path d="M900.92 427.34h-2v-1h2zM319.18 481.8l-14.27-4.63 14.28-4.64z"/><path d="M320.18 483.18l-18.5-6 18.5-6.02zm-12.03-6l10.03 3.25v-6.52z"/><path d="M241 120c0 11.05-8.95 20-20 20s-20-8.95-20-20 8.95-20 20-20 20 8.95 20 20z" stroke="#000" stroke-width="2"/><path d="M222.53 140.95v24.64" stroke="#000" stroke-width="2" fill="none"/><path d="M223.53 140.95h-2v-.97l.9-.03 1.1-.22zM222.53 180.6l-4.63-14.27h9.27z"/><path d="M222.53 183.83l-6-18.5h12.02zm-3.26-16.5l3.26 10.03 3.26-10.03z"/><path d="M217.46 702.54c1.96-1.96 5.12-1.96 7.08 0l12.92 12.92c1.96 1.96 1.96 5.12 0 7.08l-12.92 12.92c-1.96 1.96-5.12 1.96-7.08 0l-12.92-12.92c-1.96-1.96-1.96-5.12 0-7.08z" stroke="#000" stroke-width="2" fill="#ffc374"/><path d="M103 720c0 11.05-8.95 20-20 20s-20-8.95-20-20 8.95-20 20-20 20 8.95 20 20z" stroke="#000" stroke-width="2" fill="#fff"/><path d="M95 720c0 6.63-5.37 12-12 12s-12-5.37-12-12 5.37-12 12-12 12 5.37 12 12z" stroke="#000" stroke-width="2"/><path d="M138.65 721h-16.4v-2h16.4zm63.5-1h-13.6v-2h13.6z"/><path d="M203.1 718.5l.17 1.5h-1.12v-2h1.1zM121.5 724.64L107.24 720l14.26-4.64z"/><path d="M122.5 726l-18.5-6 18.5-6zm-12.03-6l10.03 3.26v-6.52z"/><use xlink:href="#F" transform="matrix(1,0,0,1,138.64999999999992,708.2) translate(0 14.4)"/><path d="M831.67 689.83c-6.45 0-11.67 5.23-11.67 11.67v35c0 6.44 5.22 11.67 11.67 11.67h136.5c6.44 0 11.67-5.23 11.67-11.67v-35c0-6.44-5.23-11.67-11.67-11.67z" stroke="#3d4752" stroke-width="2" fill="#99d2f2"/><use xlink:href="#G" transform="matrix(1,0,0,1,828,697.8315712251327) translate(14.220703125 17.544921875)"/><use xlink:href="#H" transform="matrix(1,0,0,1,828,697.8315712251327) translate(36.369140625 17.544921875)"/><use xlink:href="#t" transform="matrix(1,0,0,1,828,697.8315712251327) translate(112.5263671875 17.544921875)"/><use xlink:href="#u" transform="matrix(1,0,0,1,828,697.8315712251327) translate(55.43701171875 35.38671875)"/><path d="M461.32 720H239.85v-2h221.47zm339.44 0h-276.5v-2h276.5z"/><path d="M239.85 720h-1.1l.15-.5-.17-1.5h1.12zM815.76 719l-14.26 4.64v-9.28z"/><path d="M819 719l-18.5 6v-12zm-16.5 3.26l10.03-3.26-10.03-3.26z"/><use xlink:href="#I" transform="matrix(1,0,0,1,461.32499999999993,708.2) translate(0 14.4)"/><path d="M451.67 769.66c-6.45 0-11.67 5.23-11.67 11.67v35c0 6.45 5.22 11.67 11.67 11.67h136.5c6.44 0 11.67-5.22 11.67-11.67v-35c0-6.44-5.23-11.67-11.67-11.67z" stroke="#3d4752" stroke-width="2" fill="#99d2f2"/><use xlink:href="#J" transform="matrix(1,0,0,1,448,777.6631424502654) translate(0.19775390625 17.544921875)"/><use xlink:href="#K" transform="matrix(1,0,0,1,448,777.6631424502654) translate(21.81005859375 17.544921875)"/><use xlink:href="#L" transform="matrix(1,0,0,1,448,777.6631424502654) translate(86.90185546875 17.544921875)"/><use xlink:href="#M" transform="matrix(1,0,0,1,448,777.6631424502654) translate(47.73779296875 35.38671875)"/><path d="M899.92 749.17v44.66c0 2.76-2.24 5-5 5H619.07" stroke="#000" stroke-width="2" fill="none"/><path d="M900.92 749.17h-2v-1h2zM618.34 803.47l-14.27-4.64 14.27-4.63z"/><path d="M619.34 804.84l-18.5-6 18.5-6.02zm-12.03-6l10.04 3.25v-6.53z"/><path d="M831.67 589.66c-6.45 0-11.67 5.23-11.67 11.67v35c0 6.45 5.22 11.67 11.67 11.67h136.5c6.44 0 11.67-5.22 11.67-11.67v-35c0-6.44-5.23-11.67-11.67-11.67z" stroke="#3d4752" stroke-width="2" fill="#99d2f2"/><use xlink:href="#N" transform="matrix(1,0,0,1,828,597.6631424502654) translate(30.19482421875 17.544921875)"/><use xlink:href="#w" transform="matrix(1,0,0,1,828,597.6631424502654) translate(51.80712890625 17.544921875)"/><use xlink:href="#O" transform="matrix(1,0,0,1,828,597.6631424502654) translate(8.58251953125 35.38671875)"/><use xlink:href="#P" transform="matrix(1,0,0,1,828,597.6631424502654) translate(81.61962890625 35.38671875)"/><path d="M152.67 570c-6.45 0-11.67 5.22-11.67 11.67v35c0 6.44 5.22 11.67 11.67 11.67H289c6.45 0 11.67-5.23 11.67-11.67v-35c0-6.45-5.22-11.67-11.66-11.67z" stroke="#3d4752" stroke-width="2" fill="#ffc374"/><use xlink:href="#Q" transform="matrix(1,0,0,1,149,578) translate(20.65869140625 26.4658203125)"/><use xlink:href="#R" transform="matrix(1,0,0,1,149,578) translate(41.54150390625 26.4658203125)"/><path d="M819 620.83H565.34c-2.76 0-5-2.24-5-5v-11.66c0-2.76-2.24-5-5-5H319.9" stroke="#000" stroke-width="2" fill="none"/><path d="M820 621.83h-1v-2h1zM319.18 603.8l-14.27-4.63 14.28-4.64z"/><path d="M320.18 605.18l-18.5-6 18.5-6.02zm-12.03-6l10.03 3.25v-6.52z"/><path d="M220.84 629.34v35.23c0 .1.07.16.16.16.1 0 .16.08.16.17v17" stroke="#000" stroke-width="2" fill="none"/><path d="M221.84 629.34h-2v-1h2zM221.16 696.9l-4.63-14.27h9.27z"/><path d="M221.16 700.13l-6-18.5h12zm-3.26-16.5l3.26 10.03 3.26-10.03z"/><path d="M451.67 869.66c-6.45 0-11.67 5.23-11.67 11.67v35c0 6.45 5.22 11.67 11.67 11.67H588c6.45 0 11.67-5.22 11.67-11.67v-35c0-6.44-5.22-11.67-11.66-11.67z" stroke="#3d4752" stroke-width="2" fill="#99d2f2"/><use xlink:href="#S" transform="matrix(1,0,0,1,448,877.6631424502654) translate(16.43115234375 17.544921875)"/><use xlink:href="#T" transform="matrix(1,0,0,1,448,877.6631424502654) translate(46.53369140625 17.544921875)"/><use xlink:href="#U" transform="matrix(1,0,0,1,448,877.6631424502654) translate(97.46630859375 17.544921875)"/><use xlink:href="#V" transform="matrix(1,0,0,1,448,877.6631424502654) translate(56.29833984375 35.38671875)"/><path d="M220.84 507.34V543c0 2.76 2.24 5 5 5h669.08c2.76 0 5 2.24 5 5v17.43" stroke="#000" stroke-width="2" fill="none"/><path d="M221.84 507.34h-2v-1h2zM899.92 585.43l-4.64-14.27h9.27z"/><path d="M899.92 588.66l-6-18.5h12zm-3.26-16.5l3.26 10.03 3.26-10.04z"/><path d="M520 829v19.75c0 .05-.04.08-.08.08-.05 0-.08.04-.08.08v1.53" stroke="#000" stroke-width="2" fill="none"/><path d="M521 829h-2v-1h2zM519.84 865.43l-4.64-14.27h9.27z"/><path d="M519.84 868.66l-6-18.5h12zm-3.26-16.5l3.26 10.03 3.26-10.04z"/><path d="M1171.67 869.66c-6.45 0-11.67 5.23-11.67 11.67v35c0 6.45 5.22 11.67 11.67 11.67h136.5c6.44 0 11.67-5.22 11.67-11.67v-35c0-6.44-5.23-11.67-11.67-11.67z" stroke="#3d4752" stroke-width="2" fill="#c7e8ac"/><g><use xlink:href="#W" transform="matrix(1,0,0,1,1168,877.6631424502654) translate(11.28515625 17.544921875)"/><use xlink:href="#X" transform="matrix(1,0,0,1,1168,877.6631424502654) translate(37.3447265625 17.544921875)"/><use xlink:href="#t" transform="matrix(1,0,0,1,1168,877.6631424502654) translate(115.4619140625 17.544921875)"/><use xlink:href="#Y" transform="matrix(1,0,0,1,1168,877.6631424502654) translate(19.65234375 35.38671875)"/><use xlink:href="#Z" transform="matrix(1,0,0,1,1168,877.6631424502654) translate(55.0283203125 35.38671875)"/></g><path d="M600.67 898.83h540.1" stroke="#000" stroke-width="2" fill="none"/><path d="M600.67 899.83h-1v-2h1zM1155.76 898.83l-14.26 4.64v-9.27z"/><path d="M1159 898.83l-18.5 6v-12zm-16.5 3.26l10.03-3.27-10.03-3.26z"/><path d="M451.67 969.66c-6.45 0-11.67 5.23-11.67 11.67v35c0 6.45 5.22 11.67 11.67 11.67H588c6.45 0 11.67-5.22 11.67-11.67v-35c0-6.44-5.22-11.67-11.66-11.67z" stroke="#3d4752" stroke-width="2" fill="#99d2f2"/><g><use xlink:href="#aa" transform="matrix(1,0,0,1,448,977.6631424502654) translate(9.2548828125 17.544921875)"/><use xlink:href="#o" transform="matrix(1,0,0,1,448,977.6631424502654) translate(37.37109375 17.544921875)"/><use xlink:href="#U" transform="matrix(1,0,0,1,448,977.6631424502654) translate(104.642578125 17.544921875)"/><use xlink:href="#ab" transform="matrix(1,0,0,1,448,977.6631424502654) translate(31.4033203125 35.38671875)"/></g><path d="M1239.92 929v64.83c0 2.76-2.24 5-5 5h-616" stroke="#000" stroke-width="2" fill="none"/><path d="M1240.92 929h-2v-1h2zM618.18 1003.47l-14.27-4.64 14.28-4.63z"/><path d="M619.18 1004.84l-18.5-6 18.5-6.02zm-12.03-6l10.03 3.25v-6.53z"/><path d="M115.33 990c-7.74 0-14 6.27-14 14v42c0 7.73 6.26 14 14 14H247c7.73 0 14-6.27 14-14v-42c0-7.73-6.27-14-14-14z" stroke="#3d4752" stroke-width="2" fill="#ffc374"/><g><use xlink:href="#ac" transform="matrix(1,0,0,1,109.32558139534885,998) translate(37.5205078125 14.1240234375)"/><use xlink:href="#ad" transform="matrix(1,0,0,1,109.32558139534885,998) translate(65.689453125 14.1240234375)"/><use xlink:href="#ae" transform="matrix(1,0,0,1,109.32558139534885,998) translate(20.77294921875 31.9658203125)"/><use xlink:href="#l" transform="matrix(1,0,0,1,109.32558139534885,998) translate(107.23974609375 31.9658203125)"/><use xlink:href="#m" transform="matrix(1,0,0,1,109.32558139534885,998) translate(37.828125 49.8076171875)"/></g><path d="M201 1120c0 11.05-8.95 20-20 20s-20-8.95-20-20 8.95-20 20-20 20 8.95 20 20z" stroke="#000" stroke-width="2" fill="#fff"/><path d="M193 1120c0 6.63-5.37 12-12 12s-12-5.37-12-12 5.37-12 12-12 12 5.37 12 12z" stroke="#000" stroke-width="2"/><path d="M439 998.83h-83.5c-2.76 0-5 2.24-5 5V1020c0 2.76-2.24 5-5 5h-65.26" stroke="#000" stroke-width="2" fill="none"/><path d="M440 999.83h-1v-2h1zM279.5 1029.64l-14.26-4.64 14.26-4.64z"/><path d="M280.5 1031l-18.5-6 18.5-6zm-12.03-6l10.03 3.26v-6.52z"/><path d="M181.16 1061v19.78" stroke="#000" stroke-width="2" fill="none"/><path d="M182.16 1061h-2v-1h2zM181.16 1095.78l-4.63-14.27h9.27z"/><path d="M181.16 1099l-6-18.5h12zm-3.26-16.5l3.26 10.04 3.26-10.03z"/><defs><path fill="#fff" d="M718 23c-304 0-533-125-532-410v-1102h272v1066c0 151 87 227 260 227 174 0 261-76 261-227v-1066h272v1102c8 267-231 410-533 410" id="af"/><path fill="#fff" d="M925-326c0 213-197 348-437 348C341 22 194-16 47-93l93-183c121 69 236 103 345 103s164-42 164-127c0-41-24-75-72-100-19-10-61-25-126-44-165-49-270-109-315-179-27-41-40-94-40-158 0-210 193-335 432-335 111 0 229 34 354 103l-83 176c-101-56-191-84-271-84-107 0-161 40-161 121 0 37 23 66 70 89 16 12 285 99 327 123 105 60 161 144 161 262" id="ag"/><path fill="#fff" d="M94-548c0-302 191-568 483-568 311 0 493 270 482 633H370c7 207 93 311 256 311 93 0 196-46 308-137l103 144C907-40 760 22 595 22 293 22 94-237 94-548zm282-120h403c-18-170-85-255-202-255s-184 85-201 255" id="ah"/><path fill="#fff" d="M431-770V0H168v-1094h263v110c156-133 232-175 396-74l-84 220c-129-52-218-25-312 68" id="ai"/><g id="a"><use transform="matrix(0.0087890625,0,0,0.0087890625,0,0)" xlink:href="#af"/><use transform="matrix(0.0087890625,0,0,0.0087890625,12.6298828125,0)" xlink:href="#ag"/><use transform="matrix(0.0087890625,0,0,0.0087890625,21.4541015625,0)" xlink:href="#ah"/><use transform="matrix(0.0087890625,0,0,0.0087890625,31.587890625,0)" xlink:href="#ai"/></g><path fill="#fff" d="M495 0v-578L27-1489h291l317 627 320-627h279L767-578V0H495" id="aj"/><path fill="#fff" d="M578-1116c196 0 337 93 423 279 40 87 60 183 60 290 0 225-77 390-230 494-74 50-158 75-253 75-197 0-338-93-424-279-40-87-60-183-60-290 0-226 77-391 231-495 73-49 158-74 253-74zm0 194c-139 0-208 125-208 375s69 375 208 375c138 0 207-125 207-375s-69-375-207-375" id="ak"/><path fill="#fff" d="M437 22c-177 0-283-91-283-265v-851h263v755c0 91 46 137 139 137 75 0 152-32 233-95v-797h263V0H789v-93C670-16 552 22 437 22" id="al"/><g id="b"><use transform="matrix(0.0087890625,0,0,0.0087890625,0,0)" xlink:href="#aj"/><use transform="matrix(0.0087890625,0,0,0.0087890625,9.1494140625,0)" xlink:href="#ak"/><use transform="matrix(0.0087890625,0,0,0.0087890625,19.30078125,0)" xlink:href="#al"/><use transform="matrix(0.0087890625,0,0,0.0087890625,30.0234375,0)" xlink:href="#ai"/></g><path fill="#fff" d="M491-632h326l-163-487zM1028 0L887-418H421L279 0H11l527-1489h248L1312 0h-284" id="am"/><path fill="#fff" d="M690-1116c279 0 423 232 423 527 0 261-67 439-196 539C782 54 551 41 431-69v481H168v-1506h253v93c71-77 160-115 269-115zM431-810v545c64 56 127 84 189 84 145 0 218-134 218-402 0-214-68-321-203-321-71 0-139 31-204 94" id="an"/><g id="c"><use transform="matrix(0.0087890625,0,0,0.0087890625,0,0)" xlink:href="#am"/><use transform="matrix(0.0087890625,0,0,0.0087890625,11.9091796875,0)" xlink:href="#an"/><use transform="matrix(0.0087890625,0,0,0.0087890625,22.517578125,0)" xlink:href="#an"/></g><path fill="#fff" d="M205-1489h426c365 0 548 153 548 458S998-573 635-573H478V0H205v-1489zm273 219v478h161c177 0 265-80 265-239s-88-239-265-239H478" id="ao"/><path fill="#fff" d="M94-547c0-294 207-569 494-569 131 0 260 50 386 150L872-811c-96-74-188-111-277-112-163-2-225 186-225 376 0 251 82 377 246 377 81 0 168-36 260-107l103 137C862-32 733 22 593 22 292 22 94-208 94-547" id="ap"/><g id="d"><use transform="matrix(0.0087890625,0,0,0.0087890625,0,0)" xlink:href="#ao"/><use transform="matrix(0.0087890625,0,0,0.0087890625,11.1357421875,0)" xlink:href="#ai"/><use transform="matrix(0.0087890625,0,0,0.0087890625,17.96484375,0)" xlink:href="#ak"/><use transform="matrix(0.0087890625,0,0,0.0087890625,28.1162109375,0)" xlink:href="#ap"/><use transform="matrix(0.0087890625,0,0,0.0087890625,36.720703125,0)" xlink:href="#ak"/><use transform="matrix(0.0087890625,0,0,0.0087890625,46.8720703125,0)" xlink:href="#ai"/><use transform="matrix(0.0087890625,0,0,0.0087890625,53.701171875,0)" xlink:href="#ah"/></g><path fill="#fff" d="M503-384c-2 129 8 204 107 204 41 0 91-13 150-38l66 171C737-1 639 22 533 22c-230-2-293-122-293-358v-559H42v-199h198v-395h263v395h265v199H503v511" id="aq"/><path fill="#fff" d="M784-1116c178 0 282 88 282 264V0H803v-754c0-92-46-138-138-138-74 0-152 32-234 95V0H168v-1580h263v579c117-77 234-115 353-115" id="ar"/><g id="e"><use transform="matrix(0.0087890625,0,0,0.0087890625,0,0)" xlink:href="#am"/><use transform="matrix(0.0087890625,0,0,0.0087890625,11.9091796875,0)" xlink:href="#al"/><use transform="matrix(0.0087890625,0,0,0.0087890625,22.6318359375,0)" xlink:href="#aq"/><use transform="matrix(0.0087890625,0,0,0.0087890625,29.7333984375,0)" xlink:href="#ar"/></g><path fill="#fff" d="M183-342c139 97 272 144 401 141 177-5 266-73 266-205 0-83-46-143-137-186-66-31-351-127-423-171-120-74-184-178-184-324 0-181 82-309 250-380 237-100 547-49 724 90l-107 195c-117-70-238-105-361-105-149 0-223 63-223 189 0 81 64 140 191 179 19 5 54 16 105 32 192 62 321 144 388 246 41 63 61 141 61 234 0 173-87 302-265 376C603 79 286 20 77-135" id="as"/><path fill="#fff" d="M452 0L25-1094h272l252 709 263-709h249L634 0H452" id="at"/><g id="f"><use transform="matrix(0.0087890625,0,0,0.0087890625,0,0)" xlink:href="#as"/><use transform="matrix(0.0087890625,0,0,0.0087890625,10.7841796875,0)" xlink:href="#ah"/><use transform="matrix(0.0087890625,0,0,0.0087890625,20.91796875,0)" xlink:href="#ai"/><use transform="matrix(0.0087890625,0,0,0.0087890625,28.4677734375,0)" xlink:href="#at"/><use transform="matrix(0.0087890625,0,0,0.0087890625,38.0126953125,0)" xlink:href="#ah"/><use transform="matrix(0.0087890625,0,0,0.0087890625,48.146484375,0)" xlink:href="#ai"/></g><path fill="#fff" d="M538-189h170V0H95v-189h170v-1111H95v-189h613v189H538v1111" id="au"/><g id="h"><use transform="matrix(0.0087890625,0,0,0.0087890625,0,0)" xlink:href="#am"/><use transform="matrix(0.0087890625,0,0,0.0087890625,11.9091796875,0)" xlink:href="#ao"/><use transform="matrix(0.0087890625,0,0,0.0087890625,23.044921875,0)" xlink:href="#au"/></g><path fill="#3d4752" d="M625-1489V0H364v-1169c-97 70-205 113-324 128v-235c131-26 248-97 351-213h234" id="av"/><path fill="#3d4752" d="M452 0H163v-278h289V0" id="aw"/><g id="i"><use transform="matrix(0.0087890625,0,0,0.0087890625,0,0)" xlink:href="#av"/><use transform="matrix(0.0087890625,0,0,0.0087890625,7.6904296875,0)" xlink:href="#aw"/></g><path fill="#3d4752" d="M1019-219V0H205v-1489h273v1270h541" id="ax"/><path fill="#3d4752" d="M578-1116c196 0 337 93 423 279 40 87 60 183 60 290 0 225-77 390-230 494-74 50-158 75-253 75-197 0-338-93-424-279-40-87-60-183-60-290 0-226 77-391 231-495 73-49 158-74 253-74zm0 194c-139 0-208 125-208 375s69 375 208 375c138 0 207-125 207-375s-69-375-207-375" id="ay"/><path fill="#3d4752" d="M711-687c-7-170-35-229-188-230-74 0-147 18-220 53l-88-179c111-51 229-76 353-76 303 0 405 148 405 459V0H717v-81C651-13 566 21 461 21 236 21 81-120 81-346c0-158 85-260 254-311 103-31 245-40 376-30zM326-329c0 101 84 155 189 155 91 0 157-36 196-109v-226c-23-4-49-6-78-6-205 0-307 62-307 186" id="az"/><path fill="#3d4752" d="M94-505c0-321 128-611 419-611 101 0 188 30 263 91v-555h263V-1H787v-91C712-16 620 22 509 22c-171 0-293-85-364-254-34-81-51-172-51-273zm682 228v-551c-64-56-127-84-189-84-145 0-218 134-218 401 0 213 68 320 203 320 69 0 137-29 204-86" id="aA"/><g id="j"><use transform="matrix(0.0087890625,0,0,0.0087890625,0,0)" xlink:href="#ax"/><use transform="matrix(0.0087890625,0,0,0.0087890625,9.263671875,0)" xlink:href="#ay"/><use transform="matrix(0.0087890625,0,0,0.0087890625,19.4150390625,0)" xlink:href="#az"/><use transform="matrix(0.0087890625,0,0,0.0087890625,29.3203125,0)" xlink:href="#aA"/></g><path fill="#3d4752" d="M491-632h326l-163-487zM1028 0L887-418H421L279 0H11l527-1489h248L1312 0h-284" id="aB"/><path fill="#3d4752" d="M690-1116c279 0 423 232 423 527 0 261-67 439-196 539C782 54 551 41 431-69v481H168v-1506h253v93c71-77 160-115 269-115zM431-810v545c64 56 127 84 189 84 145 0 218-134 218-402 0-214-68-321-203-321-71 0-139 31-204 94" id="aC"/><g id="k"><use transform="matrix(0.0087890625,0,0,0.0087890625,0,0)" xlink:href="#aB"/><use transform="matrix(0.0087890625,0,0,0.0087890625,11.9091796875,0)" xlink:href="#aC"/><use transform="matrix(0.0087890625,0,0,0.0087890625,22.517578125,0)" xlink:href="#aC"/></g><path fill="#3d4752" d="M431-1094V0H168v-1094h263zm0-190H168v-296h263v296" id="aD"/><path fill="#3d4752" d="M783-1116c173 0 283 89 283 264V0H803v-754c0-92-46-138-139-138-73 0-151 30-233 91V0H168v-1094h263v93c117-77 234-115 352-115" id="aE"/><g id="l"><use transform="matrix(0.0087890625,0,0,0.0087890625,0,0)" xlink:href="#aD"/><use transform="matrix(0.0087890625,0,0,0.0087890625,5.2646484375,0)" xlink:href="#aE"/></g><path fill="#3d4752" d="M919-805c192 25 318 168 317 382 0 282-182 423-545 423H205v-1489h394c214 0 356 50 427 149 39 55 59 132 59 229 0 134-55 236-166 306zM695-219c182-5 263-51 263-220 0-149-88-223-263-223H478v443h217zM478-881h163c121 0 181-69 181-207 0-121-70-182-211-182H478v389" id="aF"/><path fill="#3d4752" d="M431-770V0H168v-1094h263v110c156-133 232-175 396-74l-84 220c-129-52-218-25-312 68" id="aG"/><path fill="#3d4752" d="M980 0L767-713 556 0H350L25-1094h259l176 672 197-672h231l200 672 173-672h248L1186 0H980" id="aH"/><path fill="#3d4752" d="M925-326c0 213-197 348-437 348C341 22 194-16 47-93l93-183c121 69 236 103 345 103s164-42 164-127c0-41-24-75-72-100-19-10-61-25-126-44-165-49-270-109-315-179-27-41-40-94-40-158 0-210 193-335 432-335 111 0 229 34 354 103l-83 176c-101-56-191-84-271-84-107 0-161 40-161 121 0 37 23 66 70 89 16 12 285 99 327 123 105 60 161 144 161 262" id="aI"/><path fill="#3d4752" d="M94-548c0-302 191-568 483-568 311 0 493 270 482 633H370c7 207 93 311 256 311 93 0 196-46 308-137l103 144C907-40 760 22 595 22 293 22 94-237 94-548zm282-120h403c-18-170-85-255-202-255s-184 85-201 255" id="aJ"/><g id="m"><use transform="matrix(0.0087890625,0,0,0.0087890625,0,0)" xlink:href="#aF"/><use transform="matrix(0.0087890625,0,0,0.0087890625,11.7333984375,0)" xlink:href="#aG"/><use transform="matrix(0.0087890625,0,0,0.0087890625,18.5625,0)" xlink:href="#ay"/><use transform="matrix(0.0087890625,0,0,0.0087890625,28.7138671875,0)" xlink:href="#aH"/><use transform="matrix(0.0087890625,0,0,0.0087890625,42.1962890625,0)" xlink:href="#aI"/><use transform="matrix(0.0087890625,0,0,0.0087890625,51.0205078125,0)" xlink:href="#aJ"/><use transform="matrix(0.0087890625,0,0,0.0087890625,61.154296875,0)" xlink:href="#aG"/></g><path fill="#3d4752" d="M731-1053c2-147-92-234-239-233-103 0-211 57-322 170L20-1279c174-158 345-237 512-237 281 0 476 170 476 457 0 143-71 300-212 471-85 102-212 225-383 369h586V0H42v-206c274-235 463-421 566-558 82-109 123-206 123-289" id="aK"/><g id="n"><use transform="matrix(0.0087890625,0,0,0.0087890625,0,0)" xlink:href="#aK"/><use transform="matrix(0.0087890625,0,0,0.0087890625,9.7470703125,0)" xlink:href="#aw"/></g><path fill="#3d4752" d="M1282-743c0 396-250 743-634 743H205v-1489h417c437-2 660 295 660 746zM637-225c233 9 365-240 365-518 0-216-61-366-177-458-90-72-200-63-346-63v1039h158" id="aL"/><path fill="#3d4752" d="M446 22C216 22 155-90 155-336v-1244h263v1196c0 75 6 126 18 153 27 62 110 61 177 31l67 172C603 5 525 22 446 22" id="aM"/><path fill="#3d4752" d="M421-36L25-1094h272l251 717 263-717h249L649 1c-97 251-201 366-459 445L96 279c173-62 281-167 325-315" id="aN"/><g id="o"><use transform="matrix(0.0087890625,0,0,0.0087890625,0,0)" xlink:href="#aL"/><use transform="matrix(0.0087890625,0,0,0.0087890625,12.1640625,0)" xlink:href="#aD"/><use transform="matrix(0.0087890625,0,0,0.0087890625,17.4287109375,0)" xlink:href="#aI"/><use transform="matrix(0.0087890625,0,0,0.0087890625,26.2529296875,0)" xlink:href="#aC"/><use transform="matrix(0.0087890625,0,0,0.0087890625,36.861328125,0)" xlink:href="#aM"/><use transform="matrix(0.0087890625,0,0,0.0087890625,42.556640625,0)" xlink:href="#az"/><use transform="matrix(0.0087890625,0,0,0.0087890625,52.4619140625,0)" xlink:href="#aN"/></g><g id="p"><use transform="matrix(0.0087890625,0,0,0.0087890625,0,0)" xlink:href="#aB"/><use transform="matrix(0.0087890625,0,0,0.0087890625,11.9091796875,0)" xlink:href="#aC"/><use transform="matrix(0.0087890625,0,0,0.0087890625,22.517578125,0)" xlink:href="#aC"/></g><path fill="#3d4752" d="M102-744c-7-402 254-768 642-768 139 0 270 41 393 124l-138 175c-77-55-161-82-252-82-144 0-247 85-308 256-31 85-46 183-46 295 0 228 53 391 167 482 144 115 312 73 466-35l124 172C930 61 588 78 365-105 204-237 107-456 102-744" id="aO"/><path fill="#3d4752" d="M94-547c0-294 207-569 494-569 131 0 260 50 386 150L872-811c-96-74-188-111-277-112-163-2-225 186-225 376 0 251 82 377 246 377 81 0 168-36 260-107l103 137C862-32 733 22 593 22 292 22 94-208 94-547" id="aP"/><path fill="#3d4752" d="M503-384c-2 129 8 204 107 204 41 0 91-13 150-38l66 171C737-1 639 22 533 22c-230-2-293-122-293-358v-559H42v-199h198v-395h263v395h265v199H503v511" id="aQ"/><g id="q"><use transform="matrix(0.0087890625,0,0,0.0087890625,0,0)" xlink:href="#aO"/><use transform="matrix(0.0087890625,0,0,0.0087890625,10.107421875,0)" xlink:href="#ay"/><use transform="matrix(0.0087890625,0,0,0.0087890625,20.2587890625,0)" xlink:href="#aE"/><use transform="matrix(0.0087890625,0,0,0.0087890625,30.9814453125,0)" xlink:href="#aE"/><use transform="matrix(0.0087890625,0,0,0.0087890625,41.7041015625,0)" xlink:href="#aJ"/><use transform="matrix(0.0087890625,0,0,0.0087890625,51.837890625,0)" xlink:href="#aP"/><use transform="matrix(0.0087890625,0,0,0.0087890625,60.85546875,0)" xlink:href="#aQ"/></g><path fill="#3d4752" d="M205-1489h426c365 0 548 153 548 458S998-573 635-573H478V0H205v-1489zm273 219v478h161c177 0 265-80 265-239s-88-239-265-239H478" id="aR"/><path fill="#3d4752" d="M1040 13c1 285-186 425-480 425-155 0-288-42-397-127l107-153c86 57 175 86 266 86 162 0 243-86 243-258v-81C700-18 607 20 498 20c-167 0-286-84-355-253-33-79-49-170-49-272 0-252 66-428 193-533 131-108 361-101 490 7v-64h263V13zM777-276v-551c-65-56-128-84-191-84-145 0-217 133-217 399 0 214 67 321 202 321 71 0 139-28 206-85" id="aS"/><g id="r"><use transform="matrix(0.0087890625,0,0,0.0087890625,0,0)" xlink:href="#aR"/><use transform="matrix(0.0087890625,0,0,0.0087890625,10.177734375,0)" xlink:href="#az"/><use transform="matrix(0.0087890625,0,0,0.0087890625,20.0830078125,0)" xlink:href="#aS"/><use transform="matrix(0.0087890625,0,0,0.0087890625,30.7001953125,0)" xlink:href="#aJ"/></g><path fill="#3d4752" d="M370-189c227 0 373-85 373-303 0-169-129-251-388-248-51 1-95 3-133 8v-141l391-391H40v-225h907v199L592-932c107 3 203 37 288 101 101 75 151 187 151 336 0 346-290 524-655 524-115 0-225-16-328-49v-231c126 41 233 62 322 62" id="aT"/><g id="s"><use transform="matrix(0.0087890625,0,0,0.0087890625,0,0)" xlink:href="#aT"/><use transform="matrix(0.0087890625,0,0,0.0087890625,9.7998046875,0)" xlink:href="#aw"/></g><g id="t"><use transform="matrix(0.0087890625,0,0,0.0087890625,0,0)" xlink:href="#aQ"/><use transform="matrix(0.0087890625,0,0,0.0087890625,7.1015625,0)" xlink:href="#ay"/></g><g id="u"><use transform="matrix(0.0087890625,0,0,0.0087890625,0,0)" xlink:href="#aB"/><use transform="matrix(0.0087890625,0,0,0.0087890625,11.9091796875,0)" xlink:href="#aC"/><use transform="matrix(0.0087890625,0,0,0.0087890625,22.517578125,0)" xlink:href="#aC"/></g><path fill="#3d4752" d="M60-499l513-990h262L362-536h384v-481h258v481h224v215h-224V0H746v-321H60v-178" id="aU"/><g id="v"><use transform="matrix(0.0087890625,0,0,0.0087890625,0,0)" xlink:href="#aU"/><use transform="matrix(0.0087890625,0,0,0.0087890625,11.28515625,0)" xlink:href="#aw"/></g><g id="w"><use transform="matrix(0.0087890625,0,0,0.0087890625,0,0)" xlink:href="#aL"/><use transform="matrix(0.0087890625,0,0,0.0087890625,12.1640625,0)" xlink:href="#aD"/><use transform="matrix(0.0087890625,0,0,0.0087890625,17.4287109375,0)" xlink:href="#aI"/><use transform="matrix(0.0087890625,0,0,0.0087890625,26.2529296875,0)" xlink:href="#aC"/><use transform="matrix(0.0087890625,0,0,0.0087890625,36.861328125,0)" xlink:href="#aM"/><use transform="matrix(0.0087890625,0,0,0.0087890625,42.556640625,0)" xlink:href="#az"/><use transform="matrix(0.0087890625,0,0,0.0087890625,52.4619140625,0)" xlink:href="#aN"/></g><g id="x"><use transform="matrix(0.0087890625,0,0,0.0087890625,0,0)" xlink:href="#aR"/><use transform="matrix(0.0087890625,0,0,0.0087890625,11.1357421875,0)" xlink:href="#aG"/><use transform="matrix(0.0087890625,0,0,0.0087890625,17.96484375,0)" xlink:href="#ay"/><use transform="matrix(0.0087890625,0,0,0.0087890625,28.1162109375,0)" xlink:href="#aP"/><use transform="matrix(0.0087890625,0,0,0.0087890625,36.720703125,0)" xlink:href="#ay"/><use transform="matrix(0.0087890625,0,0,0.0087890625,46.8720703125,0)" xlink:href="#aG"/><use transform="matrix(0.0087890625,0,0,0.0087890625,53.701171875,0)" xlink:href="#aJ"/></g><g id="y"><use transform="matrix(0.0087890625,0,0,0.0087890625,0,0)" xlink:href="#ax"/><use transform="matrix(0.0087890625,0,0,0.0087890625,9.263671875,0)" xlink:href="#ay"/><use transform="matrix(0.0087890625,0,0,0.0087890625,19.4150390625,0)" xlink:href="#aS"/><use transform="matrix(0.0087890625,0,0,0.0087890625,30.0322265625,0)" xlink:href="#aD"/><use transform="matrix(0.0087890625,0,0,0.0087890625,35.296875,0)" xlink:href="#aE"/></g><g id="z"><use transform="matrix(0.0087890625,0,0,0.0087890625,0,0)" xlink:href="#aR"/><use transform="matrix(0.0087890625,0,0,0.0087890625,10.177734375,0)" xlink:href="#az"/><use transform="matrix(0.0087890625,0,0,0.0087890625,20.0830078125,0)" xlink:href="#aE"/><use transform="matrix(0.0087890625,0,0,0.0087890625,30.8056640625,0)" xlink:href="#aJ"/><use transform="matrix(0.0087890625,0,0,0.0087890625,40.939453125,0)" xlink:href="#aM"/></g><path fill="#3d4752" d="M1043-495c7 355-266 524-639 524-113 0-219-16-319-49v-233c110 43 216 64 319 64 207 0 354-101 354-301 0-167-131-250-392-250-67 0-142 7-223 21v-770h831v225H405v316c384-16 631 102 638 453" id="aV"/><g id="A"><use transform="matrix(0.0087890625,0,0,0.0087890625,0,0)" xlink:href="#aV"/><use transform="matrix(0.0087890625,0,0,0.0087890625,10.001953125,0)" xlink:href="#aw"/></g><path fill="#3d4752" d="M1064-219V0H205v-1489h859v219H478v389h485v219H478v443h586" id="aW"/><g id="B"><use transform="matrix(0.0087890625,0,0,0.0087890625,0,0)" xlink:href="#aW"/><use transform="matrix(0.0087890625,0,0,0.0087890625,10.2568359375,0)" xlink:href="#aE"/><use transform="matrix(0.0087890625,0,0,0.0087890625,20.9794921875,0)" xlink:href="#aQ"/><use transform="matrix(0.0087890625,0,0,0.0087890625,28.0810546875,0)" xlink:href="#aJ"/><use transform="matrix(0.0087890625,0,0,0.0087890625,38.21484375,0)" xlink:href="#aG"/></g><g id="C"><use transform="matrix(0.0087890625,0,0,0.0087890625,0,0)" xlink:href="#aR"/><use transform="matrix(0.0087890625,0,0,0.0087890625,11.1357421875,0)" xlink:href="#aG"/><use transform="matrix(0.0087890625,0,0,0.0087890625,17.96484375,0)" xlink:href="#ay"/><use transform="matrix(0.0087890625,0,0,0.0087890625,28.1162109375,0)" xlink:href="#aP"/><use transform="matrix(0.0087890625,0,0,0.0087890625,36.720703125,0)" xlink:href="#ay"/><use transform="matrix(0.0087890625,0,0,0.0087890625,46.8720703125,0)" xlink:href="#aG"/><use transform="matrix(0.0087890625,0,0,0.0087890625,53.701171875,0)" xlink:href="#aJ"/></g><g id="D"><use transform="matrix(0.0087890625,0,0,0.0087890625,0,0)" xlink:href="#ax"/><use transform="matrix(0.0087890625,0,0,0.0087890625,9.263671875,0)" xlink:href="#ay"/><use transform="matrix(0.0087890625,0,0,0.0087890625,19.4150390625,0)" xlink:href="#aS"/><use transform="matrix(0.0087890625,0,0,0.0087890625,30.0322265625,0)" xlink:href="#aD"/><use transform="matrix(0.0087890625,0,0,0.0087890625,35.296875,0)" xlink:href="#aE"/></g><g id="E"><use transform="matrix(0.0087890625,0,0,0.0087890625,0,0)" xlink:href="#aO"/><use transform="matrix(0.0087890625,0,0,0.0087890625,10.107421875,0)" xlink:href="#aG"/><use transform="matrix(0.0087890625,0,0,0.0087890625,16.9365234375,0)" xlink:href="#aJ"/><use transform="matrix(0.0087890625,0,0,0.0087890625,27.0703125,0)" xlink:href="#aA"/><use transform="matrix(0.0087890625,0,0,0.0087890625,37.6787109375,0)" xlink:href="#aI"/></g><path d="M30-248c118-7 216 8 213 122C240-48 200 0 122 0H30v-248zM63-27c89 8 146-16 146-99s-60-101-146-95v194" id="aX"/><path d="M30 0v-248h187v28H63v79h144v27H63v87h162V0H30" id="aY"/><path d="M190 0L58-211 59 0H30v-248h39L202-35l-2-213h31V0h-41" id="aZ"/><path d="M137-103V0h-34v-103L8-248h37l75 118 75-118h37" id="ba"/><g id="F"><use transform="matrix(0.05,0,0,0.05,0,0)" xlink:href="#aX"/><use transform="matrix(0.05,0,0,0.05,12.950000000000001,0)" xlink:href="#aY"/><use transform="matrix(0.05,0,0,0.05,24.950000000000003,0)" xlink:href="#aZ"/><use transform="matrix(0.05,0,0,0.05,37.900000000000006,0)" xlink:href="#ba"/></g><path fill="#3d4752" d="M162-1144c0-238 225-367 498-367 188 0 326 54 413 161 45 55 67 125 67 208 0 132-72 246-217 341 195 91 292 220 292 389 0 181-94 308-281 382C580 110 90-37 90-412c0-147 88-277 264-390-128-92-192-206-192-342zm475-184c-121 0-203 63-207 186-4 131 141 227 270 256 107-71 161-154 161-247 0-125-95-195-224-195zm17 1148c140 0 268-71 268-202 0-119-115-221-346-306-137 78-205 171-205 279 0 153 94 229 283 229" id="bb"/><g id="G"><use transform="matrix(0.0087890625,0,0,0.0087890625,0,0)" xlink:href="#bb"/><use transform="matrix(0.0087890625,0,0,0.0087890625,11.4697265625,0)" xlink:href="#aw"/></g><path fill="#3d4752" d="M867-682L1342 0h-315L578-645H478V0H205v-1489h419c349 0 523 143 523 428 0 191-93 317-280 379zm-389-589v414h119c185 0 277-67 277-200 0-143-84-214-252-214H478" id="bc"/><g id="H"><use transform="matrix(0.0087890625,0,0,0.0087890625,0,0)" xlink:href="#bc"/><use transform="matrix(0.0087890625,0,0,0.0087890625,11.794921875,0)" xlink:href="#aJ"/><use transform="matrix(0.0087890625,0,0,0.0087890625,21.9287109375,0)" xlink:href="#aA"/><use transform="matrix(0.0087890625,0,0,0.0087890625,32.537109375,0)" xlink:href="#aD"/><use transform="matrix(0.0087890625,0,0,0.0087890625,37.8017578125,0)" xlink:href="#aG"/><use transform="matrix(0.0087890625,0,0,0.0087890625,44.630859375,0)" xlink:href="#aJ"/><use transform="matrix(0.0087890625,0,0,0.0087890625,54.7646484375,0)" xlink:href="#aP"/><use transform="matrix(0.0087890625,0,0,0.0087890625,63.7822265625,0)" xlink:href="#aQ"/></g><path d="M205 0l-28-72H64L36 0H1l101-248h38L239 0h-34zm-38-99l-47-123c-12 45-31 82-46 123h93" id="bd"/><path d="M30 0v-248h33v221h125V0H30" id="be"/><path d="M140-251c81 0 123 46 123 126C263-46 219 4 140 4 59 4 17-45 17-125s42-126 123-126zm0 227c63 0 89-41 89-101s-29-99-89-99c-61 0-89 39-89 99S79-25 140-24" id="bf"/><path d="M266 0h-40l-56-210L115 0H75L2-248h35L96-30l15-64 43-154h32l59 218 59-218h35" id="bg"/><g id="I"><use transform="matrix(0.05,0,0,0.05,0,0)" xlink:href="#bd"/><use transform="matrix(0.05,0,0,0.05,12,0)" xlink:href="#be"/><use transform="matrix(0.05,0,0,0.05,22,0)" xlink:href="#be"/><use transform="matrix(0.05,0,0,0.05,32,0)" xlink:href="#bf"/><use transform="matrix(0.05,0,0,0.05,46,0)" xlink:href="#bg"/></g><path fill="#3d4752" d="M1149-747c0 436-219 768-651 768-107 0-218-22-333-65l46-186c95 35 182 53 260 53 229 0 357-144 385-431-77 45-176 68-299 68-279 0-467-175-467-455 0-297 206-518 504-518 370 0 555 255 555 766zm-292-92c0-306-87-459-262-459-147 0-221 99-221 298 0 168 72 252 216 252 105 0 194-30 267-91" id="bh"/><g id="J"><use transform="matrix(0.0087890625,0,0,0.0087890625,0,0)" xlink:href="#bh"/><use transform="matrix(0.0087890625,0,0,0.0087890625,10.93359375,0)" xlink:href="#aw"/></g><path fill="#3d4752" d="M1037-1094L712-596 1113 0H816L559-408 303 0H25l393-596-336-498h296l191 307 190-307h278" id="bi"/><g id="K"><use transform="matrix(0.0087890625,0,0,0.0087890625,0,0)" xlink:href="#aW"/><use transform="matrix(0.0087890625,0,0,0.0087890625,10.2568359375,0)" xlink:href="#bi"/><use transform="matrix(0.0087890625,0,0,0.0087890625,20.2587890625,0)" xlink:href="#aQ"/><use transform="matrix(0.0087890625,0,0,0.0087890625,27.3603515625,0)" xlink:href="#aG"/><use transform="matrix(0.0087890625,0,0,0.0087890625,33.7939453125,0)" xlink:href="#az"/><use transform="matrix(0.0087890625,0,0,0.0087890625,43.69921875,0)" xlink:href="#aP"/><use transform="matrix(0.0087890625,0,0,0.0087890625,52.716796875,0)" xlink:href="#aQ"/></g><g id="L"><use transform="matrix(0.0087890625,0,0,0.0087890625,0,0)" xlink:href="#aB"/><use transform="matrix(0.0087890625,0,0,0.0087890625,11.9091796875,0)" xlink:href="#aP"/><use transform="matrix(0.0087890625,0,0,0.0087890625,20.513671875,0)" xlink:href="#aP"/><use transform="matrix(0.0087890625,0,0,0.0087890625,29.1181640625,0)" xlink:href="#aJ"/><use transform="matrix(0.0087890625,0,0,0.0087890625,39.251953125,0)" xlink:href="#aI"/><use transform="matrix(0.0087890625,0,0,0.0087890625,48.076171875,0)" xlink:href="#aI"/></g><path fill="#3d4752" d="M45-1270v-219h1063v219H713V0H440v-1270H45" id="bj"/><path fill="#3d4752" d="M1152 0H835L431-519V0H168v-1580h263v869l332-383h308L654-620" id="bk"/><g id="M"><use transform="matrix(0.0087890625,0,0,0.0087890625,0,0)" xlink:href="#bj"/><use transform="matrix(0.0087890625,0,0,0.0087890625,7.9365234375,0)" xlink:href="#ay"/><use transform="matrix(0.0087890625,0,0,0.0087890625,18.087890625,0)" xlink:href="#bk"/><use transform="matrix(0.0087890625,0,0,0.0087890625,27.66796875,0)" xlink:href="#aJ"/><use transform="matrix(0.0087890625,0,0,0.0087890625,37.8017578125,0)" xlink:href="#aE"/></g><path fill="#3d4752" d="M95-741c0-437 231-772 649-772 103 0 201 18 294 55l-47 186c-70-25-141-38-214-38-243 0-377 183-389 432 85-47 185-70 301-70 279 0 461 164 465 456 4 305-191 517-506 517C279 25 95-230 95-741zm292 93c0 306 87 459 261 459 148 0 222-102 222-306 0-165-76-247-227-247-108 0-193 31-256 94" id="bl"/><g id="N"><use transform="matrix(0.0087890625,0,0,0.0087890625,0,0)" xlink:href="#bl"/><use transform="matrix(0.0087890625,0,0,0.0087890625,10.93359375,0)" xlink:href="#aw"/></g><g id="O"><use transform="matrix(0.0087890625,0,0,0.0087890625,0,0)" xlink:href="#aO"/><use transform="matrix(0.0087890625,0,0,0.0087890625,10.107421875,0)" xlink:href="#ay"/><use transform="matrix(0.0087890625,0,0,0.0087890625,20.2587890625,0)" xlink:href="#aE"/><use transform="matrix(0.0087890625,0,0,0.0087890625,30.9814453125,0)" xlink:href="#aI"/><use transform="matrix(0.0087890625,0,0,0.0087890625,39.8056640625,0)" xlink:href="#aJ"/><use transform="matrix(0.0087890625,0,0,0.0087890625,49.939453125,0)" xlink:href="#aE"/><use transform="matrix(0.0087890625,0,0,0.0087890625,60.662109375,0)" xlink:href="#aQ"/></g><g id="P"><use transform="matrix(0.0087890625,0,0,0.0087890625,0,0)" xlink:href="#aL"/><use transform="matrix(0.0087890625,0,0,0.0087890625,12.1640625,0)" xlink:href="#aD"/><use transform="matrix(0.0087890625,0,0,0.0087890625,17.4287109375,0)" xlink:href="#az"/><use transform="matrix(0.0087890625,0,0,0.0087890625,27.333984375,0)" xlink:href="#aM"/><use transform="matrix(0.0087890625,0,0,0.0087890625,33.029296875,0)" xlink:href="#ay"/><use transform="matrix(0.0087890625,0,0,0.0087890625,43.1806640625,0)" xlink:href="#aS"/></g><path fill="#3d4752" d="M51-1489h1032v186L481 0H194l581-1265H51v-224" id="bm"/><g id="Q"><use transform="matrix(0.0087890625,0,0,0.0087890625,0,0)" xlink:href="#bm"/><use transform="matrix(0.0087890625,0,0,0.0087890625,10.2041015625,0)" xlink:href="#aw"/></g><path fill="#3d4752" d="M437 22c-177 0-283-91-283-265v-851h263v755c0 91 46 137 139 137 75 0 152-32 233-95v-797h263V0H789v-93C670-16 552 22 437 22" id="bn"/><path fill="#3d4752" d="M784-1116c178 0 282 88 282 264V0H803v-754c0-92-46-138-138-138-74 0-152 32-234 95V0H168v-1580h263v579c117-77 234-115 353-115" id="bo"/><path fill="#3d4752" d="M913-199V0H57v-145l540-750H116v-199h789v167L377-199h536" id="bp"/><g id="R"><use transform="matrix(0.0087890625,0,0,0.0087890625,0,0)" xlink:href="#aB"/><use transform="matrix(0.0087890625,0,0,0.0087890625,11.9091796875,0)" xlink:href="#bn"/><use transform="matrix(0.0087890625,0,0,0.0087890625,22.6318359375,0)" xlink:href="#aQ"/><use transform="matrix(0.0087890625,0,0,0.0087890625,29.7333984375,0)" xlink:href="#bo"/><use transform="matrix(0.0087890625,0,0,0.0087890625,40.4560546875,0)" xlink:href="#ay"/><use transform="matrix(0.0087890625,0,0,0.0087890625,50.607421875,0)" xlink:href="#aG"/><use transform="matrix(0.0087890625,0,0,0.0087890625,57.796875,0)" xlink:href="#aD"/><use transform="matrix(0.0087890625,0,0,0.0087890625,63.0615234375,0)" xlink:href="#bp"/><use transform="matrix(0.0087890625,0,0,0.0087890625,71.666015625,0)" xlink:href="#aJ"/></g><path fill="#3d4752" d="M1233-744c0 399-195 768-565 768-181 0-323-79-425-237-94-145-141-322-141-531 0-297 85-517 254-660 85-72 189-108 312-108 370 0 565 369 565 768zm-565-554c-125 0-209 90-253 271-20 82-30 176-30 283 0 225 42 385 125 481 43 49 95 74 158 74 125 0 209-91 252-272 20-83 30-178 30-283 0-227-41-387-123-481-42-49-95-73-159-73" id="bq"/><g id="S"><use transform="matrix(0.0087890625,0,0,0.0087890625,0,0)" xlink:href="#av"/><use transform="matrix(0.0087890625,0,0,0.0087890625,7.6904296875,0)" xlink:href="#bq"/><use transform="matrix(0.0087890625,0,0,0.0087890625,19.423828125,0)" xlink:href="#aw"/></g><path fill="#3d4752" d="M582-1489l334 833 329-833h295L1695 0h-278l-102-1047-287 738H798l-298-738L397 0H130l154-1489h298" id="br"/><g id="T"><use transform="matrix(0.0087890625,0,0,0.0087890625,0,0)" xlink:href="#br"/><use transform="matrix(0.0087890625,0,0,0.0087890625,16.0400390625,0)" xlink:href="#az"/><use transform="matrix(0.0087890625,0,0,0.0087890625,25.9453125,0)" xlink:href="#bk"/><use transform="matrix(0.0087890625,0,0,0.0087890625,35.525390625,0)" xlink:href="#aJ"/></g><path fill="#3d4752" d="M538-189h170V0H95v-189h170v-1111H95v-189h613v189H538v1111" id="bs"/><g id="U"><use transform="matrix(0.0087890625,0,0,0.0087890625,0,0)" xlink:href="#aB"/><use transform="matrix(0.0087890625,0,0,0.0087890625,11.9091796875,0)" xlink:href="#aR"/><use transform="matrix(0.0087890625,0,0,0.0087890625,23.044921875,0)" xlink:href="#bs"/></g><g id="V"><use transform="matrix(0.0087890625,0,0,0.0087890625,0,0)" xlink:href="#aO"/><use transform="matrix(0.0087890625,0,0,0.0087890625,10.107421875,0)" xlink:href="#az"/><use transform="matrix(0.0087890625,0,0,0.0087890625,20.0126953125,0)" xlink:href="#aM"/><use transform="matrix(0.0087890625,0,0,0.0087890625,25.7080078125,0)" xlink:href="#aM"/></g><g id="W"><use transform="matrix(0.0087890625,0,0,0.0087890625,0,0)" xlink:href="#av"/><use transform="matrix(0.0087890625,0,0,0.0087890625,7.6904296875,0)" xlink:href="#av"/><use transform="matrix(0.0087890625,0,0,0.0087890625,15.380859375,0)" xlink:href="#aw"/></g><g id="X"><use transform="matrix(0.0087890625,0,0,0.0087890625,0,0)" xlink:href="#bc"/><use transform="matrix(0.0087890625,0,0,0.0087890625,11.794921875,0)" xlink:href="#aJ"/><use transform="matrix(0.0087890625,0,0,0.0087890625,21.9287109375,0)" xlink:href="#aI"/><use transform="matrix(0.0087890625,0,0,0.0087890625,30.7529296875,0)" xlink:href="#aC"/><use transform="matrix(0.0087890625,0,0,0.0087890625,41.361328125,0)" xlink:href="#ay"/><use transform="matrix(0.0087890625,0,0,0.0087890625,51.5126953125,0)" xlink:href="#aE"/><use transform="matrix(0.0087890625,0,0,0.0087890625,62.2353515625,0)" xlink:href="#aA"/></g><g id="Y"><use transform="matrix(0.0087890625,0,0,0.0087890625,0,0)" xlink:href="#aB"/><use transform="matrix(0.0087890625,0,0,0.0087890625,11.9091796875,0)" xlink:href="#aR"/><use transform="matrix(0.0087890625,0,0,0.0087890625,23.044921875,0)" xlink:href="#bs"/></g><path fill="#3d4752" d="M776-276v-550c-61-57-124-86-189-86-145 0-218 134-218 401 0 214 68 321 203 321 73 0 141-29 204-86zM94-505c0-324 124-613 416-611 109 0 201 33 277 98v-76h252V412H776V-87C709-14 620 22 509 22 243 22 94-224 94-505" id="bt"/><g id="Z"><use transform="matrix(0.0087890625,0,0,0.0087890625,0,0)" xlink:href="#bc"/><use transform="matrix(0.0087890625,0,0,0.0087890625,11.794921875,0)" xlink:href="#aJ"/><use transform="matrix(0.0087890625,0,0,0.0087890625,21.9287109375,0)" xlink:href="#bt"/><use transform="matrix(0.0087890625,0,0,0.0087890625,32.537109375,0)" xlink:href="#bn"/><use transform="matrix(0.0087890625,0,0,0.0087890625,43.259765625,0)" xlink:href="#aJ"/><use transform="matrix(0.0087890625,0,0,0.0087890625,53.3935546875,0)" xlink:href="#aI"/><use transform="matrix(0.0087890625,0,0,0.0087890625,62.2177734375,0)" xlink:href="#aQ"/></g><g id="aa"><use transform="matrix(0.0087890625,0,0,0.0087890625,0,0)" xlink:href="#av"/><use transform="matrix(0.0087890625,0,0,0.0087890625,7.6904296875,0)" xlink:href="#aK"/><use transform="matrix(0.0087890625,0,0,0.0087890625,17.4375,0)" xlink:href="#aw"/></g><g id="ab"><use transform="matrix(0.0087890625,0,0,0.0087890625,0,0)" xlink:href="#bc"/><use transform="matrix(0.0087890625,0,0,0.0087890625,11.794921875,0)" xlink:href="#aJ"/><use transform="matrix(0.0087890625,0,0,0.0087890625,21.9287109375,0)" xlink:href="#aI"/><use transform="matrix(0.0087890625,0,0,0.0087890625,30.7529296875,0)" xlink:href="#aC"/><use transform="matrix(0.0087890625,0,0,0.0087890625,41.361328125,0)" xlink:href="#ay"/><use transform="matrix(0.0087890625,0,0,0.0087890625,51.5126953125,0)" xlink:href="#aE"/><use transform="matrix(0.0087890625,0,0,0.0087890625,62.2353515625,0)" xlink:href="#aI"/><use transform="matrix(0.0087890625,0,0,0.0087890625,71.0595703125,0)" xlink:href="#aJ"/></g><g id="ac"><use transform="matrix(0.0087890625,0,0,0.0087890625,0,0)" xlink:href="#av"/><use transform="matrix(0.0087890625,0,0,0.0087890625,7.6904296875,0)" xlink:href="#aT"/><use transform="matrix(0.0087890625,0,0,0.0087890625,17.490234375,0)" xlink:href="#aw"/></g><path fill="#3d4752" d="M311-1489L685-377l375-1112h268L802 0H554L27-1489h284" id="bu"/><g id="ad"><use transform="matrix(0.0087890625,0,0,0.0087890625,0,0)" xlink:href="#bu"/><use transform="matrix(0.0087890625,0,0,0.0087890625,11.9091796875,0)" xlink:href="#aD"/><use transform="matrix(0.0087890625,0,0,0.0087890625,17.173828125,0)" xlink:href="#aJ"/><use transform="matrix(0.0087890625,0,0,0.0087890625,27.3076171875,0)" xlink:href="#aH"/></g><g id="ae"><use transform="matrix(0.0087890625,0,0,0.0087890625,0,0)" xlink:href="#bc"/><use transform="matrix(0.0087890625,0,0,0.0087890625,11.794921875,0)" xlink:href="#aJ"/><use transform="matrix(0.0087890625,0,0,0.0087890625,21.9287109375,0)" xlink:href="#aI"/><use transform="matrix(0.0087890625,0,0,0.0087890625,30.7529296875,0)" xlink:href="#aC"/><use transform="matrix(0.0087890625,0,0,0.0087890625,41.361328125,0)" xlink:href="#ay"/><use transform="matrix(0.0087890625,0,0,0.0087890625,51.5126953125,0)" xlink:href="#aE"/><use transform="matrix(0.0087890625,0,0,0.0087890625,62.2353515625,0)" xlink:href="#aI"/><use transform="matrix(0.0087890625,0,0,0.0087890625,71.0595703125,0)" xlink:href="#aJ"/></g></defs></g></svg>