<svg xmlns="http://www.w3.org/2000/svg" xmlns:xlink="http://www.w3.org/1999/xlink" width="1360" height="700"><g transform="translate(8480 1280)"><path d="M-8400-1040h160v120h-160z" stroke="#000" stroke-width="2" fill="#fff"/><use xlink:href="#a" transform="matrix(1,0,0,1,-8392,-1032) translate(41.55 44.8)"/><use xlink:href="#b" transform="matrix(1,0,0,1,-8392,-1032) translate(32.574999999999996 66.4)"/><path d="M-8180-1040h160v120h-160z" stroke="#000" stroke-width="2" fill="#fff"/><use xlink:href="#c" transform="matrix(1,0,0,1,-8172,-1032) translate(22.14999999999999 55.6)"/><use xlink:href="#d" transform="matrix(1,0,0,1,-8172,-1032) translate(67 55.6)"/><path d="M-7960-1040h160v120h-160z" stroke="#000" stroke-width="2" fill="#fff"/><use xlink:href="#e" transform="matrix(1,0,0,1,-7952,-1032) translate(25.624999999999993 55.6)"/><path d="M-8460-880h160v120h-160z" stroke="#000" stroke-width="2" fill="#fff"/><use xlink:href="#f" transform="matrix(1,0,0,1,-8452,-872) translate(3.625 55.6)"/><use xlink:href="#g" transform="matrix(1,0,0,1,-8452,-872) translate(69.525 55.6)"/><path d="M-8280-880h160v120h-160z" stroke="#000" stroke-width="2" fill="#fff"/><use xlink:href="#f" transform="matrix(1,0,0,1,-8272,-872) translate(14.074999999999996 55.6)"/><use xlink:href="#h" transform="matrix(1,0,0,1,-8272,-872) translate(79.975 55.6)"/><path d="M-8460-720h160v120h-160z" stroke="#000" stroke-width="2" fill="#fff"/><use xlink:href="#f" transform="matrix(1,0,0,1,-8455,-715) translate(11.624999999999993 47.8)"/><use xlink:href="#i" transform="matrix(1,0,0,1,-8455,-715) translate(77.525 47.8)"/><use xlink:href="#j" transform="matrix(1,0,0,1,-8455,-715) translate(27.574999999999996 69.4)"/><path d="M-8380-720v-40" stroke="#000" stroke-width="2" fill="none"/><path d="M-7740-1040h160v120h-160z" stroke="#000" stroke-width="2" fill="#fff"/><use xlink:href="#k" transform="matrix(1,0,0,1,-7732,-1032) translate(29.624999999999993 55.6)"/><path d="M-7520-1040h160v120h-160z" stroke="#000" stroke-width="2" fill="#fff"/><use xlink:href="#f" transform="matrix(1,0,0,1,-7512,-1032) translate(14.599999999999994 55.6)"/><use xlink:href="#l" transform="matrix(1,0,0,1,-7512,-1032) translate(80.5 55.6)"/><path d="M-7300-1040h160v120h-160z" stroke="#000" stroke-width="2" fill="#fff"/><use xlink:href="#a" transform="matrix(1,0,0,1,-7292,-1032) translate(41.55 44.8)"/><use xlink:href="#m" transform="matrix(1,0,0,1,-7292,-1032) translate(23.124999999999993 66.4)"/><path d="M-7300-880h160v120h-160z" stroke="#000" stroke-width="2" fill="#fff"/><use xlink:href="#f" transform="matrix(1,0,0,1,-7292,-872) translate(6.625 55.6)"/><use xlink:href="#n" transform="matrix(1,0,0,1,-7292,-872) translate(72.525 55.6)"/><path d="M-7300-720h160v120h-160z" stroke="#000" stroke-width="2" fill="#fff"/><use xlink:href="#f" transform="matrix(1,0,0,1,-7292,-712) translate(18.574999999999996 55.6)"/><use xlink:href="#o" transform="matrix(1,0,0,1,-7292,-712) translate(84.475 55.6)"/><path d="M-7840-1260h160v120h-160z" stroke="#000" stroke-width="2" fill="#f47e42" fill-opacity=".5"/><use xlink:href="#p" transform="matrix(1,0,0,1,-7832,-1252) translate(41.55 44.8)"/><use xlink:href="#q" transform="matrix(1,0,0,1,-7832,-1252) translate(45.599999999999994 66.4)"/><path d="M-8320-1100h1120M-8320-1100v59" stroke="#000" stroke-width="2" fill="none"/><path d="M-8319-1040h-2v-1h2z"/><path d="M-8103-1100v59" stroke="#000" stroke-width="2" fill="none"/><path d="M-8102-1040h-2v-1h2z"/><path d="M-7879-1100v59" stroke="#000" stroke-width="2" fill="none"/><path d="M-7878-1040h-2v-1h2z"/><path d="M-7659-1100v59" stroke="#000" stroke-width="2" fill="none"/><path d="M-7658-1040h-2v-1h2z"/><path d="M-7435-1100v59" stroke="#000" stroke-width="2" fill="none"/><path d="M-7434-1040h-2v-1h2z"/><path d="M-7200-1100v59" stroke="#000" stroke-width="2" fill="none"/><path d="M-7199-1040h-2v-1h2z"/><path d="M-7220-920v40M-7220-760v39" stroke="#000" stroke-width="2" fill="none"/><path d="M-7219-720h-2v-1h2z"/><path d="M-7760-1140v40h.5M-8377.85-919v38" stroke="#000" stroke-width="2" fill="none"/><path d="M-8376.85-919h-2v-1h2zM-8376.85-880h-2v-1h2z"/><path d="M-8257.85-919v38" stroke="#000" stroke-width="2" fill="none"/><path d="M-8256.85-919h-2v-1h2zM-8256.85-880h-2v-1h2z"/><defs><path d="M24-248c93 1 206-16 204 79-1 75-69 88-152 82V0H24v-248zm52 121c47 0 100 7 100-41 0-47-54-39-100-39v80" id="r"/><path d="M135-150c-39-12-60 13-60 57V0H25l-1-190h47c2 13-1 29 3 40 6-28 27-53 61-41v41" id="s"/><path d="M110-194c64 0 96 36 96 99 0 64-35 99-97 99-61 0-95-36-95-99 0-62 34-99 96-99zm-1 164c35 0 45-28 45-65 0-40-10-65-43-65-34 0-45 26-45 65 0 36 10 65 43 65" id="t"/><path d="M25-224v-37h50v37H25zM75 22c2 45-34 59-81 51V38c22 5 31-5 31-27v-201h50V22" id="u"/><path d="M185-48c-13 30-37 53-82 52C43 2 14-33 14-96s30-98 90-98c62 0 83 45 84 108H66c0 31 8 55 39 56 18 0 30-7 34-22zm-45-69c5-46-57-63-70-21-2 6-4 13-4 21h74" id="v"/><path d="M190-63c-7 42-38 67-86 67-59 0-84-38-90-98-12-110 154-137 174-36l-49 2c-2-19-15-32-35-32-30 0-35 28-38 64-6 74 65 87 74 30" id="w"/><path d="M115-3C79 11 28 4 28-45v-112H4v-33h27l15-45h31v45h36v33H77v99c-1 23 16 31 38 25v30" id="x"/><g id="a"><use transform="matrix(0.05,0,0,0.05,0,0)" xlink:href="#r"/><use transform="matrix(0.05,0,0,0.05,12,0)" xlink:href="#s"/><use transform="matrix(0.05,0,0,0.05,19,0)" xlink:href="#t"/><use transform="matrix(0.05,0,0,0.05,29.950000000000003,0)" xlink:href="#u"/><use transform="matrix(0.05,0,0,0.05,34.95,0)" xlink:href="#v"/><use transform="matrix(0.05,0,0,0.05,44.95,0)" xlink:href="#w"/><use transform="matrix(0.05,0,0,0.05,54.95,0)" xlink:href="#x"/></g><path d="M24-248c120-7 223 5 221 122C244-46 201 0 124 0H24v-248zM76-40c74 7 117-18 117-86 0-67-45-88-117-82v168" id="y"/><path d="M25-224v-37h50v37H25zM25 0v-190h50V0H25" id="z"/><path d="M123 10C108 53 80 86 19 72V37c35 8 53-11 59-39L3-190h52l48 148c12-52 28-100 44-148h51" id="A"/><g id="b"><use transform="matrix(0.05,0,0,0.05,0,0)" xlink:href="#y"/><use transform="matrix(0.05,0,0,0.05,12.950000000000001,0)" xlink:href="#z"/><use transform="matrix(0.05,0,0,0.05,17.950000000000003,0)" xlink:href="#s"/><use transform="matrix(0.05,0,0,0.05,24.950000000000003,0)" xlink:href="#v"/><use transform="matrix(0.05,0,0,0.05,34.95,0)" xlink:href="#w"/><use transform="matrix(0.05,0,0,0.05,44.95,0)" xlink:href="#x"/><use transform="matrix(0.05,0,0,0.05,50.900000000000006,0)" xlink:href="#t"/><use transform="matrix(0.05,0,0,0.05,61.85,0)" xlink:href="#s"/><use transform="matrix(0.05,0,0,0.05,68.85000000000001,0)" xlink:href="#A"/></g><path d="M67-125c0 53 21 87 73 88 37 1 54-22 65-47l45 17C233-25 199 4 140 4 58 4 20-42 15-125 8-235 124-281 211-232c18 10 29 29 36 50l-46 12c-8-25-30-41-62-41-52 0-71 34-72 86" id="B"/><path d="M137-138c1-29-70-34-71-4 15 46 118 7 119 86 1 83-164 76-172 9l43-7c4 19 20 25 44 25 33 8 57-30 24-41C81-84 22-81 20-136c-2-80 154-74 161-7" id="C"/><g id="c"><use transform="matrix(0.05,0,0,0.05,0,0)" xlink:href="#B"/><use transform="matrix(0.05,0,0,0.05,12.950000000000001,0)" xlink:href="#t"/><use transform="matrix(0.05,0,0,0.05,23.900000000000002,0)" xlink:href="#C"/><use transform="matrix(0.05,0,0,0.05,33.900000000000006,0)" xlink:href="#x"/></g><path d="M88-194c31-1 46 15 58 34l-1-101h50l1 261h-48c-2-10 0-23-3-31C134-8 116 4 84 4 32 4 16-41 15-95c0-56 19-97 73-99zm17 164c33 0 40-30 41-66 1-37-9-64-41-64s-38 30-39 65c0 43 13 65 39 65" id="D"/><g id="d"><use transform="matrix(0.05,0,0,0.05,0,0)" xlink:href="#B"/><use transform="matrix(0.05,0,0,0.05,12.950000000000001,0)" xlink:href="#t"/><use transform="matrix(0.05,0,0,0.05,23.900000000000002,0)" xlink:href="#D"/><use transform="matrix(0.05,0,0,0.05,34.85,0)" xlink:href="#v"/><use transform="matrix(0.05,0,0,0.05,44.85,0)" xlink:href="#C"/></g><path d="M24 0v-248h195v40H76v63h132v40H76v65h150V0H24" id="E"/><path d="M84 4C32 4 15-41 15-95c0-55 18-99 73-99 29 0 47 12 58 34l2-30h48l-1 265h-49V-32C136-9 114 4 84 4zm21-34c32 0 41-29 41-66 0-36-9-64-40-64-33 0-39 30-40 65 0 43 13 65 39 65" id="F"/><path d="M85 4C-2 5 27-109 22-190h50c7 57-23 150 33 157 60-5 35-97 40-157h50l1 190h-47c-2-12 1-28-3-38-12 25-28 42-61 42" id="G"/><path d="M135-194c53 0 70 44 70 98 0 56-19 98-73 100-31 1-45-17-59-34 3 33 2 69 2 105H25l-1-265h48c2 10 0 23 3 31 11-24 29-35 60-35zM114-30c33 0 39-31 40-66 0-38-9-64-40-64-56 0-55 130 0 130" id="H"/><path d="M220-157c-53 9-28 100-34 157h-49v-107c1-27-5-49-29-50C55-147 81-57 75 0H25l-1-190h47c2 12-1 28 3 38 10-53 101-56 108 0 13-22 24-43 59-42 82 1 51 116 57 194h-49v-107c-1-25-5-48-29-50" id="I"/><path d="M135-194c87-1 58 113 63 194h-50c-7-57 23-157-34-157-59 0-34 97-39 157H25l-1-190h47c2 12-1 28 3 38 12-26 28-41 61-42" id="J"/><g id="e"><use transform="matrix(0.05,0,0,0.05,0,0)" xlink:href="#E"/><use transform="matrix(0.05,0,0,0.05,12,0)" xlink:href="#F"/><use transform="matrix(0.05,0,0,0.05,22.950000000000003,0)" xlink:href="#G"/><use transform="matrix(0.05,0,0,0.05,33.900000000000006,0)" xlink:href="#z"/><use transform="matrix(0.05,0,0,0.05,38.900000000000006,0)" xlink:href="#H"/><use transform="matrix(0.05,0,0,0.05,49.85000000000001,0)" xlink:href="#I"/><use transform="matrix(0.05,0,0,0.05,65.85000000000001,0)" xlink:href="#v"/><use transform="matrix(0.05,0,0,0.05,75.85000000000001,0)" xlink:href="#J"/><use transform="matrix(0.05,0,0,0.05,86.80000000000001,0)" xlink:href="#x"/></g><g id="f"><use transform="matrix(0.05,0,0,0.05,0,0)" xlink:href="#r"/><use transform="matrix(0.05,0,0,0.05,12,0)" xlink:href="#s"/><use transform="matrix(0.05,0,0,0.05,19,0)" xlink:href="#t"/><use transform="matrix(0.05,0,0,0.05,29.950000000000003,0)" xlink:href="#u"/><use transform="matrix(0.05,0,0,0.05,34.95,0)" xlink:href="#v"/><use transform="matrix(0.05,0,0,0.05,44.95,0)" xlink:href="#w"/><use transform="matrix(0.05,0,0,0.05,54.95,0)" xlink:href="#x"/></g><path d="M147 0H94L2-248h55l64 206c17-72 42-137 63-206h54" id="K"/><g id="g"><use transform="matrix(0.05,0,0,0.05,0,0)" xlink:href="#K"/><use transform="matrix(0.05,0,0,0.05,11,0)" xlink:href="#v"/><use transform="matrix(0.05,0,0,0.05,21,0)" xlink:href="#J"/><use transform="matrix(0.05,0,0,0.05,31.950000000000003,0)" xlink:href="#D"/><use transform="matrix(0.05,0,0,0.05,42.900000000000006,0)" xlink:href="#t"/><use transform="matrix(0.05,0,0,0.05,53.85,0)" xlink:href="#s"/><use transform="matrix(0.05,0,0,0.05,60.85,0)" xlink:href="#C"/></g><path d="M238-95c0 69-44 99-111 99C63 4 22-25 22-93v-155h51v151c-1 38 19 59 55 60 90 1 49-130 58-211h52v153" id="L"/><g id="h"><use transform="matrix(0.05,0,0,0.05,0,0)" xlink:href="#L"/><use transform="matrix(0.05,0,0,0.05,12.950000000000001,0)" xlink:href="#C"/><use transform="matrix(0.05,0,0,0.05,22.950000000000003,0)" xlink:href="#v"/><use transform="matrix(0.05,0,0,0.05,32.95,0)" xlink:href="#s"/><use transform="matrix(0.05,0,0,0.05,39.95,0)" xlink:href="#C"/></g><g id="i"><use transform="matrix(0.05,0,0,0.05,0,0)" xlink:href="#K"/><use transform="matrix(0.05,0,0,0.05,11,0)" xlink:href="#v"/><use transform="matrix(0.05,0,0,0.05,21,0)" xlink:href="#J"/><use transform="matrix(0.05,0,0,0.05,31.950000000000003,0)" xlink:href="#D"/><use transform="matrix(0.05,0,0,0.05,42.900000000000006,0)" xlink:href="#t"/><use transform="matrix(0.05,0,0,0.05,53.85,0)" xlink:href="#s"/></g><path d="M24 0v-248h52V0H24" id="M"/><path d="M133-34C117-15 103 5 69 4 32 3 11-16 11-54c-1-60 55-63 116-61 1-26-3-47-28-47-18 1-26 9-28 27l-52-2c7-38 36-58 82-57s74 22 75 68l1 82c-1 14 12 18 25 15v27c-30 8-71 5-69-32zm-48 3c29 0 43-24 42-57-32 0-66-3-65 30 0 17 8 27 23 27" id="N"/><g id="j"><use transform="matrix(0.05,0,0,0.05,0,0)" xlink:href="#M"/><use transform="matrix(0.05,0,0,0.05,5,0)" xlink:href="#J"/><use transform="matrix(0.05,0,0,0.05,15.950000000000001,0)" xlink:href="#C"/><use transform="matrix(0.05,0,0,0.05,25.950000000000003,0)" xlink:href="#G"/><use transform="matrix(0.05,0,0,0.05,36.900000000000006,0)" xlink:href="#s"/><use transform="matrix(0.05,0,0,0.05,43.900000000000006,0)" xlink:href="#N"/><use transform="matrix(0.05,0,0,0.05,53.900000000000006,0)" xlink:href="#J"/><use transform="matrix(0.05,0,0,0.05,64.85000000000001,0)" xlink:href="#w"/><use transform="matrix(0.05,0,0,0.05,74.85000000000001,0)" xlink:href="#v"/><use transform="matrix(0.05,0,0,0.05,84.85000000000001,0)" xlink:href="#C"/></g><path d="M24 0v-248h52v208h133V0H24" id="O"/><g id="k"><use transform="matrix(0.05,0,0,0.05,0,0)" xlink:href="#O"/><use transform="matrix(0.05,0,0,0.05,10.950000000000001,0)" xlink:href="#t"/><use transform="matrix(0.05,0,0,0.05,21.900000000000002,0)" xlink:href="#w"/><use transform="matrix(0.05,0,0,0.05,31.900000000000002,0)" xlink:href="#N"/><use transform="matrix(0.05,0,0,0.05,41.900000000000006,0)" xlink:href="#x"/><use transform="matrix(0.05,0,0,0.05,47.85000000000001,0)" xlink:href="#z"/><use transform="matrix(0.05,0,0,0.05,52.85,0)" xlink:href="#t"/><use transform="matrix(0.05,0,0,0.05,63.80000000000001,0)" xlink:href="#J"/><use transform="matrix(0.05,0,0,0.05,74.75000000000001,0)" xlink:href="#C"/></g><g id="l"><use transform="matrix(0.05,0,0,0.05,0,0)" xlink:href="#y"/><use transform="matrix(0.05,0,0,0.05,12.950000000000001,0)" xlink:href="#N"/><use transform="matrix(0.05,0,0,0.05,22.950000000000003,0)" xlink:href="#x"/><use transform="matrix(0.05,0,0,0.05,28.900000000000002,0)" xlink:href="#v"/><use transform="matrix(0.05,0,0,0.05,38.900000000000006,0)" xlink:href="#C"/></g><g id="m"><use transform="matrix(0.05,0,0,0.05,0,0)" xlink:href="#y"/><use transform="matrix(0.05,0,0,0.05,12.950000000000001,0)" xlink:href="#t"/><use transform="matrix(0.05,0,0,0.05,23.900000000000002,0)" xlink:href="#w"/><use transform="matrix(0.05,0,0,0.05,33.900000000000006,0)" xlink:href="#G"/><use transform="matrix(0.05,0,0,0.05,44.85000000000001,0)" xlink:href="#I"/><use transform="matrix(0.05,0,0,0.05,60.85,0)" xlink:href="#v"/><use transform="matrix(0.05,0,0,0.05,70.85000000000001,0)" xlink:href="#J"/><use transform="matrix(0.05,0,0,0.05,81.80000000000001,0)" xlink:href="#x"/><use transform="matrix(0.05,0,0,0.05,87.75000000000001,0)" xlink:href="#C"/></g><path d="M76-208v77h127v40H76V0H24v-248h183v40H76" id="P"/><path d="M25 0v-261h50V0H25" id="Q"/><g id="n"><use transform="matrix(0.05,0,0,0.05,0,0)" xlink:href="#P"/><use transform="matrix(0.05,0,0,0.05,10.950000000000001,0)" xlink:href="#t"/><use transform="matrix(0.05,0,0,0.05,21.900000000000002,0)" xlink:href="#Q"/><use transform="matrix(0.05,0,0,0.05,26.900000000000002,0)" xlink:href="#D"/><use transform="matrix(0.05,0,0,0.05,37.85,0)" xlink:href="#v"/><use transform="matrix(0.05,0,0,0.05,47.85,0)" xlink:href="#s"/><use transform="matrix(0.05,0,0,0.05,54.85,0)" xlink:href="#C"/></g><g id="o"><use transform="matrix(0.05,0,0,0.05,0,0)" xlink:href="#P"/><use transform="matrix(0.05,0,0,0.05,10.950000000000001,0)" xlink:href="#z"/><use transform="matrix(0.05,0,0,0.05,15.950000000000001,0)" xlink:href="#Q"/><use transform="matrix(0.05,0,0,0.05,20.950000000000003,0)" xlink:href="#v"/><use transform="matrix(0.05,0,0,0.05,30.950000000000003,0)" xlink:href="#C"/></g><g id="p"><use transform="matrix(0.05,0,0,0.05,0,0)" xlink:href="#r"/><use transform="matrix(0.05,0,0,0.05,12,0)" xlink:href="#s"/><use transform="matrix(0.05,0,0,0.05,19,0)" xlink:href="#t"/><use transform="matrix(0.05,0,0,0.05,29.950000000000003,0)" xlink:href="#u"/><use transform="matrix(0.05,0,0,0.05,34.95,0)" xlink:href="#v"/><use transform="matrix(0.05,0,0,0.05,44.95,0)" xlink:href="#w"/><use transform="matrix(0.05,0,0,0.05,54.95,0)" xlink:href="#x"/></g><path d="M67-93c0 74 22 123 53 168H70C40 30 18-18 18-93s22-123 52-168h50c-32 44-53 94-53 168" id="R"/><path d="M102-93c0 74-22 123-52 168H0C30 29 54-18 53-93c0-74-22-123-53-168h50c30 45 52 94 52 168" id="S"/><g id="q"><use transform="matrix(0.05,0,0,0.05,0,0)" xlink:href="#R"/><use transform="matrix(0.05,0,0,0.05,5.95,0)" xlink:href="#B"/><use transform="matrix(0.05,0,0,0.05,18.900000000000002,0)" xlink:href="#t"/><use transform="matrix(0.05,0,0,0.05,29.85,0)" xlink:href="#s"/><use transform="matrix(0.05,0,0,0.05,36.85,0)" xlink:href="#v"/><use transform="matrix(0.05,0,0,0.05,46.85,0)" xlink:href="#S"/></g></defs></g></svg>