<svg xmlns="http://www.w3.org/2000/svg" xmlns:xlink="http://www.w3.org/1999/xlink" width="1300" height="840"><g transform="translate(6760 1279.999999999999)"><path d="M-6740-1060h160v120h-160z" stroke="#000" stroke-width="2" fill="#fff"/><use xlink:href="#a" transform="matrix(1,0,0,1,-6732,-1051.9999999999995) translate(41.125 55.6)"/><path d="M-6520-1060h160v120h-160z" stroke="#000" stroke-width="2" fill="#fff"/><use xlink:href="#b" transform="matrix(1,0,0,1,-6512,-1051.9999999999995) translate(7.1499999999999915 55.6)"/><use xlink:href="#c" transform="matrix(1,0,0,1,-6512,-1051.9999999999995) translate(77.95 55.6)"/><path d="M-6300-1060h160v120h-160z" stroke="#000" stroke-width="2" fill="#fff"/><use xlink:href="#b" transform="matrix(1,0,0,1,-6292,-1051.9999999999995) translate(7.125 55.6)"/><use xlink:href="#d" transform="matrix(1,0,0,1,-6292,-1051.9999999999995) translate(77.92500000000001 55.6)"/><path d="M-6080-1060h160v120h-160z" stroke="#000" stroke-width="2" fill="#fff"/><use xlink:href="#e" transform="matrix(1,0,0,1,-6072,-1051.9999999999995) translate(7.625 55.6)"/><use xlink:href="#f" transform="matrix(1,0,0,1,-6072,-1051.9999999999995) translate(62.625 55.6)"/><path d="M-5860-1060h160v120h-160z" stroke="#000" stroke-width="2" fill="#fff"/><use xlink:href="#g" transform="matrix(1,0,0,1,-5852,-1051.9999999999995) translate(12.124999999999993 55.6)"/><path d="M-5640-1060h160v120h-160z" stroke="#000" stroke-width="2" fill="#fff"/><use xlink:href="#h" transform="matrix(1,0,0,1,-5632,-1051.9999999999995) translate(19.124999999999993 55.6)"/><use xlink:href="#i" transform="matrix(1,0,0,1,-5632,-1051.9999999999995) translate(75.025 55.6)"/><path d="M-6300-900h160v120h-160z" stroke="#000" stroke-width="2" fill="#fff"/><use xlink:href="#b" transform="matrix(1,0,0,1,-6292,-891.9999999999995) translate(12.124999999999993 44.8)"/><use xlink:href="#j" transform="matrix(1,0,0,1,-6292,-891.9999999999995) translate(82.92500000000001 44.8)"/><use xlink:href="#k" transform="matrix(1,0,0,1,-6292,-891.9999999999995) translate(30.525 66.4)"/><path d="M-6300-740h160v120h-160z" stroke="#000" stroke-width="2" fill="#fff"/><use xlink:href="#b" transform="matrix(1,0,0,1,-6292,-731.9999999999995) translate(12.124999999999993 44.8)"/><use xlink:href="#j" transform="matrix(1,0,0,1,-6292,-731.9999999999995) translate(82.92500000000001 44.8)"/><use xlink:href="#l" transform="matrix(1,0,0,1,-6292,-731.9999999999995) translate(31.599999999999994 66.4)"/><path d="M-6300-580h160v120h-160z" stroke="#000" stroke-width="2" fill="#fff"/><use xlink:href="#m" transform="matrix(1,0,0,1,-6292,-572) translate(34.099999999999994 44.8)"/><use xlink:href="#n" transform="matrix(1,0,0,1,-6292,-572) translate(7.125 66.4)"/><use xlink:href="#o" transform="matrix(1,0,0,1,-6292,-572) translate(77.92500000000001 66.4)"/><path d="M-6220-940v39" stroke="#000" stroke-width="2" fill="none"/><path d="M-6219-900h-2v-1h2z"/><path d="M-6220-780v39" stroke="#000" stroke-width="2" fill="none"/><path d="M-6219-740h-2v-1h2z"/><path d="M-6220-620v39" stroke="#000" stroke-width="2" fill="none"/><path d="M-6219-580h-2v-1h2z"/><path d="M-5980-860h160v120h-160z" stroke="#000" stroke-width="2" fill="#fff"/><use xlink:href="#p" transform="matrix(1,0,0,1,-5972,-852) translate(22.75 44.8)"/><use xlink:href="#j" transform="matrix(1,0,0,1,-5972,-852) translate(72.3 44.8)"/><use xlink:href="#q" transform="matrix(1,0,0,1,-5972,-852) translate(30.124999999999993 66.4)"/><path d="M-5740-860h160v120h-160z" stroke="#000" stroke-width="2" fill="#fff"/><g><use xlink:href="#r" transform="matrix(1,0,0,1,-5732,-851.9999999999995) translate(4.574999999999989 44.8)"/><use xlink:href="#j" transform="matrix(1,0,0,1,-5732,-851.9999999999995) translate(90.475 44.8)"/><use xlink:href="#q" transform="matrix(1,0,0,1,-5732,-851.9999999999995) translate(30.124999999999993 66.4)"/></g><path d="M-5900-860v-40h120v-40M-5660-860v-40h-120v-40" stroke="#000" stroke-width="2" fill="none"/><path d="M-6180-1260h160v120h-160z" stroke="#000" stroke-width="2" fill="#f47e42" fill-opacity=".5"/><g><use xlink:href="#s" transform="matrix(1,0,0,1,-6172,-1251.999999999999) translate(41.55 34)"/><use xlink:href="#t" transform="matrix(1,0,0,1,-6172,-1251.999999999999) translate(13.224999999999994 55.6)"/><use xlink:href="#u" transform="matrix(1,0,0,1,-6172,-1251.999999999999) translate(25.099999999999994 77.2)"/></g><path d="M-6100-1140v40h-560v40" stroke="#000" stroke-width="2" fill="none"/><path d="M-6100-1140v40h-340v40" stroke="#000" stroke-width="2" fill="none"/><path d="M-6100-1140v40h-120v40M-6100-1140v40h100v40" stroke="#000" stroke-width="2" fill="none"/><path d="M-6100-1140v40h320v40" stroke="#000" stroke-width="2" fill="none"/><path d="M-6100-1140v40h540v40" stroke="#000" stroke-width="2" fill="none"/><defs><path d="M182-130c37 4 62 22 62 59C244 23 116-4 24 0v-248c84 5 203-23 205 63 0 31-19 50-47 55zM76-148c40-3 101 13 101-30 0-44-60-28-101-31v61zm0 110c48-3 116 14 116-37 0-48-69-32-116-35v72" id="v"/><path d="M85 4C-2 5 27-109 22-190h50c7 57-23 150 33 157 60-5 35-97 40-157h50l1 190h-47c-2-12 1-28-3-38-12 25-28 42-61 42" id="w"/><path d="M88-194c31-1 46 15 58 34l-1-101h50l1 261h-48c-2-10 0-23-3-31C134-8 116 4 84 4 32 4 16-41 15-95c0-56 19-97 73-99zm17 164c33 0 40-30 41-66 1-37-9-64-41-64s-38 30-39 65c0 43 13 65 39 65" id="x"/><path d="M195-6C206 82 75 100 31 46c-4-6-6-13-8-21l49-6c3 16 16 24 34 25 40 0 42-37 40-79-11 22-30 35-61 35-53 0-70-43-70-97 0-56 18-96 73-97 30 0 46 14 59 34l2-30h47zm-90-29c32 0 41-27 41-63 0-35-9-62-40-62-32 0-39 29-40 63 0 36 9 62 39 62" id="y"/><path d="M185-48c-13 30-37 53-82 52C43 2 14-33 14-96s30-98 90-98c62 0 83 45 84 108H66c0 31 8 55 39 56 18 0 30-7 34-22zm-45-69c5-46-57-63-70-21-2 6-4 13-4 21h74" id="z"/><path d="M115-3C79 11 28 4 28-45v-112H4v-33h27l15-45h31v45h36v33H77v99c-1 23 16 31 38 25v30" id="A"/><g id="a"><use transform="matrix(0.05,0,0,0.05,0,0)" xlink:href="#v"/><use transform="matrix(0.05,0,0,0.05,12.950000000000001,0)" xlink:href="#w"/><use transform="matrix(0.05,0,0,0.05,23.900000000000002,0)" xlink:href="#x"/><use transform="matrix(0.05,0,0,0.05,34.85,0)" xlink:href="#y"/><use transform="matrix(0.05,0,0,0.05,45.800000000000004,0)" xlink:href="#z"/><use transform="matrix(0.05,0,0,0.05,55.800000000000004,0)" xlink:href="#A"/></g><path d="M67-125c0 53 21 87 73 88 37 1 54-22 65-47l45 17C233-25 199 4 140 4 58 4 20-42 15-125 8-235 124-281 211-232c18 10 29 29 36 50l-46 12c-8-25-30-41-62-41-52 0-71 34-72 86" id="B"/><path d="M114-157C55-157 80-60 75 0H25v-261h50l-1 109c12-26 28-41 61-42 86-1 58 113 63 194h-50c-7-57 23-157-34-157" id="C"/><path d="M133-34C117-15 103 5 69 4 32 3 11-16 11-54c-1-60 55-63 116-61 1-26-3-47-28-47-18 1-26 9-28 27l-52-2c7-38 36-58 82-57s74 22 75 68l1 82c-1 14 12 18 25 15v27c-30 8-71 5-69-32zm-48 3c29 0 43-24 42-57-32 0-66-3-65 30 0 17 8 27 23 27" id="D"/><path d="M135-194c87-1 58 113 63 194h-50c-7-57 23-157-34-157-59 0-34 97-39 157H25l-1-190h47c2 12-1 28 3 38 12-26 28-41 61-42" id="E"/><g id="b"><use transform="matrix(0.05,0,0,0.05,0,0)" xlink:href="#B"/><use transform="matrix(0.05,0,0,0.05,12.950000000000001,0)" xlink:href="#C"/><use transform="matrix(0.05,0,0,0.05,23.900000000000002,0)" xlink:href="#D"/><use transform="matrix(0.05,0,0,0.05,33.900000000000006,0)" xlink:href="#E"/><use transform="matrix(0.05,0,0,0.05,44.85000000000001,0)" xlink:href="#y"/><use transform="matrix(0.05,0,0,0.05,55.80000000000001,0)" xlink:href="#z"/></g><path d="M24 0v-248h195v40H76v63h132v40H76v65h150V0H24" id="F"/><path d="M128 0H69L1-190h53L99-40l48-150h52" id="G"/><path d="M137-138c1-29-70-34-71-4 15 46 118 7 119 86 1 83-164 76-172 9l43-7c4 19 20 25 44 25 33 8 57-30 24-41C81-84 22-81 20-136c-2-80 154-74 161-7" id="H"/><g id="c"><use transform="matrix(0.05,0,0,0.05,0,0)" xlink:href="#F"/><use transform="matrix(0.05,0,0,0.05,12,0)" xlink:href="#G"/><use transform="matrix(0.05,0,0,0.05,22,0)" xlink:href="#z"/><use transform="matrix(0.05,0,0,0.05,32,0)" xlink:href="#E"/><use transform="matrix(0.05,0,0,0.05,42.95,0)" xlink:href="#A"/><use transform="matrix(0.05,0,0,0.05,48.900000000000006,0)" xlink:href="#H"/></g><path d="M140-251c80 0 125 45 125 126S219 4 139 4C58 4 15-44 15-125s44-126 125-126zm-1 214c52 0 73-35 73-88 0-50-21-86-72-86-52 0-73 35-73 86s22 88 72 88" id="I"/><path d="M135-150c-39-12-60 13-60 57V0H25l-1-190h47c2 13-1 29 3 40 6-28 27-53 61-41v41" id="J"/><g id="d"><use transform="matrix(0.05,0,0,0.05,0,0)" xlink:href="#I"/><use transform="matrix(0.05,0,0,0.05,14,0)" xlink:href="#J"/><use transform="matrix(0.05,0,0,0.05,21,0)" xlink:href="#x"/><use transform="matrix(0.05,0,0,0.05,31.950000000000003,0)" xlink:href="#z"/><use transform="matrix(0.05,0,0,0.05,41.95,0)" xlink:href="#J"/><use transform="matrix(0.05,0,0,0.05,48.95,0)" xlink:href="#H"/></g><path d="M24-248c93 1 206-16 204 79-1 75-69 88-152 82V0H24v-248zm52 121c47 0 100 7 100-41 0-47-54-39-100-39v80" id="K"/><path d="M25-224v-37h50v37H25zM25 0v-190h50V0H25" id="L"/><path d="M220-157c-53 9-28 100-34 157h-49v-107c1-27-5-49-29-50C55-147 81-57 75 0H25l-1-190h47c2 12-1 28 3 38 10-53 101-56 108 0 13-22 24-43 59-42 82 1 51 116 57 194h-49v-107c-1-25-5-48-29-50" id="M"/><g id="e"><use transform="matrix(0.05,0,0,0.05,0,0)" xlink:href="#K"/><use transform="matrix(0.05,0,0,0.05,12,0)" xlink:href="#J"/><use transform="matrix(0.05,0,0,0.05,19,0)" xlink:href="#L"/><use transform="matrix(0.05,0,0,0.05,24,0)" xlink:href="#M"/><use transform="matrix(0.05,0,0,0.05,40,0)" xlink:href="#z"/></g><path d="M110-194c64 0 96 36 96 99 0 64-35 99-97 99-61 0-95-36-95-99 0-62 34-99 96-99zm-1 164c35 0 45-28 45-65 0-40-10-65-43-65-34 0-45 26-45 65 0 36 10 65 43 65" id="N"/><path d="M190-63c-7 42-38 67-86 67-59 0-84-38-90-98-12-110 154-137 174-36l-49 2c-2-19-15-32-35-32-30 0-35 28-38 64-6 74 65 87 74 30" id="O"/><g id="f"><use transform="matrix(0.05,0,0,0.05,0,0)" xlink:href="#B"/><use transform="matrix(0.05,0,0,0.05,12.950000000000001,0)" xlink:href="#N"/><use transform="matrix(0.05,0,0,0.05,23.900000000000002,0)" xlink:href="#E"/><use transform="matrix(0.05,0,0,0.05,34.85,0)" xlink:href="#A"/><use transform="matrix(0.05,0,0,0.05,40.800000000000004,0)" xlink:href="#J"/><use transform="matrix(0.05,0,0,0.05,47.800000000000004,0)" xlink:href="#D"/><use transform="matrix(0.05,0,0,0.05,57.800000000000004,0)" xlink:href="#O"/><use transform="matrix(0.05,0,0,0.05,67.80000000000001,0)" xlink:href="#A"/></g><g id="g"><use transform="matrix(0.05,0,0,0.05,0,0)" xlink:href="#B"/><use transform="matrix(0.05,0,0,0.05,12.950000000000001,0)" xlink:href="#N"/><use transform="matrix(0.05,0,0,0.05,23.900000000000002,0)" xlink:href="#M"/><use transform="matrix(0.05,0,0,0.05,39.900000000000006,0)" xlink:href="#M"/><use transform="matrix(0.05,0,0,0.05,55.900000000000006,0)" xlink:href="#L"/><use transform="matrix(0.05,0,0,0.05,60.900000000000006,0)" xlink:href="#A"/><use transform="matrix(0.05,0,0,0.05,66.85000000000001,0)" xlink:href="#M"/><use transform="matrix(0.05,0,0,0.05,82.85000000000001,0)" xlink:href="#z"/><use transform="matrix(0.05,0,0,0.05,92.85000000000001,0)" xlink:href="#E"/><use transform="matrix(0.05,0,0,0.05,103.80000000000001,0)" xlink:href="#A"/><use transform="matrix(0.05,0,0,0.05,109.75,0)" xlink:href="#H"/></g><path d="M24-248c120-7 223 5 221 122C244-46 201 0 124 0H24v-248zM76-40c74 7 117-18 117-86 0-67-45-88-117-82v168" id="P"/><g id="h"><use transform="matrix(0.05,0,0,0.05,0,0)" xlink:href="#P"/><use transform="matrix(0.05,0,0,0.05,12.950000000000001,0)" xlink:href="#L"/><use transform="matrix(0.05,0,0,0.05,17.950000000000003,0)" xlink:href="#J"/><use transform="matrix(0.05,0,0,0.05,24.950000000000003,0)" xlink:href="#z"/><use transform="matrix(0.05,0,0,0.05,34.95,0)" xlink:href="#O"/><use transform="matrix(0.05,0,0,0.05,44.95,0)" xlink:href="#A"/></g><g id="i"><use transform="matrix(0.05,0,0,0.05,0,0)" xlink:href="#B"/><use transform="matrix(0.05,0,0,0.05,12.950000000000001,0)" xlink:href="#N"/><use transform="matrix(0.05,0,0,0.05,23.900000000000002,0)" xlink:href="#H"/><use transform="matrix(0.05,0,0,0.05,33.900000000000006,0)" xlink:href="#A"/><use transform="matrix(0.05,0,0,0.05,39.85000000000001,0)" xlink:href="#H"/></g><g id="j"><use transform="matrix(0.05,0,0,0.05,0,0)" xlink:href="#I"/><use transform="matrix(0.05,0,0,0.05,14,0)" xlink:href="#J"/><use transform="matrix(0.05,0,0,0.05,21,0)" xlink:href="#x"/><use transform="matrix(0.05,0,0,0.05,31.950000000000003,0)" xlink:href="#z"/><use transform="matrix(0.05,0,0,0.05,41.95,0)" xlink:href="#J"/></g><path d="M147 0L96-86 75-71V0H25v-261h50v150l67-79h53l-66 74L201 0h-54" id="Q"/><g id="k"><use transform="matrix(0.05,0,0,0.05,0,0)" xlink:href="#K"/><use transform="matrix(0.05,0,0,0.05,12,0)" xlink:href="#D"/><use transform="matrix(0.05,0,0,0.05,22,0)" xlink:href="#O"/><use transform="matrix(0.05,0,0,0.05,32,0)" xlink:href="#Q"/><use transform="matrix(0.05,0,0,0.05,42,0)" xlink:href="#D"/><use transform="matrix(0.05,0,0,0.05,52,0)" xlink:href="#y"/><use transform="matrix(0.05,0,0,0.05,62.95,0)" xlink:href="#z"/><use transform="matrix(0.05,0,0,0.05,72.95,0)" xlink:href="#H"/></g><path d="M240-174c0 40-23 61-54 70L253 0h-59l-57-94H76V0H24v-248c93 4 217-23 216 74zM76-134c48-2 112 12 112-38 0-48-66-32-112-35v73" id="R"/><path d="M84 4C32 4 15-41 15-95c0-55 18-99 73-99 29 0 47 12 58 34l2-30h48l-1 265h-49V-32C136-9 114 4 84 4zm21-34c32 0 41-29 41-66 0-36-9-64-40-64-33 0-39 30-40 65 0 43 13 65 39 65" id="S"/><g id="l"><use transform="matrix(0.05,0,0,0.05,0,0)" xlink:href="#R"/><use transform="matrix(0.05,0,0,0.05,12.950000000000001,0)" xlink:href="#z"/><use transform="matrix(0.05,0,0,0.05,22.950000000000003,0)" xlink:href="#S"/><use transform="matrix(0.05,0,0,0.05,33.900000000000006,0)" xlink:href="#w"/><use transform="matrix(0.05,0,0,0.05,44.85000000000001,0)" xlink:href="#z"/><use transform="matrix(0.05,0,0,0.05,54.85,0)" xlink:href="#H"/><use transform="matrix(0.05,0,0,0.05,64.85000000000001,0)" xlink:href="#A"/><use transform="matrix(0.05,0,0,0.05,70.80000000000001,0)" xlink:href="#H"/></g><path d="M25 0v-261h50V0H25" id="T"/><g id="m"><use transform="matrix(0.05,0,0,0.05,0,0)" xlink:href="#K"/><use transform="matrix(0.05,0,0,0.05,12,0)" xlink:href="#N"/><use transform="matrix(0.05,0,0,0.05,22.950000000000003,0)" xlink:href="#A"/><use transform="matrix(0.05,0,0,0.05,28.900000000000002,0)" xlink:href="#z"/><use transform="matrix(0.05,0,0,0.05,38.900000000000006,0)" xlink:href="#E"/><use transform="matrix(0.05,0,0,0.05,49.85000000000001,0)" xlink:href="#A"/><use transform="matrix(0.05,0,0,0.05,55.80000000000001,0)" xlink:href="#L"/><use transform="matrix(0.05,0,0,0.05,60.80000000000001,0)" xlink:href="#D"/><use transform="matrix(0.05,0,0,0.05,70.80000000000001,0)" xlink:href="#T"/></g><g id="n"><use transform="matrix(0.05,0,0,0.05,0,0)" xlink:href="#B"/><use transform="matrix(0.05,0,0,0.05,12.950000000000001,0)" xlink:href="#C"/><use transform="matrix(0.05,0,0,0.05,23.900000000000002,0)" xlink:href="#D"/><use transform="matrix(0.05,0,0,0.05,33.900000000000006,0)" xlink:href="#E"/><use transform="matrix(0.05,0,0,0.05,44.85000000000001,0)" xlink:href="#y"/><use transform="matrix(0.05,0,0,0.05,55.80000000000001,0)" xlink:href="#z"/></g><g id="o"><use transform="matrix(0.05,0,0,0.05,0,0)" xlink:href="#I"/><use transform="matrix(0.05,0,0,0.05,14,0)" xlink:href="#J"/><use transform="matrix(0.05,0,0,0.05,21,0)" xlink:href="#x"/><use transform="matrix(0.05,0,0,0.05,31.950000000000003,0)" xlink:href="#z"/><use transform="matrix(0.05,0,0,0.05,41.95,0)" xlink:href="#J"/><use transform="matrix(0.05,0,0,0.05,48.95,0)" xlink:href="#H"/></g><path d="M275 0h-61l-44-196L126 0H64L0-248h53L97-49l45-199h58l43 199 44-199h52" id="U"/><g id="p"><use transform="matrix(0.05,0,0,0.05,0,0)" xlink:href="#U"/><use transform="matrix(0.05,0,0,0.05,16.599999999999998,0)" xlink:href="#N"/><use transform="matrix(0.05,0,0,0.05,27.549999999999997,0)" xlink:href="#J"/><use transform="matrix(0.05,0,0,0.05,34.55,0)" xlink:href="#Q"/></g><g id="q"><use transform="matrix(0.05,0,0,0.05,0,0)" xlink:href="#B"/><use transform="matrix(0.05,0,0,0.05,12.950000000000001,0)" xlink:href="#N"/><use transform="matrix(0.05,0,0,0.05,23.900000000000002,0)" xlink:href="#E"/><use transform="matrix(0.05,0,0,0.05,34.85,0)" xlink:href="#A"/><use transform="matrix(0.05,0,0,0.05,40.800000000000004,0)" xlink:href="#J"/><use transform="matrix(0.05,0,0,0.05,47.800000000000004,0)" xlink:href="#D"/><use transform="matrix(0.05,0,0,0.05,57.800000000000004,0)" xlink:href="#O"/><use transform="matrix(0.05,0,0,0.05,67.80000000000001,0)" xlink:href="#A"/><use transform="matrix(0.05,0,0,0.05,73.75000000000001,0)" xlink:href="#H"/></g><g id="r"><use transform="matrix(0.05,0,0,0.05,0,0)" xlink:href="#K"/><use transform="matrix(0.05,0,0,0.05,12,0)" xlink:href="#w"/><use transform="matrix(0.05,0,0,0.05,22.950000000000003,0)" xlink:href="#J"/><use transform="matrix(0.05,0,0,0.05,29.950000000000003,0)" xlink:href="#O"/><use transform="matrix(0.05,0,0,0.05,39.95,0)" xlink:href="#C"/><use transform="matrix(0.05,0,0,0.05,50.900000000000006,0)" xlink:href="#D"/><use transform="matrix(0.05,0,0,0.05,60.900000000000006,0)" xlink:href="#H"/><use transform="matrix(0.05,0,0,0.05,70.9,0)" xlink:href="#z"/></g><path d="M25-224v-37h50v37H25zM75 22c2 45-34 59-81 51V38c22 5 31-5 31-27v-201h50V22" id="V"/><g id="s"><use transform="matrix(0.05,0,0,0.05,0,0)" xlink:href="#K"/><use transform="matrix(0.05,0,0,0.05,12,0)" xlink:href="#J"/><use transform="matrix(0.05,0,0,0.05,19,0)" xlink:href="#N"/><use transform="matrix(0.05,0,0,0.05,29.950000000000003,0)" xlink:href="#V"/><use transform="matrix(0.05,0,0,0.05,34.95,0)" xlink:href="#z"/><use transform="matrix(0.05,0,0,0.05,44.95,0)" xlink:href="#O"/><use transform="matrix(0.05,0,0,0.05,54.95,0)" xlink:href="#A"/></g><path d="M67-93c0 74 22 123 53 168H70C40 30 18-18 18-93s22-123 52-168h50c-32 44-53 94-53 168" id="W"/><g id="t"><use transform="matrix(0.05,0,0,0.05,0,0)" xlink:href="#W"/><use transform="matrix(0.05,0,0,0.05,5.95,0)" xlink:href="#B"/><use transform="matrix(0.05,0,0,0.05,18.900000000000002,0)" xlink:href="#N"/><use transform="matrix(0.05,0,0,0.05,29.85,0)" xlink:href="#E"/><use transform="matrix(0.05,0,0,0.05,40.800000000000004,0)" xlink:href="#H"/><use transform="matrix(0.05,0,0,0.05,50.800000000000004,0)" xlink:href="#A"/><use transform="matrix(0.05,0,0,0.05,56.75,0)" xlink:href="#J"/><use transform="matrix(0.05,0,0,0.05,63.75,0)" xlink:href="#w"/><use transform="matrix(0.05,0,0,0.05,74.7,0)" xlink:href="#O"/><use transform="matrix(0.05,0,0,0.05,84.7,0)" xlink:href="#A"/><use transform="matrix(0.05,0,0,0.05,90.65,0)" xlink:href="#L"/><use transform="matrix(0.05,0,0,0.05,95.65,0)" xlink:href="#N"/><use transform="matrix(0.05,0,0,0.05,106.60000000000001,0)" xlink:href="#E"/></g><path d="M76-208v77h127v40H76V0H24v-248h183v40H76" id="X"/><path d="M102-93c0 74-22 123-52 168H0C30 29 54-18 53-93c0-74-22-123-53-168h50c30 45 52 94 52 168" id="Y"/><g id="u"><use transform="matrix(0.05,0,0,0.05,0,0)" xlink:href="#X"/><use transform="matrix(0.05,0,0,0.05,10.950000000000001,0)" xlink:href="#L"/><use transform="matrix(0.05,0,0,0.05,15.950000000000001,0)" xlink:href="#E"/><use transform="matrix(0.05,0,0,0.05,26.900000000000002,0)" xlink:href="#D"/><use transform="matrix(0.05,0,0,0.05,36.900000000000006,0)" xlink:href="#E"/><use transform="matrix(0.05,0,0,0.05,47.85000000000001,0)" xlink:href="#O"/><use transform="matrix(0.05,0,0,0.05,57.85,0)" xlink:href="#L"/><use transform="matrix(0.05,0,0,0.05,62.85,0)" xlink:href="#D"/><use transform="matrix(0.05,0,0,0.05,72.85000000000001,0)" xlink:href="#T"/><use transform="matrix(0.05,0,0,0.05,77.85000000000001,0)" xlink:href="#H"/><use transform="matrix(0.05,0,0,0.05,87.85000000000001,0)" xlink:href="#Y"/></g></defs></g></svg>