<svg width="18" height="18" viewBox="0 0 18 18" fill="none" xmlns="http://www.w3.org/2000/svg">
<g id="Short Arrow Right Regular">
<path id="Vector" d="M5.44991 3.14127L4.66104 3.93014C4.46999 4.12118 4.47313 4.43193 4.66799 4.61908L7.91246 7.73493H0.482342C0.215968 7.73493 0 7.95089 0 8.21727V9.34273C0 9.60911 0.215968 9.82507 0.482342 9.82507H7.91246L4.66803 12.9409C4.47313 13.1281 4.46999 13.4388 4.66108 13.6299L5.44995 14.4187C5.6383 14.6071 5.94371 14.6071 6.1321 14.4187L11.4298 9.12106C11.6181 8.9327 11.6181 8.6273 11.4298 8.4389L6.13202 3.14127C5.94366 2.95291 5.63826 2.95291 5.44991 3.14127Z" fill="#FF5200"/>
</g>
</svg>
